<svg width="525" height="445" viewBox="0 0 525 445" fill="none" xmlns="http://www.w3.org/2000/svg">
<path d="M524.064 222.966C523.987 261.923 523.948 281.402 520.912 297.631C507.202 370.924 449.722 428.176 376.374 441.595C360.134 444.566 340.655 444.528 301.698 444.45L221.925 444.292C182.968 444.214 163.489 444.175 147.261 441.14C73.9673 427.429 16.715 369.949 3.29621 296.602C0.325013 280.361 0.363735 260.882 0.441179 221.925C0.518623 182.968 0.557345 163.489 3.59309 147.261C17.3034 73.9673 74.7838 16.715 148.131 3.29622C164.372 0.324993 183.85 0.363715 222.808 0.441159L302.58 0.599741C341.537 0.677185 361.016 0.715907 377.245 3.75168C450.538 17.462 507.79 74.9424 521.209 148.29C524.18 164.53 524.142 184.009 524.064 222.966Z" fill="url(#paint0_linear_1079_4194)" fill-opacity="0.878431"/>
<defs>
<linearGradient id="paint0_linear_1079_4194" x1="402" y1="408.5" x2="410.5" y2="236" gradientUnits="userSpaceOnUse">
<stop stop-color="#86E7EE"/>
<stop offset="1" stop-color="#3183FF"/>
</linearGradient>
</defs>
</svg>
