<svg width="360" height="518" viewBox="0 0 360 518" fill="none" xmlns="http://www.w3.org/2000/svg">
<path d="M441.595 270.948C441.472 332.907 441.41 363.887 433.813 389.107C416.329 447.149 370.805 492.492 312.695 509.745C287.445 517.242 256.465 517.18 194.505 517.057L164.081 516.996C102.122 516.873 71.1422 516.812 45.9222 509.215C-12.1196 491.731 -57.463 446.207 -74.716 388.096C-82.2127 362.846 -82.1511 331.866 -82.0279 269.907L-81.6079 58.5995C-81.4847 -3.3599 -81.4231 -34.3396 -73.8261 -59.5596C-56.3422 -117.601 -10.8181 -162.945 47.2927 -180.198C72.5427 -187.694 103.522 -187.633 165.482 -187.51L195.906 -187.449C257.865 -187.326 288.845 -187.264 314.065 -179.667C372.107 -162.184 417.45 -116.659 434.703 -58.5487C442.2 -33.2987 442.138 -2.31894 442.015 59.6406L441.595 270.948Z" fill="url(#paint0_linear_452_4255)" fill-opacity="0.878431"/>
<defs>
<linearGradient id="paint0_linear_452_4255" x1="319.524" y1="459.927" x2="340.548" y2="187.064" gradientUnits="userSpaceOnUse">
<stop stop-color="#86E7EE"/>
<stop offset="1" stop-color="#3183FF"/>
</linearGradient>
</defs>
</svg>
