<svg width="360" height="289" viewBox="0 0 360 289" fill="none" xmlns="http://www.w3.org/2000/svg">
<path d="M442.064 66.9661C441.987 105.923 441.948 125.402 438.912 141.631C425.202 214.924 367.722 272.176 294.374 285.595C278.134 288.566 258.655 288.528 219.698 288.45L139.925 288.292C100.968 288.214 81.4894 288.175 65.2607 285.14C-8.03268 271.429 -65.285 213.949 -78.7038 140.602C-81.675 124.361 -81.6363 104.882 -81.5588 65.9252C-81.4814 26.968 -81.4427 7.48944 -78.4069 -8.7393C-64.6967 -82.0327 -7.21621 -139.285 66.1311 -152.704C82.3718 -155.675 101.85 -155.636 140.808 -155.559L220.58 -155.4C259.537 -155.323 279.016 -155.284 295.245 -152.248C368.538 -138.538 425.79 -81.0576 439.209 -7.71031C442.18 8.53037 442.142 28.009 442.064 66.9661Z" fill="url(#paint0_linear_452_4255)" fill-opacity="0.878431"/>
<defs>
<linearGradient id="paint0_linear_452_4255" x1="320" y1="252.5" x2="328.5" y2="80" gradientUnits="userSpaceOnUse">
<stop stop-color="#86E7EE"/>
<stop offset="1" stop-color="#3183FF"/>
</linearGradient>
</defs>
</svg>
