<svg width="29" height="30" viewBox="0 0 29 30" fill="none" xmlns="http://www.w3.org/2000/svg">
<path d="M26.7444 30L16.5944 19.5C15.7889 20.1667 14.8625 20.6944 13.8153 21.0833C12.7681 21.4722 11.6537 21.6667 10.4722 21.6667C7.54537 21.6667 5.06856 20.6178 3.04178 18.52C1.015 16.4222 0.00107407 13.86 0 10.8333C0 7.80556 1.01393 5.24333 3.04178 3.14667C5.06963 1.05 7.54644 0.00111111 10.4722 0C13.3991 0 15.8764 1.04889 17.9043 3.14667C19.9321 5.24444 20.9455 7.80667 20.9444 10.8333C20.9444 12.0556 20.7565 13.2083 20.3806 14.2917C20.0046 15.375 19.4944 16.3333 18.85 17.1667L29 27.6667L26.7444 30ZM10.4722 18.3333C12.4861 18.3333 14.1982 17.6044 15.6084 16.1467C17.0187 14.6889 17.7233 12.9178 17.7222 10.8333C17.7222 8.75 17.0176 6.97944 15.6084 5.52167C14.1993 4.06389 12.4872 3.33444 10.4722 3.33333C8.45833 3.33333 6.7468 4.06278 5.33761 5.52167C3.92843 6.98056 3.2233 8.75111 3.22222 10.8333C3.22222 12.9167 3.92735 14.6878 5.33761 16.1467C6.74787 17.6056 8.45941 18.3344 10.4722 18.3333Z" fill="#3183FF"/>
</svg>
