<svg width="40" height="59" viewBox="0 0 40 59" fill="none" xmlns="http://www.w3.org/2000/svg">
<path d="M32.0781 6.2085C32.0781 5.30232 31.3437 4.56787 30.4375 4.56787H8.5625C7.65633 4.56787 6.92188 5.2974 6.92188 6.19756V21.953L18.9531 33.9061H30.4375C31.3437 33.9061 32.0781 33.1765 32.0781 32.2764V6.2085Z" fill="#E3FCFD"/>
<path d="M13.4844 1.09375H25.5156V7.65625H13.4844V1.09375Z" fill="#00E1F0"/>
<path d="M21.1406 30.625H23.3281C23.9324 30.625 24.4219 30.1355 24.4219 29.5312C24.4219 28.927 23.9324 28.4375 23.3281 28.4375H21.1406C20.5363 28.4375 20.0469 28.927 20.0469 29.5312C20.0469 30.1355 20.5363 30.625 21.1406 30.625Z" fill="#003CBF"/>
<path d="M30.4375 3.28125H26.6094V1.09375C26.6094 0.489453 26.1199 0 25.5156 0H13.4844C12.8801 0 12.3906 0.489453 12.3906 1.09375V3.28125H8.5625C7.05258 3.28125 5.82812 4.5057 5.82812 6.01562V10.3906C5.82812 10.9949 6.31758 11.4844 6.92188 11.4844C7.52617 11.4844 8.01562 10.9949 8.01562 10.3906V6.01562C8.01562 5.71375 8.26063 5.46875 8.5625 5.46875H12.3906V7.65625C12.3906 8.26055 12.8801 8.75 13.4844 8.75H25.5156C26.1199 8.75 26.6094 8.26055 26.6094 7.65625V5.46875H30.4375C30.7394 5.46875 30.9844 5.71375 30.9844 6.01562V32.2656C30.9844 32.5675 30.7394 32.8125 30.4375 32.8125H20.0469V23.5156C20.0469 22.0057 18.8224 20.7812 17.3125 20.7812H8.01562V14.7656C8.01562 14.1613 7.52617 13.6719 6.92188 13.6719C6.31758 13.6719 5.82812 14.1613 5.82812 14.7656V21.875C5.83359 22.1637 5.94898 22.4394 6.15078 22.6461L18.182 34.6773C18.386 34.883 18.6633 34.9989 18.9531 35H30.4375C31.9474 35 33.1719 33.7755 33.1719 32.2656V6.01562C33.1719 4.5057 31.9474 3.28125 30.4375 3.28125ZM24.4219 6.5625H14.5781V2.1875H24.4219V6.5625ZM17.3125 22.9688C17.6144 22.9688 17.8594 23.2138 17.8594 23.5156V31.2648L9.56328 22.9688H17.3125Z" fill="#003CBF"/>
<path d="M19.5 10.9375C18.8957 10.9375 18.4062 11.427 18.4062 12.0312V13.6719H16.7656C16.1613 13.6719 15.6719 14.1613 15.6719 14.7656C15.6719 15.3699 16.1613 15.8594 16.7656 15.8594H18.4062V17.5C18.4062 18.1043 18.8957 18.5938 19.5 18.5938C20.1043 18.5938 20.5938 18.1043 20.5938 17.5V15.8594H22.2344C22.8387 15.8594 23.3281 15.3699 23.3281 14.7656C23.3281 14.1613 22.8387 13.6719 22.2344 13.6719H20.5938V12.0312C20.5938 11.427 20.1043 10.9375 19.5 10.9375Z" fill="#00E1F0"/>
<path d="M27.7031 30.625C28.3072 30.625 28.7969 30.1353 28.7969 29.5312C28.7969 28.9272 28.3072 28.4375 27.7031 28.4375C27.0991 28.4375 26.6094 28.9272 26.6094 29.5312C26.6094 30.1353 27.0991 30.625 27.7031 30.625Z" fill="#00E1F0"/>
<path d="M7.26 50.11H8.83V50.81H7.26V50.11ZM7.26 52.05H8.83V52.74H7.26V52.05ZM6.68 48.74H7.51V54.11H6.68V48.74ZM1.64 54.54H7.51V57.78H6.68V55.21H1.64V54.54ZM3.02 49.27C4.38 49.27 5.38 50.15 5.38 51.42C5.38 52.68 4.38 53.55 3.02 53.55C1.66 53.55 0.66 52.68 0.66 51.42C0.66 50.15 1.66 49.27 3.02 49.27ZM3.02 49.98C2.12 49.98 1.47 50.56 1.47 51.42C1.47 52.27 2.12 52.86 3.02 52.86C3.92 52.86 4.57 52.27 4.57 51.42C4.57 50.56 3.92 49.98 3.02 49.98ZM11.8492 54.33H12.6692V56.46H11.8492V54.33ZM14.8792 54.33H15.6992V56.46H14.8792V54.33ZM10.0992 50.07H17.4392V50.75H10.0992V50.07ZM9.69922 56.06H17.8892V56.75H9.69922V56.06ZM13.7692 51.34C15.5992 51.34 16.7292 51.96 16.7292 53.04C16.7292 54.1 15.5992 54.72 13.7692 54.72C11.9392 54.72 10.8192 54.1 10.8192 53.04C10.8192 51.96 11.9392 51.34 13.7692 51.34ZM13.7692 51.99C12.4492 51.99 11.6492 52.38 11.6492 53.04C11.6492 53.69 12.4492 54.07 13.7692 54.07C15.0892 54.07 15.8892 53.69 15.8892 53.04C15.8892 52.38 15.0892 51.99 13.7692 51.99ZM13.3692 48.88H14.1892V50.48H13.3692V48.88ZM28.2909 48.74H29.1209V57.78H28.2909V48.74ZM25.6409 49.71H26.4609C26.4609 52.33 25.2809 54.62 22.2609 56.1L21.8209 55.43C24.4309 54.17 25.6409 52.25 25.6409 49.85V49.71ZM22.2309 49.71H26.0009V50.39H22.2309V49.71ZM30.9002 53.71H39.1002V54.39H30.9002V53.71ZM31.9402 48.97H38.0402V51.16H32.7802V52.38H31.9602V50.55H37.2302V49.62H31.9402V48.97ZM31.9602 52.11H38.2402V52.76H31.9602V52.11ZM34.5802 52.45H35.4102V54.05H34.5802V52.45ZM31.8102 55.08H38.1002V57.7H37.2702V55.76H31.8102V55.08Z" fill="black"/>
</svg>
