<svg width="68" height="60" viewBox="0 0 68 60" fill="none" xmlns="http://www.w3.org/2000/svg">
<g clip-path="url(#clip0_1020_4129)">
<path d="M34.2051 12.5779L44.5312 2.21462C45.0972 1.6486 45.6862 1.3872 46.2144 1.28657C47.6303 1.01696 48.9122 2.09649 48.8301 3.53532C48.7951 4.14454 48.5299 4.81118 47.9223 5.49642L41.2499 12.5779H34.2051Z" fill="#00E1F0"/>
<path d="M21.5625 26.7586C26.5254 32.6484 35.323 33.3993 41.2128 28.4364C44.3568 25.7873 46.1719 21.8848 46.1719 17.7734V16.9531H46.7188C47.9268 16.9531 48.9062 15.9737 48.9062 14.7656C48.9062 13.5576 47.9268 12.5781 46.7188 12.5781H18.2812C17.0732 12.5781 16.0938 13.5576 16.0938 14.7656C16.0938 15.9737 17.0732 16.9531 18.2812 16.9531V17.7734C18.2791 19.5535 18.6192 21.3172 19.282 22.9688" fill="#E3FCFD"/>
<path d="M46.7187 11.4843H43.5414L48.9554 6.06478C50.3434 4.67845 50.3445 2.4297 48.9582 1.04173C47.5718 -0.34624 45.3231 -0.347333 43.9351 1.03899L33.4898 11.4843H18.2812C16.4689 11.4816 14.9978 12.9483 14.995 14.7606C14.9929 16.1552 15.8722 17.3982 17.1875 17.8609C17.2 19.7509 17.5714 21.6217 18.2812 23.3734C18.4885 23.9405 19.1168 24.2325 19.684 24.0252C20.2511 23.818 20.5431 23.1896 20.3358 22.6225C20.3282 22.6012 20.3194 22.5799 20.3101 22.5585C19.6954 21.0377 19.3782 19.4134 19.375 17.7734V16.9531C19.375 16.3488 18.8855 15.8593 18.2812 15.8593C17.6769 15.8593 17.1875 15.3699 17.1875 14.7656C17.1875 14.1613 17.6769 13.6718 18.2812 13.6718H46.7187C47.323 13.6718 47.8125 14.1613 47.8125 14.7656C47.8125 15.3699 47.323 15.8593 46.7187 15.8593H46.1718C45.5675 15.8593 45.0781 16.3488 45.0781 16.9531V17.7734C45.077 24.8713 39.3222 30.6238 32.2243 30.6227C28.4356 30.6222 24.8404 28.9498 22.3992 26.0531C22.0098 25.5909 21.3191 25.5324 20.857 25.9218C20.3949 26.3112 20.3364 27.0019 20.7257 27.464C26.0764 33.8165 35.5641 34.6286 41.9166 29.278C45.2482 26.472 47.2 22.3589 47.2656 18.0031C49.0539 17.7083 50.2641 16.0195 49.9693 14.2318C49.7068 12.642 48.3298 11.4777 46.7187 11.4843V11.4843ZM45.4773 2.58665C46.0182 2.07204 46.8669 2.07204 47.4078 2.58665C47.6675 2.84149 47.8136 3.1904 47.8125 3.55462C47.8119 3.9172 47.6686 4.26501 47.4132 4.52259L40.4461 11.4843H36.5851L45.4773 2.58665Z" fill="#003CBF"/>
<path d="M46.1719 34.9999C46.7759 34.9999 47.2656 34.5102 47.2656 33.9061C47.2656 33.3021 46.7759 32.8124 46.1719 32.8124C45.5678 32.8124 45.0781 33.3021 45.0781 33.9061C45.0781 34.5102 45.5678 34.9999 46.1719 34.9999Z" fill="#00E1F0"/>
<path d="M21.0156 33.9061C21.0156 34.5104 21.5051 34.9999 22.1094 34.9999H41.7969C42.4012 34.9999 42.8906 34.5104 42.8906 33.9061C42.8906 33.3018 42.4012 32.8124 41.7969 32.8124H22.1094C21.5051 32.8124 21.0156 33.3018 21.0156 33.9061Z" fill="#003CBF"/>
<path d="M32.5 17.5C31.8957 17.5 31.4063 17.9895 31.4063 18.5938V20.2344H29.7656C29.1613 20.2344 28.6719 20.7238 28.6719 21.3281C28.6719 21.9324 29.1613 22.4219 29.7656 22.4219H31.4063V24.0625C31.4063 24.6668 31.8957 25.1562 32.5 25.1562C33.1043 25.1562 33.5938 24.6668 33.5938 24.0625V22.4219H35.2344C35.8387 22.4219 36.3281 21.9324 36.3281 21.3281C36.3281 20.7238 35.8387 20.2344 35.2344 20.2344H33.5938V18.5938C33.5938 17.9895 33.1043 17.5 32.5 17.5Z" fill="#00E1F0"/>
</g>
<path d="M2.71 50.52H3.39V52.14C3.39 54.14 2.31 56.09 0.88 56.85L0.37 56.19C1.68 55.53 2.71 53.79 2.71 52.14V50.52ZM2.86 50.52H3.53V52.14C3.53 53.73 4.54 55.38 5.82 56.02L5.31 56.68C3.91 55.93 2.86 54.08 2.86 52.14V50.52ZM6.61 49.74H7.45V58.78H6.61V49.74ZM7.25 53.4H8.93V54.1H7.25V53.4ZM12.0992 50.73H12.7892V51.65C12.7892 53.31 11.7692 54.7 10.2492 55.25L9.81922 54.59C11.1792 54.11 12.0992 52.94 12.0992 51.65V50.73ZM12.2592 50.73H12.9492V51.65C12.9492 52.87 13.8892 53.97 15.2292 54.42L14.7992 55.07C13.2992 54.56 12.2592 53.24 12.2592 51.65V50.73ZM10.0392 50.49H14.9892V51.16H10.0392V50.49ZM16.2692 49.75H17.1092V56.36H16.2692V49.75ZM11.2992 57.9H17.3792V58.58H11.2992V57.9ZM11.2992 55.74H12.1192V58.2H11.2992V55.74ZM22.9784 50.31C24.8584 50.31 26.2584 51.31 26.2584 52.81C26.2584 54.32 24.8584 55.31 22.9784 55.31C21.0984 55.31 19.6884 54.32 19.6884 52.81C19.6884 51.31 21.0984 50.31 22.9784 50.31ZM22.9784 50.99C21.5484 50.99 20.4884 51.72 20.4884 52.81C20.4884 53.89 21.5484 54.63 22.9784 54.63C24.4084 54.63 25.4684 53.89 25.4684 52.81C25.4684 51.72 24.4084 50.99 22.9784 50.99ZM18.8984 56.89H27.0884V57.59H18.8984V56.89ZM28.0977 56.98H36.2877V57.67H28.0977V56.98ZM31.7577 55.04H32.5877V57.27H31.7577V55.04ZM29.0877 50.41H35.2777V53.15H29.9377V54.96H29.1177V52.48H34.4577V51.08H29.0877V50.41ZM29.1177 54.61H35.4877V55.29H29.1177V54.61ZM46.8694 51.11H48.4394V51.81H46.8694V51.11ZM46.8694 53.05H48.4394V53.74H46.8694V53.05ZM46.2894 49.74H47.1194V55.11H46.2894V49.74ZM41.2494 55.54H47.1194V58.78H46.2894V56.21H41.2494V55.54ZM42.6294 50.27C43.9894 50.27 44.9894 51.15 44.9894 52.42C44.9894 53.68 43.9894 54.55 42.6294 54.55C41.2694 54.55 40.2694 53.68 40.2694 52.42C40.2694 51.15 41.2694 50.27 42.6294 50.27ZM42.6294 50.98C41.7294 50.98 41.0794 51.56 41.0794 52.42C41.0794 53.27 41.7294 53.86 42.6294 53.86C43.5294 53.86 44.1794 53.27 44.1794 52.42C44.1794 51.56 43.5294 50.98 42.6294 50.98ZM51.5586 51.23H52.2386V51.62C52.2386 53.16 51.2186 54.41 49.6986 54.89L49.3086 54.24C50.6486 53.83 51.5586 52.8 51.5586 51.62V51.23ZM51.7086 51.23H52.3886V51.62C52.3886 52.7 53.2686 53.68 54.5986 54.07L54.2086 54.71C52.6986 54.26 51.7086 53.06 51.7086 51.62V51.23ZM49.5586 50.79H54.3786V51.46H49.5586V50.79ZM51.5586 49.7H52.3886V51.07H51.5586V49.7ZM55.4886 49.74H56.3186V54.99H55.4886V49.74ZM56.0886 51.97H57.6586V52.66H56.0886V51.97ZM53.0786 55.74H53.7886V55.98C53.7886 57.4 52.2886 58.45 50.5186 58.75L50.1986 58.11C51.7586 57.87 53.0786 56.99 53.0786 55.98V55.74ZM53.2386 55.74H53.9486V55.98C53.9486 56.97 55.2886 57.87 56.8186 58.12L56.5086 58.76C54.7386 58.46 53.2386 57.37 53.2386 55.98V55.74ZM50.5486 55.48H56.4786V56.15H50.5486V55.48ZM65.0878 49.74H65.9178V58.78H65.0878V49.74ZM62.4378 50.71H63.2578C63.2578 53.33 62.0778 55.62 59.0578 57.1L58.6178 56.43C61.2278 55.17 62.4378 53.25 62.4378 50.85V50.71ZM59.0278 50.71H62.7978V51.39H59.0278V50.71Z" fill="black"/>
<defs>
<clipPath id="clip0_1020_4129">
<rect width="35" height="35" fill="white" transform="translate(15)"/>
</clipPath>
</defs>
</svg>
