<svg width="30" height="30" viewBox="0 0 30 30" fill="none" xmlns="http://www.w3.org/2000/svg">
<rect width="30" height="30" rx="15" fill="white"/>
<path d="M16.8847 13.8233L16.8847 12.6467L16.8847 9.123C16.8847 8.92388 16.8002 8.7489 16.6736 8.62219C16.5409 8.49548 16.3599 8.41101 16.173 8.41101L13.8268 8.41101C13.6277 8.41101 13.4528 8.49548 13.3262 8.62219C13.1995 8.7489 13.1151 8.92991 13.1151 9.123L13.1151 12.6467C13.1151 12.9002 12.904 13.1113 12.6506 13.1113L9.12832 13.1113C8.92929 13.1113 8.75438 13.1958 8.62772 13.3225C8.50106 13.4492 8.41662 13.6242 8.41662 13.8233L8.41662 16.1705C8.41662 16.3635 8.50106 16.5385 8.62772 16.6713C8.75438 16.798 8.92929 16.8825 9.12832 16.8825L11.8847 16.8825L11.8847 17.8117L9.13435 17.8117C8.682 17.8117 8.27187 17.6246 7.98236 17.329C7.68683 17.0333 7.49985 16.623 7.49985 16.1765L7.49985 13.8294C7.49985 13.3768 7.68683 12.9665 7.98236 12.6769C8.27187 12.3812 8.68803 12.1942 9.13436 12.1942L12.1923 12.1942L12.1923 9.13506C12.1923 8.68253 12.3792 8.27826 12.6748 7.98261C12.9643 7.68695 13.3804 7.4999 13.8268 7.4999L16.173 7.49991C16.6253 7.49991 17.0294 7.68092 17.325 7.98261C17.6205 8.27826 17.8075 8.68856 17.8075 9.13507L17.8075 12.6588L17.8075 13.8354C17.8075 14.9335 17.3551 15.9291 16.6313 16.6471C15.9136 17.3712 14.9184 17.8237 13.8207 17.8237L13.4166 17.8237L13.4166 16.8945L13.8207 16.8945C14.6591 16.8945 15.4251 16.5446 15.98 15.9955C16.5348 15.4283 16.8847 14.662 16.8847 13.8233Z" fill="#00E1F0"/>
<path d="M13.1152 16.1705L13.1152 17.3471L13.1152 20.8648C13.1152 21.064 13.1996 21.2389 13.3263 21.3656C13.4529 21.4984 13.6279 21.5768 13.8269 21.5768L16.1731 21.5768C16.3661 21.5768 16.541 21.4984 16.6737 21.3656C16.8004 21.2389 16.8848 21.064 16.8848 20.8648L16.8848 17.3471C16.8848 17.0877 17.0899 16.8825 17.3492 16.8825L20.8655 16.8825C21.0645 16.8825 21.2394 16.7981 21.3661 16.6714C21.4988 16.5386 21.5772 16.3576 21.5772 16.1705L21.5772 13.8234C21.5772 13.6243 21.4988 13.4493 21.3661 13.3226C21.2394 13.1959 21.0645 13.1114 20.8655 13.1114L18.1212 13.1114L18.1212 12.1822L20.8655 12.1822C21.3179 12.1822 21.728 12.3632 22.0235 12.6649C22.313 12.9606 22.5 13.3709 22.5 13.8234L22.5 16.1705C22.5 16.6231 22.313 17.0273 22.0235 17.323C21.728 17.6187 21.3118 17.8057 20.8655 17.8057L17.8136 17.8057L17.8136 20.8648C17.8136 21.3234 17.6327 21.7277 17.3311 22.0233C17.0295 22.313 16.6254 22.5 16.1731 22.5L13.8269 22.5C13.3745 22.5 12.9644 22.313 12.6749 22.0233C12.3794 21.7277 12.1924 21.3174 12.1924 20.8648L12.1924 17.3471L12.1924 16.1705C12.1924 15.0724 12.6387 14.0768 13.3625 13.3528C14.0862 12.6287 15.0814 12.1822 16.1791 12.1822L16.5772 12.1822L16.5772 13.1114L16.1791 13.1114C15.3347 13.1114 14.5748 13.4553 14.0139 14.0105C13.459 14.5656 13.1152 15.3258 13.1152 16.1705Z" fill="#145BDA"/>
</svg>
