<svg width="40" height="57" viewBox="0 0 40 57" fill="none" xmlns="http://www.w3.org/2000/svg">
<path d="M7.26 48.11H8.83V48.81H7.26V48.11ZM7.26 50.05H8.83V50.74H7.26V50.05ZM6.68 46.74H7.51V52.11H6.68V46.74ZM1.64 52.54H7.51V55.78H6.68V53.21H1.64V52.54ZM3.02 47.27C4.38 47.27 5.38 48.15 5.38 49.42C5.38 50.68 4.38 51.55 3.02 51.55C1.66 51.55 0.66 50.68 0.66 49.42C0.66 48.15 1.66 47.27 3.02 47.27ZM3.02 47.98C2.12 47.98 1.47 48.56 1.47 49.42C1.47 50.27 2.12 50.86 3.02 50.86C3.92 50.86 4.57 50.27 4.57 49.42C4.57 48.56 3.92 47.98 3.02 47.98ZM10.7392 47.16H16.5592V47.84H10.7392V47.16ZM9.69922 50.4H17.8892V51.08H9.69922V50.4ZM13.3692 50.86H14.1892V52.99H13.3692V50.86ZM16.0192 47.16H16.8292V47.83C16.8292 48.58 16.8292 49.49 16.5292 50.73L15.7192 50.63C16.0192 49.42 16.0192 48.56 16.0192 47.83V47.16ZM10.5492 52.72H16.8892V55.78H16.0592V53.4H10.5492V52.72ZM25.4709 47.32H26.3409C26.3409 49.6 24.7409 51.23 22.1409 51.96L21.8009 51.31C24.0909 50.66 25.4709 49.35 25.4709 47.67V47.32ZM22.2709 47.32H26.0309V47.99H22.2709V47.32ZM28.3109 46.74H29.1409V51.9H28.3109V46.74ZM26.3509 49.06H28.4709V49.75H26.3509V49.06ZM23.3109 52.28H29.1409V55.66H23.3109V52.28ZM28.3309 52.95H24.1309V54.98H28.3309V52.95ZM32.8002 47.28H33.4602V48.49C33.4602 49.85 32.6902 51.28 31.3602 51.89L30.9102 51.24C32.0902 50.71 32.8002 49.52 32.8002 48.49V47.28ZM32.9302 47.28H33.5902V48.49C33.5902 49.52 34.2602 50.55 35.4202 51.02L34.9802 51.66C33.6702 51.11 32.9302 49.84 32.9302 48.49V47.28ZM37.7302 46.75H38.5202V52.21H37.7302V46.75ZM36.2702 49.09H37.9802V49.78H36.2702V49.09ZM35.7902 46.9H36.5802V52.16H35.7902V46.9ZM32.4602 52.7H38.5202V55.78H37.7002V53.38H32.4602V52.7Z" fill="black"/>
<path d="M23.6016 31.1719L15.3984 33.9062V19.6875L23.6016 16.9531V31.1719Z" fill="#E3FCFD"/>
<path d="M15.3984 33.9062L7.19531 31.1719V16.9531L15.3984 19.6875V33.9062Z" fill="#00E1F0"/>
<path d="M31.8047 33.9062L23.6016 31.1719V16.9531L31.8047 19.6875V33.9062Z" fill="#00E1F0"/>
<path d="M30.7109 12.0312C30.7109 21.2187 19.7734 25.1562 19.7734 25.1562C19.7734 25.1562 8.83594 21.2187 8.83594 12.0312C8.83594 9.13044 9.98828 6.34845 12.0395 4.29727C14.0906 2.24609 16.8726 1.09375 19.7734 1.09375C22.6742 1.09375 25.4562 2.24609 27.5074 4.29727C29.5586 6.34845 30.7109 9.13044 30.7109 12.0312V12.0312Z" fill="#E3FCFD"/>
<path d="M25.7891 12.0312H13.7578L15.8808 7.65625H23.6661L25.7891 12.0312Z" fill="#00E1F0"/>
<path d="M15.9453 12.0312H23.6016V16.4062H15.9453V12.0312Z" fill="#00E1F0"/>
<path d="M26.7732 11.5527L24.65 7.17809C24.5604 6.99336 24.4206 6.83759 24.2466 6.7286C24.0725 6.61962 23.8714 6.56184 23.666 6.56186H22.7814V6.01501C22.7814 5.72493 22.6661 5.44673 22.461 5.24162C22.2559 5.0365 21.9777 4.92126 21.6876 4.92126C21.3975 4.92126 21.1193 5.0365 20.9142 5.24162C20.7091 5.44673 20.5939 5.72493 20.5939 6.01501V6.56186H15.8811C15.6757 6.56184 15.4746 6.61962 15.3005 6.7286C15.1265 6.83758 14.9867 6.99336 14.8971 7.17809L12.7739 11.5527C12.6952 11.7196 12.6596 11.9036 12.6706 12.0879C12.6815 12.2721 12.7386 12.4507 12.8366 12.6071C12.9345 12.7635 13.0703 12.8928 13.2313 12.9831C13.3923 13.0734 13.5734 13.1217 13.7579 13.1237H14.8517V16.4046C14.8517 16.6947 14.9669 16.9729 15.1721 17.178C15.3772 17.3831 15.6554 17.4983 15.9454 17.4983H23.6017C23.8917 17.4983 24.1699 17.3831 24.375 17.178C24.5801 16.9729 24.6954 16.6947 24.6954 16.4046V13.1237H25.7892C25.9737 13.1217 26.1548 13.0734 26.3158 12.9831C26.4768 12.8928 26.6125 12.7635 26.7105 12.6071C26.8085 12.4507 26.8656 12.2721 26.8765 12.0879C26.8875 11.9036 26.8519 11.7196 26.7732 11.5527V11.5527ZM22.5079 15.311H17.0392V13.1237H22.5079V15.311ZM15.5046 10.9364L16.566 8.74912H20.7456C20.8405 8.91523 20.9776 9.05331 21.143 9.14935C21.3084 9.24538 21.4963 9.29597 21.6876 9.29597C21.8789 9.29597 22.0668 9.24538 22.2322 9.14935C22.3977 9.05331 22.5348 8.91523 22.6296 8.74912H22.9811L24.0425 10.9364H15.5046Z" fill="#003CBF"/>
<path d="M32.15 18.6479L30.2468 18.0146C31.2729 16.1872 31.8095 14.1257 31.8047 12.03C31.7961 10.2746 31.4036 8.54245 30.6546 6.95492C29.9056 5.36739 28.8183 3.96298 27.469 2.84022C26.1196 1.71747 24.541 0.903559 22.8438 0.455607C21.1465 0.00765563 19.3718 -0.0634906 17.6442 0.24716C15.9166 0.557811 14.2778 1.24273 12.8429 2.25387C11.4081 3.26502 10.2118 4.57788 9.33817 6.10036C8.46449 7.62284 7.93454 9.31805 7.7855 11.0671C7.63645 12.8161 7.87192 14.5765 8.47538 16.2249L7.54058 15.9138C7.37623 15.8608 7.20172 15.8472 7.03115 15.8741C6.86058 15.901 6.69872 15.9676 6.55865 16.0686C6.41858 16.1696 6.30423 16.3021 6.22483 16.4555C6.14542 16.6088 6.1032 16.7787 6.10156 16.9514V31.1687C6.10158 31.3983 6.17382 31.622 6.30806 31.8082C6.4423 31.9945 6.63173 32.1337 6.84951 32.2063L15.0526 34.9404C15.2773 35.0142 15.5196 35.0142 15.7442 34.9404L23.6016 32.3216L31.4589 34.9404C31.6233 34.9934 31.7978 35.0071 31.9684 34.9802C32.1391 34.9533 32.301 34.8867 32.4411 34.7857C32.5812 34.6847 32.6956 34.5522 32.7751 34.3988C32.8545 34.2455 32.8968 34.0756 32.8984 33.9029V19.6855C32.8984 19.4559 32.8261 19.232 32.6918 19.0458C32.5574 18.8596 32.3679 18.7203 32.15 18.6479V18.6479ZM14.3047 32.3855L8.28906 30.3805V18.4679L9.89928 19.0036C11.0938 20.7256 12.5855 22.221 14.3047 23.4196V32.3855ZM22.5078 30.3805L16.4922 32.3855V24.8091C17.4259 25.3408 18.3991 25.8 19.4031 26.1827C19.6425 26.2688 19.9044 26.2688 20.1438 26.1827C20.9542 25.875 21.7438 25.5152 22.5078 25.1056V30.3805ZM19.7734 23.9762C17.9371 23.204 9.92969 19.4123 9.92969 12.03C9.92969 9.41925 10.9668 6.91545 12.8129 5.06939C14.6589 3.22333 17.1627 2.18622 19.7734 2.18622C22.3842 2.18622 24.888 3.22333 26.734 5.06939C28.5801 6.91545 29.6172 9.41925 29.6172 12.03C29.6172 19.4129 21.6085 23.2048 19.7734 23.9762ZM30.7109 32.3855L24.6953 30.3806V23.7995C26.3189 22.7292 27.7672 21.4141 28.9886 19.9009L30.7109 20.4742V32.3855Z" fill="#003CBF"/>
<path d="M10.476 27.8867C10.476 28.1031 10.5402 28.3147 10.6604 28.4946C10.7806 28.6746 10.9515 28.8148 11.1514 28.8977C11.3513 28.9805 11.5713 29.0022 11.7836 28.96C11.9959 28.9178 12.1908 28.8135 12.3439 28.6605C12.4969 28.5075 12.6011 28.3125 12.6433 28.1003C12.6856 27.888 12.6639 27.668 12.5811 27.4681C12.4983 27.2681 12.358 27.0972 12.1781 26.977C11.9981 26.8568 11.7866 26.7926 11.5702 26.7926C11.2803 26.7934 11.0024 26.909 10.7974 27.114C10.5924 27.319 10.4769 27.5968 10.476 27.8867V27.8867Z" fill="#003CBF"/>
</svg>
