<svg width="35" height="55" viewBox="0 0 35 55" fill="none" xmlns="http://www.w3.org/2000/svg">
<g clip-path="url(#clip0_1020_4115)">
<path d="M12.3158 12.0311L6.75956 17.6584C3.58112 20.891 3.58112 26.0743 6.75956 29.3069C9.88386 32.4782 14.9878 32.5159 18.1592 29.3916C18.1876 29.3637 18.216 29.3353 18.2439 29.3069L30.0783 17.3467V1.93577C26.9562 0.381007 23.1882 1.01265 20.7432 3.49983L15.3947 8.9139" fill="#E3FCFD"/>
<path d="M19.1967 11.5725L11.7269 18.8913L17.2269 24.3349L24.6091 16.9527L19.1967 11.5725Z" fill="#00E1F0"/>
<path d="M21.5962 35C22.2003 35 22.6899 34.5103 22.6899 33.9062C22.6899 33.3022 22.2003 32.8125 21.5962 32.8125C20.9921 32.8125 20.5024 33.3022 20.5024 33.9062C20.5024 34.5103 20.9921 35 21.5962 35Z" fill="#00E1F0"/>
<path d="M7.37741 33.9062C7.37741 34.5105 7.86686 35 8.47116 35H17.2212C17.8255 35 18.3149 34.5105 18.3149 33.9062C18.3149 33.302 17.8255 32.8125 17.2212 32.8125H8.47116C7.86686 32.8125 7.37741 33.302 7.37741 33.9062V33.9062Z" fill="#003CBF"/>
<path d="M11.0084 19.6052L16.4225 25.0192C16.8496 25.4463 17.542 25.4469 17.9691 25.0203C17.9696 25.0198 17.9696 25.0198 17.9702 25.0192L25.353 17.6364C25.7801 17.2093 25.7807 16.517 25.3541 16.0898C25.3535 16.0893 25.3535 16.0893 25.353 16.0887L19.9389 10.6747C19.5118 10.2476 18.8195 10.247 18.3924 10.6736C18.3918 10.6741 18.3918 10.6741 18.3913 10.6747L11.0084 18.0466C10.5781 18.4704 10.5726 19.1627 10.9964 19.5931L11.0084 19.6052ZM19.1405 12.9934L23.0124 16.8598L17.1936 22.7005L13.3272 18.8341L19.1405 12.9934Z" fill="#003CBF"/>
<path d="M31.4015 1.64049C31.319 1.34682 31.1221 1.09854 30.8547 0.951432C27.3033 -0.824818 23.0108 -0.104583 20.2343 2.73424L14.8859 8.14284C14.4615 8.57323 14.4665 9.26612 14.8968 9.69049C15.3272 10.1149 16.0201 10.1099 16.4445 9.67956L21.7929 4.27096C23.3483 2.6894 25.5636 1.94182 27.7593 2.25846C27.5898 2.40065 27.4203 2.54284 27.2562 2.69049C23.6108 5.99471 23.334 11.6286 26.6383 15.2741C26.834 15.4901 27.0402 15.6963 27.2562 15.8921L28.8148 17.3413L17.757 28.5358C15.0598 31.2844 10.6449 31.326 7.89685 28.6288C7.86568 28.5981 7.83451 28.567 7.80388 28.5358C5.05255 25.7287 5.05255 21.2367 7.80388 18.4296L13.3656 12.8022C13.79 12.3718 13.7851 11.6789 13.3547 11.2546C12.9243 10.8302 12.2314 10.8351 11.807 11.2655L6.25076 16.8928C2.65779 20.5536 2.65779 26.4172 6.25076 30.078C9.80326 33.6841 15.6061 33.7278 19.2128 30.1753C19.2456 30.1431 19.2779 30.1103 19.3101 30.078L31.1281 18.1124C31.3447 17.892 31.4579 17.5896 31.4398 17.2811V1.93581C31.4415 1.83628 31.4283 1.73674 31.4015 1.64049V1.64049ZM29.2523 14.7655L28.7492 14.2952C25.9869 11.8151 25.7583 7.56589 28.2384 4.80362C28.3997 4.62425 28.5698 4.45362 28.7492 4.29284C28.9094 4.14026 29.0773 3.99589 29.2523 3.86081V14.7655Z" fill="#003CBF"/>
</g>
<path d="M8.26 46.11H9.83V46.81H8.26V46.11ZM8.26 48.05H9.83V48.74H8.26V48.05ZM7.68 44.74H8.51V50.11H7.68V44.74ZM2.64 50.54H8.51V53.78H7.68V51.21H2.64V50.54ZM4.02 45.27C5.38 45.27 6.38 46.15 6.38 47.42C6.38 48.68 5.38 49.55 4.02 49.55C2.66 49.55 1.66 48.68 1.66 47.42C1.66 46.15 2.66 45.27 4.02 45.27ZM4.02 45.98C3.12 45.98 2.47 46.56 2.47 47.42C2.47 48.27 3.12 48.86 4.02 48.86C4.92 48.86 5.57 48.27 5.57 47.42C5.57 46.56 4.92 45.98 4.02 45.98ZM17.2717 45.32H18.1417C18.1417 47.6 16.5417 49.23 13.9417 49.96L13.6017 49.31C15.8917 48.66 17.2717 47.35 17.2717 45.67V45.32ZM14.0717 45.32H17.8317V45.99H14.0717V45.32ZM20.1117 44.74H20.9417V49.9H20.1117V44.74ZM18.1517 47.06H20.2717V47.75H18.1517V47.06ZM15.1117 50.28H20.9417V53.66H15.1117V50.28ZM20.1317 50.95H15.9317V52.98H20.1317V50.95ZM24.6009 45.28H25.2609V46.49C25.2609 47.85 24.4909 49.28 23.1609 49.89L22.7109 49.24C23.8909 48.71 24.6009 47.52 24.6009 46.49V45.28ZM24.7309 45.28H25.3909V46.49C25.3909 47.52 26.0609 48.55 27.2209 49.02L26.7809 49.66C25.4709 49.11 24.7309 47.84 24.7309 46.49V45.28ZM29.5309 44.75H30.3209V50.21H29.5309V44.75ZM28.0709 47.09H29.7809V47.78H28.0709V47.09ZM27.5909 44.9H28.3809V50.16H27.5909V44.9ZM24.2609 50.7H30.3209V53.78H29.5009V51.38H24.2609V50.7Z" fill="black"/>
<defs>
<clipPath id="clip0_1020_4115">
<rect width="35" height="35" fill="white"/>
</clipPath>
</defs>
</svg>
