<svg width="40" height="59" viewBox="0 0 40 59" fill="none" xmlns="http://www.w3.org/2000/svg">
<path d="M0.49 53.4H8.66V54.08H0.49V53.4ZM4.17 52.05H4.99V53.61H4.17V52.05ZM1.4 54.96H7.65V57.78H6.82V55.64H1.4V54.96ZM1.58 48.95H2.4V49.97H6.77V48.95H7.6V52.33H1.58V48.95ZM2.4 50.62V51.67H6.77V50.62H2.4ZM11.7092 51.8H12.5292V53.51H11.7092V51.8ZM15.0292 51.8H15.8492V53.51H15.0292V51.8ZM9.68922 53.21H17.8592V53.88H9.68922V53.21ZM13.7692 54.56C15.7092 54.56 16.8692 55.13 16.8692 56.16C16.8692 57.19 15.7092 57.77 13.7692 57.77C11.8292 57.77 10.6692 57.19 10.6692 56.16C10.6692 55.13 11.8292 54.56 13.7692 54.56ZM13.7692 55.2C12.3592 55.2 11.5092 55.55 11.5092 56.16C11.5092 56.78 12.3592 57.12 13.7692 57.12C15.1892 57.12 16.0292 56.78 16.0292 56.16C16.0292 55.55 15.1892 55.2 13.7692 55.2ZM13.7792 48.9C15.7392 48.9 16.9592 49.53 16.9592 50.59C16.9592 51.64 15.7392 52.26 13.7792 52.26C11.8092 52.26 10.5992 51.64 10.5992 50.59C10.5992 49.53 11.8092 48.9 13.7792 48.9ZM13.7792 49.55C12.3392 49.55 11.4492 49.93 11.4492 50.59C11.4492 51.24 12.3392 51.62 13.7792 51.62C15.2192 51.62 16.1092 51.24 16.1092 50.59C16.1092 49.93 15.2192 49.55 13.7792 49.55ZM22.1909 49.44H26.1909V50.12H22.1909V49.44ZM23.5509 51.46H24.3709V53.72H23.5509V51.46ZM25.8609 49.44H26.6809V49.92C26.6809 50.51 26.6809 51.41 26.4409 52.6L25.6309 52.51C25.8609 51.32 25.8609 50.5 25.8609 49.92V49.44ZM27.9109 48.74H28.7409V55.55H27.9109V48.74ZM28.3609 51.68H30.0309V52.37H28.3609V51.68ZM23.0309 56.9H29.0309V57.58H23.0309V56.9ZM23.0309 54.92H23.8509V57.11H23.0309V54.92ZM21.7309 54.11L21.6409 53.43C23.2509 53.43 25.4709 53.39 27.3009 53.14L27.3609 53.74C25.4809 54.07 23.3209 54.11 21.7309 54.11ZM37.4902 48.73H38.3202V57.79H37.4902V48.73ZM31.4302 54.92H32.1802C33.6902 54.92 35.0402 54.86 36.6402 54.6L36.7302 55.28C35.0902 55.55 33.7302 55.61 32.1802 55.61H31.4302V54.92ZM31.4102 49.58H35.5902V52.81H32.2602V55.18H31.4302V52.13H34.7502V50.26H31.4102V49.58Z" fill="black"/>
<g clip-path="url(#clip0_1020_4194)">
<path d="M29.7969 27.3438C31.9111 27.3438 33.625 25.6298 33.625 23.5156C33.625 21.4014 31.9111 19.6875 29.7969 19.6875C27.6827 19.6875 25.9688 21.4014 25.9688 23.5156C25.9688 25.6298 27.6827 27.3438 29.7969 27.3438Z" fill="#00E1F0"/>
<path d="M34.7188 23.5156C34.7181 22.4008 34.3391 21.3192 33.6436 20.448C32.9482 19.5767 31.9776 18.9673 30.8906 18.7195V15.5859C30.8906 14.2081 30.3433 12.8866 29.369 11.9123C28.3946 10.938 27.0732 10.3906 25.6953 10.3906C24.3174 10.3906 22.996 10.938 22.0217 11.9123C21.0474 12.8866 20.5 14.2081 20.5 15.5859V29.2578C20.4986 30.2001 20.1236 31.1034 19.4573 31.7698C18.7909 32.4361 17.8876 32.8111 16.9453 32.8125H15.3047C14.3624 32.8111 13.4591 32.4361 12.7927 31.7698C12.1264 31.1034 11.7514 30.2001 11.75 29.2578V21.875H12.8438C13.5619 21.875 14.2731 21.7335 14.9365 21.4587C15.6 21.1839 16.2029 20.7811 16.7107 20.2732C17.2186 19.7654 17.6214 19.1626 17.8962 18.4991C18.171 17.8356 18.3125 17.1244 18.3125 16.4062V2.73438C18.3125 2.00917 18.0244 1.31367 17.5116 0.80088C16.9988 0.288085 16.3033 0 15.5781 0L13.9375 0C13.6474 0 13.3692 0.115234 13.1641 0.320352C12.959 0.52547 12.8438 0.803669 12.8438 1.09375C12.8438 1.38383 12.959 1.66203 13.1641 1.86715C13.3692 2.07227 13.6474 2.1875 13.9375 2.1875H15.5781C15.7232 2.1875 15.8623 2.24512 15.9648 2.34768C16.0674 2.45024 16.125 2.58933 16.125 2.73438V15.3125H5.1875V11.4844C5.1875 11.1943 5.07227 10.9161 4.86715 10.711C4.66203 10.5059 4.38383 10.3906 4.09375 10.3906C3.80367 10.3906 3.52547 10.5059 3.32035 10.711C3.11523 10.9161 3 11.1943 3 11.4844V16.4062C3 17.8567 3.57617 19.2477 4.60176 20.2732C5.62735 21.2988 7.01835 21.875 8.46875 21.875H9.5625V29.2578C9.56394 30.7793 10.1686 32.2382 11.244 33.3146C12.3194 34.391 13.7777 34.9971 15.2992 35H16.9398C18.4628 34.9986 19.9231 34.3933 21.0005 33.3169C22.0779 32.2405 22.6846 30.7808 22.6875 29.2578V15.5859C22.6875 14.7882 23.0044 14.0232 23.5685 13.4591C24.1325 12.895 24.8976 12.5781 25.6953 12.5781C26.493 12.5781 27.2581 12.895 27.8222 13.4591C28.3862 14.0232 28.7031 14.7882 28.7031 15.5859V18.7195C27.7996 18.9255 26.9726 19.3822 26.3173 20.0374C25.6619 20.6925 25.2048 21.5193 24.9985 22.4227C24.7922 23.3261 24.8452 24.2694 25.1512 25.144C25.4573 26.0186 26.0041 26.7891 26.7286 27.3668C27.4532 27.9445 28.3261 28.3059 29.2469 28.4094C30.1678 28.5129 31.0991 28.3544 31.9339 27.9521C32.7686 27.5497 33.4729 26.9199 33.9655 26.1351C34.4582 25.3502 34.7193 24.4423 34.7188 23.5156V23.5156ZM5.38438 17.5H15.9445C15.7179 18.1409 15.2979 18.6956 14.7424 19.0875C14.187 19.4793 13.5235 19.689 12.8438 19.6875H8.46875C7.79178 19.6856 7.13197 19.4744 6.57977 19.0827C6.02758 18.6911 5.61003 18.1383 5.38438 17.5V17.5ZM29.7969 26.25C29.2561 26.25 28.7274 26.0896 28.2777 25.7892C27.8281 25.4887 27.4776 25.0617 27.2706 24.562C27.0637 24.0624 27.0095 23.5126 27.115 22.9822C27.2205 22.4518 27.481 21.9645 27.8634 21.5821C28.2458 21.1997 28.733 20.9393 29.2634 20.8338C29.7938 20.7283 30.3436 20.7824 30.8433 20.9894C31.3429 21.1964 31.77 21.5468 32.0704 21.9965C32.3709 22.4462 32.5312 22.9748 32.5312 23.5156C32.5312 23.8747 32.4605 24.2303 32.3231 24.562C32.1857 24.8938 31.9843 25.1952 31.7304 25.4491C31.4765 25.703 31.175 25.9044 30.8433 26.0419C30.5115 26.1793 30.156 26.25 29.7969 26.25V26.25Z" fill="#003CBF"/>
<path d="M4.09375 8.20312C4.38383 8.20312 4.66203 8.08789 4.86715 7.88277C5.07227 7.67765 5.1875 7.39946 5.1875 7.10938V2.73438C5.1875 2.58933 5.24512 2.45024 5.34768 2.34768C5.45024 2.24512 5.58933 2.1875 5.73438 2.1875H7.375C7.66508 2.1875 7.94328 2.07227 8.1484 1.86715C8.35352 1.66203 8.46875 1.38383 8.46875 1.09375C8.46875 0.803669 8.35352 0.52547 8.1484 0.320352C7.94328 0.115234 7.66508 0 7.375 0L5.73438 0C5.00917 0 4.31367 0.288085 3.80088 0.80088C3.28809 1.31367 3 2.00917 3 2.73438L3 7.10938C3 7.39946 3.11523 7.67765 3.32035 7.88277C3.52547 8.08789 3.80367 8.20312 4.09375 8.20312Z" fill="#003CBF"/>
<path d="M36.9008 30.625C37.5048 30.625 37.9945 30.1353 37.9945 29.5312C37.9945 28.9272 37.5048 28.4375 36.9008 28.4375C36.2967 28.4375 35.807 28.9272 35.807 29.5312C35.807 30.1353 36.2967 30.625 36.9008 30.625Z" fill="#00E1F0"/>
<path d="M24.875 29.5312C24.875 29.8213 24.9902 30.0995 25.1954 30.3046C25.4005 30.5098 25.6787 30.625 25.9688 30.625H32.5312C32.8213 30.625 33.0995 30.5098 33.3046 30.3046C33.5098 30.0995 33.625 29.8213 33.625 29.5312C33.625 29.2412 33.5098 28.963 33.3046 28.7579C33.0995 28.5527 32.8213 28.4375 32.5312 28.4375H25.9688C25.6787 28.4375 25.4005 28.5527 25.1954 28.7579C24.9902 28.963 24.875 29.2412 24.875 29.5312Z" fill="#003CBF"/>
</g>
<g clip-path="url(#clip1_1020_4194)">
<path d="M29.7969 27.3438C31.9111 27.3438 33.625 25.6298 33.625 23.5156C33.625 21.4014 31.9111 19.6875 29.7969 19.6875C27.6827 19.6875 25.9688 21.4014 25.9688 23.5156C25.9688 25.6298 27.6827 27.3438 29.7969 27.3438Z" fill="#00E1F0"/>
<path d="M34.7188 23.5156C34.7181 22.4008 34.3391 21.3192 33.6436 20.448C32.9482 19.5767 31.9776 18.9673 30.8906 18.7195V15.5859C30.8906 14.2081 30.3433 12.8866 29.369 11.9123C28.3946 10.938 27.0732 10.3906 25.6953 10.3906C24.3174 10.3906 22.996 10.938 22.0217 11.9123C21.0474 12.8866 20.5 14.2081 20.5 15.5859V29.2578C20.4986 30.2001 20.1236 31.1034 19.4573 31.7698C18.7909 32.4361 17.8876 32.8111 16.9453 32.8125H15.3047C14.3624 32.8111 13.4591 32.4361 12.7927 31.7698C12.1264 31.1034 11.7514 30.2001 11.75 29.2578V21.875H12.8438C13.5619 21.875 14.2731 21.7335 14.9365 21.4587C15.6 21.1839 16.2029 20.7811 16.7107 20.2732C17.2186 19.7654 17.6214 19.1626 17.8962 18.4991C18.171 17.8356 18.3125 17.1244 18.3125 16.4062V2.73438C18.3125 2.00917 18.0244 1.31367 17.5116 0.80088C16.9988 0.288085 16.3033 0 15.5781 0L13.9375 0C13.6474 0 13.3692 0.115234 13.1641 0.320352C12.959 0.52547 12.8438 0.803669 12.8438 1.09375C12.8438 1.38383 12.959 1.66203 13.1641 1.86715C13.3692 2.07227 13.6474 2.1875 13.9375 2.1875H15.5781C15.7232 2.1875 15.8623 2.24512 15.9648 2.34768C16.0674 2.45024 16.125 2.58933 16.125 2.73438V15.3125H5.1875V11.4844C5.1875 11.1943 5.07227 10.9161 4.86715 10.711C4.66203 10.5059 4.38383 10.3906 4.09375 10.3906C3.80367 10.3906 3.52547 10.5059 3.32035 10.711C3.11523 10.9161 3 11.1943 3 11.4844V16.4062C3 17.8567 3.57617 19.2477 4.60176 20.2732C5.62735 21.2988 7.01835 21.875 8.46875 21.875H9.5625V29.2578C9.56394 30.7793 10.1686 32.2382 11.244 33.3146C12.3194 34.391 13.7777 34.9971 15.2992 35H16.9398C18.4628 34.9986 19.9231 34.3933 21.0005 33.3169C22.0779 32.2405 22.6846 30.7808 22.6875 29.2578V15.5859C22.6875 14.7882 23.0044 14.0232 23.5685 13.4591C24.1325 12.895 24.8976 12.5781 25.6953 12.5781C26.493 12.5781 27.2581 12.895 27.8222 13.4591C28.3862 14.0232 28.7031 14.7882 28.7031 15.5859V18.7195C27.7996 18.9255 26.9726 19.3822 26.3173 20.0374C25.6619 20.6925 25.2048 21.5193 24.9985 22.4227C24.7922 23.3261 24.8452 24.2694 25.1512 25.144C25.4573 26.0186 26.0041 26.7891 26.7286 27.3668C27.4532 27.9445 28.3261 28.3059 29.2469 28.4094C30.1678 28.5129 31.0991 28.3544 31.9339 27.9521C32.7686 27.5497 33.4729 26.9199 33.9655 26.1351C34.4582 25.3502 34.7193 24.4423 34.7188 23.5156V23.5156ZM5.38438 17.5H15.9445C15.7179 18.1409 15.2979 18.6956 14.7424 19.0875C14.187 19.4793 13.5235 19.689 12.8438 19.6875H8.46875C7.79178 19.6856 7.13197 19.4744 6.57977 19.0827C6.02758 18.6911 5.61003 18.1383 5.38438 17.5V17.5ZM29.7969 26.25C29.2561 26.25 28.7274 26.0896 28.2777 25.7892C27.8281 25.4887 27.4776 25.0617 27.2706 24.562C27.0637 24.0624 27.0095 23.5126 27.115 22.9822C27.2205 22.4518 27.481 21.9645 27.8634 21.5821C28.2458 21.1997 28.733 20.9393 29.2634 20.8338C29.7938 20.7283 30.3436 20.7824 30.8433 20.9894C31.3429 21.1964 31.77 21.5468 32.0704 21.9965C32.3709 22.4462 32.5312 22.9748 32.5312 23.5156C32.5312 23.8747 32.4605 24.2303 32.3231 24.562C32.1857 24.8938 31.9843 25.1952 31.7304 25.4491C31.4765 25.703 31.175 25.9044 30.8433 26.0419C30.5115 26.1793 30.156 26.25 29.7969 26.25V26.25Z" fill="#003CBF"/>
<path d="M4.09375 8.20312C4.38383 8.20312 4.66203 8.08789 4.86715 7.88277C5.07227 7.67765 5.1875 7.39946 5.1875 7.10938V2.73438C5.1875 2.58933 5.24512 2.45024 5.34768 2.34768C5.45024 2.24512 5.58933 2.1875 5.73438 2.1875H7.375C7.66508 2.1875 7.94328 2.07227 8.1484 1.86715C8.35352 1.66203 8.46875 1.38383 8.46875 1.09375C8.46875 0.803669 8.35352 0.52547 8.1484 0.320352C7.94328 0.115234 7.66508 0 7.375 0L5.73438 0C5.00917 0 4.31367 0.288085 3.80088 0.80088C3.28809 1.31367 3 2.00917 3 2.73438L3 7.10938C3 7.39946 3.11523 7.67765 3.32035 7.88277C3.52547 8.08789 3.80367 8.20312 4.09375 8.20312Z" fill="#003CBF"/>
<path d="M36.9008 30.625C37.5048 30.625 37.9945 30.1353 37.9945 29.5312C37.9945 28.9272 37.5048 28.4375 36.9008 28.4375C36.2967 28.4375 35.807 28.9272 35.807 29.5312C35.807 30.1353 36.2967 30.625 36.9008 30.625Z" fill="#00E1F0"/>
<path d="M24.875 29.5312C24.875 29.8213 24.9902 30.0995 25.1954 30.3046C25.4005 30.5098 25.6787 30.625 25.9688 30.625H32.5312C32.8213 30.625 33.0995 30.5098 33.3046 30.3046C33.5098 30.0995 33.625 29.8213 33.625 29.5312C33.625 29.2412 33.5098 28.963 33.3046 28.7579C33.0995 28.5527 32.8213 28.4375 32.5312 28.4375H25.9688C25.6787 28.4375 25.4005 28.5527 25.1954 28.7579C24.9902 28.963 24.875 29.2412 24.875 29.5312Z" fill="#003CBF"/>
</g>
<defs>
<clipPath id="clip0_1020_4194">
<rect width="35" height="35" fill="white" transform="translate(3)"/>
</clipPath>
<clipPath id="clip1_1020_4194">
<rect width="35" height="35" fill="white" transform="translate(3)"/>
</clipPath>
</defs>
</svg>
