<svg width="80" height="57" viewBox="0 0 80 57" fill="none" xmlns="http://www.w3.org/2000/svg">
<path d="M7.44066 48.11H9.01066V48.81H7.44066V48.11ZM7.44066 50.05H9.01066V50.74H7.44066V50.05ZM6.86066 46.74H7.69066V52.11H6.86066V46.74ZM1.82066 52.54H7.69066V55.78H6.86066V53.21H1.82066V52.54ZM3.20066 47.27C4.56066 47.27 5.56066 48.15 5.56066 49.42C5.56066 50.68 4.56066 51.55 3.20066 51.55C1.84066 51.55 0.840664 50.68 0.840664 49.42C0.840664 48.15 1.84066 47.27 3.20066 47.27ZM3.20066 47.98C2.30066 47.98 1.65066 48.56 1.65066 49.42C1.65066 50.27 2.30066 50.86 3.20066 50.86C4.10066 50.86 4.75066 50.27 4.75066 49.42C4.75066 48.56 4.10066 47.98 3.20066 47.98ZM9.86988 51.27H18.0399V51.94H9.86988V51.27ZM13.5499 50.01H14.3699V51.49H13.5499V50.01ZM13.9499 52.61C15.8899 52.61 17.0399 53.18 17.0399 54.19C17.0399 55.2 15.8899 55.76 13.9499 55.76C12.0199 55.76 10.8599 55.2 10.8599 54.19C10.8599 53.18 12.0199 52.61 13.9499 52.61ZM13.9499 53.25C12.5299 53.25 11.6999 53.59 11.6999 54.19C11.6999 54.79 12.5299 55.13 13.9499 55.13C15.3699 55.13 16.1999 54.79 16.1999 54.19C16.1999 53.59 15.3699 53.25 13.9499 53.25ZM10.9599 46.97H11.7799V47.97H16.1499V46.97H16.9799V50.31H10.9599V46.97ZM11.7799 48.62V49.64H16.1499V48.62H11.7799ZM19.0691 52.21H27.2591V52.9H19.0691V52.21ZM22.7491 52.41H23.5691V55.79H22.7491V52.41ZM20.1591 50.61H26.3491V51.29H20.1591V50.61ZM20.1591 47.16H26.2491V47.83H20.9791V50.81H20.1591V47.16ZM20.7391 48.87H26.0291V49.52H20.7391V48.87ZM30.6903 47.3864L28.3465 56.0938H28.105L30.4488 47.3864H30.6903ZM33.9107 47.73H34.6007V48.65C34.6007 50.31 33.5807 51.7 32.0607 52.25L31.6307 51.59C32.9907 51.11 33.9107 49.94 33.9107 48.65V47.73ZM34.0707 47.73H34.7607V48.65C34.7607 49.87 35.7007 50.97 37.0407 51.42L36.6107 52.07C35.1107 51.56 34.0707 50.24 34.0707 48.65V47.73ZM31.8507 47.49H36.8007V48.16H31.8507V47.49ZM38.0807 46.75H38.9207V53.36H38.0807V46.75ZM33.1107 54.9H39.1907V55.58H33.1107V54.9ZM33.1107 52.74H33.9307V55.2H33.1107V52.74ZM46.89 46.73H47.72V53.28H46.89V46.73ZM47.47 49.42H49.06V50.11H47.47V49.42ZM41.12 51H41.82C43.68 51 44.73 50.95 45.94 50.7L46.03 51.37C44.79 51.63 43.72 51.69 41.82 51.69H41.12V51ZM41.12 47.51H45.11V48.2H41.94V51.37H41.12V47.51ZM42.09 54.9H48.13V55.58H42.09V54.9ZM42.09 52.63H42.92V55.21H42.09V52.63ZM54.4192 49.8H56.9392V50.48H54.4192V49.8ZM52.2392 47.52H52.9192V49.13C52.9192 51.16 51.8492 53.1 50.4192 53.87L49.8892 53.21C51.2192 52.55 52.2392 50.81 52.2392 49.13V47.52ZM52.3992 47.52H53.0692V49.13C53.0692 50.78 54.0892 52.42 55.3992 53.04L54.9092 53.71C53.4492 52.97 52.3992 51.11 52.3992 49.13V47.52ZM56.5292 46.73H57.3492V55.79H56.5292V46.73ZM64.3309 47.98H64.9609V48.11C64.9609 49.21 63.9309 50.06 62.4409 50.32L62.1509 49.72C63.3909 49.51 64.3309 48.88 64.3309 48.11V47.98ZM64.5109 47.98H65.1409V48.11C65.1409 48.84 66.0909 49.43 67.3109 49.63L67.0209 50.24C65.5509 49.98 64.5109 49.17 64.5109 48.11V47.98ZM62.3509 47.5H67.1109V48.12H62.3509V47.5ZM64.3209 49.92H65.1509V51.2H64.3209V49.92ZM64.3209 46.72H65.1409V47.8H64.3209V46.72ZM63.0709 52.26H68.9209V54.23H63.9009V55.33H63.0909V53.63H68.1109V52.89H63.0709V52.26ZM63.0909 55.05H69.2709V55.68H63.0909V55.05ZM68.0909 46.74H68.9209V51.87H68.0909V46.74ZM68.5709 48.9H70.2409V49.59H68.5709V48.9ZM62.0009 51.58L61.9009 50.93C63.5209 50.93 65.7009 50.92 67.5309 50.66L67.6009 51.24C65.7109 51.56 63.5909 51.58 62.0009 51.58ZM75.2301 48.04H77.9901V48.72H75.2301V48.04ZM75.2301 50.12H77.9901V50.81H75.2301V50.12ZM73.5801 47.27C74.9101 47.27 75.9101 48.17 75.9101 49.42C75.9101 50.68 74.9101 51.57 73.5801 51.57C72.2401 51.57 71.2501 50.68 71.2501 49.42C71.2501 48.17 72.2401 47.27 73.5801 47.27ZM73.5801 47.98C72.7001 47.98 72.0501 48.57 72.0501 49.42C72.0501 50.27 72.7001 50.86 73.5801 50.86C74.4601 50.86 75.1201 50.27 75.1201 49.42C75.1201 48.57 74.4601 47.98 73.5801 47.98ZM77.7201 46.74H78.5501V52.09H77.7201V46.74ZM75.5801 52.3C77.4401 52.3 78.5901 52.94 78.5901 54.03C78.5901 55.13 77.4401 55.76 75.5801 55.76C73.7101 55.76 72.5601 55.13 72.5601 54.03C72.5601 52.94 73.7101 52.3 75.5801 52.3ZM75.5801 52.96C74.2101 52.96 73.3801 53.36 73.3801 54.03C73.3801 54.71 74.2101 55.11 75.5801 55.11C76.9401 55.11 77.7701 54.71 77.7701 54.03C77.7701 53.36 76.9401 52.96 75.5801 52.96Z" fill="black"/>
<g clip-path="url(#clip0_1020_4195)">
<path d="M31.5938 9.29688V2.73438C31.5938 2.29925 31.7667 1.88195 32.0743 1.57428C32.382 1.2666 32.7993 1.09375 33.2344 1.09375H48.5469C48.9821 1.09375 49.3994 1.2666 49.707 1.57428C50.0147 1.88195 50.1876 2.29925 50.1876 2.73438V32.2656C50.1876 32.7007 50.0147 33.118 49.707 33.4257C49.3994 33.7334 48.9821 33.9062 48.5469 33.9062H33.2344C32.7993 33.9062 32.382 33.7334 32.0743 33.4257C31.7667 33.118 31.5938 32.7007 31.5938 32.2656V13.6719" fill="#E3FCFD"/>
<path d="M31.9219 25.1562H49.9688V33.9062H31.9219V25.1562Z" fill="#00E1F0"/>
<path d="M31.9219 1.64062H49.9688V5.46875H31.9219V1.64062Z" fill="#00E1F0"/>
<path d="M57.3516 35C57.9556 35 58.4453 34.5103 58.4453 33.9062C58.4453 33.3022 57.9556 32.8125 57.3516 32.8125C56.7475 32.8125 56.2578 33.3022 56.2578 33.9062C56.2578 34.5103 56.7475 35 57.3516 35Z" fill="#00E1F0"/>
<path d="M52.9766 32.8125H51.2813C51.3162 32.6323 51.3345 32.4492 51.3359 32.2656V17.3469C51.5012 17.2514 51.6387 17.1144 51.7346 16.9494C51.8306 16.7844 51.8817 16.5971 51.8828 16.4062V15.3125C51.8817 15.1216 51.8306 14.9344 51.7346 14.7694C51.6387 14.6043 51.5012 14.4673 51.3359 14.3719V11.8781C51.5012 11.7827 51.6387 11.6457 51.7346 11.4806C51.8306 11.3156 51.8817 11.1284 51.8828 10.9375V6.01562C51.8817 5.82475 51.8306 5.6375 51.7346 5.47249C51.6387 5.30747 51.5012 5.17044 51.3359 5.075V2.73438C51.3359 2.37529 51.2652 2.01972 51.1278 1.68798C50.9904 1.35623 50.789 1.05479 50.5351 0.80088C50.2811 0.54697 49.9797 0.345557 49.648 0.208142C49.3162 0.0707267 48.9606 0 48.6016 0L33.2891 0C32.5639 0 31.8684 0.288085 31.3556 0.80088C30.8428 1.31367 30.5547 2.00917 30.5547 2.73438V9.29688C30.5547 9.58696 30.6699 9.86515 30.875 10.0703C31.0802 10.2754 31.3584 10.3906 31.6484 10.3906C31.9385 10.3906 32.2167 10.2754 32.4218 10.0703C32.627 9.86515 32.7422 9.58696 32.7422 9.29688V6.5625H49.1484V24.0625H32.7422V13.6719C32.7422 13.3818 32.627 13.1036 32.4218 12.8985C32.2167 12.6934 31.9385 12.5781 31.6484 12.5781C31.3584 12.5781 31.0802 12.6934 30.875 12.8985C30.6699 13.1036 30.5547 13.3818 30.5547 13.6719V32.2656C30.5547 32.9908 30.8428 33.6863 31.3556 34.1991C31.8684 34.7119 32.5639 35 33.2891 35H52.9766C53.2666 35 53.5448 34.8848 53.75 34.6796C53.9551 34.4745 54.0703 34.1963 54.0703 33.9062C54.0703 33.6162 53.9551 33.338 53.75 33.1329C53.5448 32.9277 53.2666 32.8125 52.9766 32.8125ZM32.7422 4.375V2.73438C32.7422 2.58933 32.7998 2.45024 32.9024 2.34768C33.0049 2.24512 33.144 2.1875 33.2891 2.1875H48.6016C48.7466 2.1875 48.8857 2.24512 48.9883 2.34768C49.0908 2.45024 49.1484 2.58933 49.1484 2.73438V4.375H32.7422ZM33.2891 32.8125C33.144 32.8125 33.0049 32.7549 32.9024 32.6523C32.7998 32.5498 32.7422 32.4107 32.7422 32.2656V26.25H49.1484V32.2656C49.1484 32.4107 49.0908 32.5498 48.9883 32.6523C48.8857 32.7549 48.7466 32.8125 48.6016 32.8125H33.2891Z" fill="#003CBF"/>
<path d="M43.6797 28.4375H38.2109C37.9209 28.4375 37.6427 28.5527 37.4375 28.7579C37.2324 28.963 37.1172 29.2412 37.1172 29.5312C37.1172 29.8213 37.2324 30.0995 37.4375 30.3046C37.6427 30.5098 37.9209 30.625 38.2109 30.625H43.6797C43.9698 30.625 44.248 30.5098 44.4531 30.3046C44.6582 30.0995 44.7734 29.8213 44.7734 29.5312C44.7734 29.2412 44.6582 28.963 44.4531 28.7579C44.248 28.5527 43.9698 28.4375 43.6797 28.4375Z" fill="#003CBF"/>
<path d="M40.9453 11.4844C40.6552 11.4844 40.377 11.5996 40.1719 11.8047C39.9668 12.0098 39.8516 12.288 39.8516 12.5781V14.2188H38.2109C37.9209 14.2188 37.6427 14.334 37.4375 14.5391C37.2324 14.7442 37.1172 15.0224 37.1172 15.3125C37.1172 15.6026 37.2324 15.8808 37.4375 16.0859C37.6427 16.291 37.9209 16.4062 38.2109 16.4062H39.8516V18.0469C39.8516 18.337 39.9668 18.6152 40.1719 18.8203C40.377 19.0254 40.6552 19.1406 40.9453 19.1406C41.2354 19.1406 41.5136 19.0254 41.7187 18.8203C41.9238 18.6152 42.0391 18.337 42.0391 18.0469V16.4062H43.6797C43.9698 16.4062 44.248 16.291 44.4531 16.0859C44.6582 15.8808 44.7734 15.6026 44.7734 15.3125C44.7734 15.0224 44.6582 14.7442 44.4531 14.5391C44.248 14.334 43.9698 14.2188 43.6797 14.2188H42.0391V12.5781C42.0391 12.288 41.9238 12.0098 41.7187 11.8047C41.5136 11.5996 41.2354 11.4844 40.9453 11.4844Z" fill="#00E1F0"/>
</g>
<defs>
<clipPath id="clip0_1020_4195">
<rect width="35" height="35" fill="white" transform="translate(27)"/>
</clipPath>
</defs>
</svg>
