<svg width="25" height="38" viewBox="0 0 25 38" fill="none" xmlns="http://www.w3.org/2000/svg">
<path d="M16.2456 16.3504H8.72473" stroke="#112950" stroke-width="1.5" stroke-linecap="round" stroke-linejoin="round"/>
<path d="M16.2456 12.434H8.72473" stroke="#112950" stroke-width="1.5" stroke-linecap="round" stroke-linejoin="round"/>
<path d="M11.5948 8.51803H8.72498" stroke="#112950" stroke-width="1.5" stroke-linecap="round" stroke-linejoin="round"/>
<path fill-rule="evenodd" clip-rule="evenodd" d="M3.76038 12.5002C3.76038 19.7262 5.94579 22.1356 12.501 22.1356C19.0573 22.1356 21.2416 19.7262 21.2416 12.5002C21.2416 5.27412 19.0573 2.86475 12.501 2.86475C5.94579 2.86475 3.76038 5.27412 3.76038 12.5002Z" stroke="#112950" stroke-width="1.5" stroke-linecap="round" stroke-linejoin="round"/>
<path d="M1.392 33.088H7.944V33.632H1.392V33.088ZM4.384 33.424H5.048V35.088H4.384V33.424ZM2.232 29.728H7.096V32.272H2.232V29.728ZM6.44 30.264H2.88V31.736H6.44V30.264ZM2.224 35.92H7.216V36.464H2.224V35.92ZM2.224 34.392H2.88V36.112H2.224V34.392ZM10.6794 30.184H11.2314V30.92C11.2314 32.248 10.4154 33.36 9.19938 33.8L8.85538 33.272C9.94338 32.888 10.6794 31.952 10.6794 30.92V30.184ZM10.8074 30.184H11.3594V30.92C11.3594 31.896 12.1114 32.776 13.1834 33.136L12.8394 33.656C11.6394 33.248 10.8074 32.192 10.8074 30.92V30.184ZM9.03138 29.992H12.9914V30.528H9.03138V29.992ZM14.0154 29.4H14.6874V34.688H14.0154V29.4ZM10.0394 35.92H14.9034V36.464H10.0394V35.92ZM10.0394 34.192H10.6954V36.16H10.0394V34.192ZM17.9268 33.312H18.5908V35.376H17.9268V33.312ZM20.1588 33.312H20.8148V35.376H20.1588V33.312ZM16.1188 35.2H22.6708V35.752H16.1188V35.2ZM16.6868 30.056H22.0548V30.6H16.6868V30.056ZM16.7028 32.952H22.0468V33.488H16.7028V32.952ZM17.8148 30.496H18.4788V33.064H17.8148V30.496ZM20.2788 30.496H20.9348V33.064H20.2788V30.496Z" fill="black"/>
</svg>
