<svg width="25" height="38" viewBox="0 0 25 38" fill="none" xmlns="http://www.w3.org/2000/svg">
<path d="M9.45703 16.8077H15.5143" stroke="#112950" stroke-width="1.5" stroke-linecap="round" stroke-linejoin="round"/>
<path fill-rule="evenodd" clip-rule="evenodd" d="M2.5 14.2844C2.5 8.41879 3.13958 8.82817 6.58229 5.63546C8.08854 4.42296 10.4323 2.08337 12.4563 2.08337C14.4792 2.08337 16.8698 4.4115 18.3896 5.63546C21.8323 8.82817 22.4708 8.41879 22.4708 14.2844C22.4708 22.9167 20.4302 22.9167 12.4854 22.9167C4.54063 22.9167 2.5 22.9167 2.5 14.2844Z" stroke="#112950" stroke-width="1.5" stroke-linecap="round" stroke-linejoin="round"/>
<path d="M10.192 34.464H15.128V36.528H10.192V34.464ZM14.48 34.976H10.848V36.024H14.48V34.976ZM9.736 29.984H15.552V30.504H9.736V29.984ZM12.664 30.792C14.152 30.792 15 31.144 15 31.816C15 32.488 14.152 32.84 12.664 32.84C11.168 32.84 10.328 32.488 10.328 31.816C10.328 31.144 11.168 30.792 12.664 30.792ZM12.664 31.256C11.616 31.256 11.032 31.456 11.032 31.816C11.032 32.176 11.616 32.376 12.664 32.376C13.704 32.376 14.288 32.176 14.288 31.816C14.288 31.456 13.704 31.256 12.664 31.256ZM12.336 29.288H12.992V30.32H12.336V29.288ZM9.392 33.392H15.928V33.912H9.392V33.392ZM12.336 32.68H12.992V33.68H12.336V32.68Z" fill="black"/>
</svg>
