<svg width="25" height="38" viewBox="0 0 25 38" fill="none" xmlns="http://www.w3.org/2000/svg">
<path fill-rule="evenodd" clip-rule="evenodd" d="M12.5 9.89575C13.9385 9.89575 15.1042 11.0615 15.1042 12.4999C15.1042 13.9383 13.9385 15.1041 12.5 15.1041C11.0616 15.1041 9.89587 13.9383 9.89587 12.4999C9.89587 11.0615 11.0616 9.89575 12.5 9.89575Z" stroke="#112950" stroke-width="1.5" stroke-linecap="round" stroke-linejoin="round"/>
<path fill-rule="evenodd" clip-rule="evenodd" d="M21.0084 7.5523V7.5523C20.2963 6.31037 18.7201 5.88542 17.4881 6.60259C16.4165 7.2251 15.0772 6.44619 15.0772 5.20014C15.0772 3.76683 13.9228 2.60413 12.4998 2.60413V2.60413C11.0768 2.60413 9.9224 3.76683 9.9224 5.20014C9.9224 6.44619 8.58313 7.2251 7.51253 6.60259C6.27951 5.88542 4.70324 6.31037 3.99121 7.5523C3.28021 8.79423 3.70211 10.3819 4.93514 11.098C6.00573 11.7216 6.00573 13.2784 4.93514 13.9019C3.70211 14.6191 3.28021 16.2067 3.99121 17.4476C4.70324 18.6896 6.27951 19.1145 7.51151 18.3984H7.51253C8.58313 17.7748 9.9224 18.5537 9.9224 19.7998V19.7998C9.9224 21.2331 11.0768 22.3958 12.4998 22.3958V22.3958C13.9228 22.3958 15.0772 21.2331 15.0772 19.7998V19.7998C15.0772 18.5537 16.4165 17.7748 17.4881 18.3984C18.7201 19.1145 20.2963 18.6896 21.0084 17.4476C21.7204 16.2067 21.2975 14.6191 20.0655 13.9019H20.0645C18.9939 13.2784 18.9939 11.7216 20.0655 11.098C21.2975 10.3819 21.7204 8.79423 21.0084 7.5523Z" stroke="#112950" stroke-width="1.5" stroke-linecap="round" stroke-linejoin="round"/>
<path d="M9.112 30.696H10.96V31.248H9.112V30.696ZM10.68 29.392H11.344V33.12H10.68V29.392ZM6.688 33.496H11.344V35.224H7.36V36.32H6.712V34.728H10.688V34.024H6.688V33.496ZM6.712 36H11.616V36.528H6.712V36ZM7.2 29.616H7.744V30.296C7.744 31.632 6.944 32.712 5.736 33.144L5.392 32.616C6.48 32.248 7.2 31.344 7.2 30.296V29.616ZM7.312 29.616H7.848V30.296C7.848 31.24 8.576 32.112 9.624 32.456L9.28 32.976C8.112 32.56 7.312 31.52 7.312 30.296V29.616ZM16.6154 31.264H18.2474V31.816H16.6154V31.264ZM18.0394 29.392H18.7034V33.704H18.0394V29.392ZM16.3274 33.92C17.8154 33.92 18.7354 34.424 18.7354 35.272C18.7354 36.128 17.8154 36.616 16.3274 36.616C14.8314 36.616 13.9114 36.128 13.9114 35.272C13.9114 34.424 14.8314 33.92 16.3274 33.92ZM16.3274 34.44C15.2394 34.44 14.5754 34.744 14.5754 35.272C14.5754 35.792 15.2394 36.096 16.3274 36.096C17.4154 36.096 18.0794 35.792 18.0794 35.272C18.0794 34.744 17.4154 34.44 16.3274 34.44ZM14.5994 30.12H15.1434V30.704C15.1434 32.04 14.3274 33.184 13.1274 33.632L12.7834 33.104C13.8554 32.712 14.5994 31.744 14.5994 30.704V30.12ZM14.7274 30.12H15.2634V30.704C15.2634 31.64 15.9674 32.536 17.0154 32.904L16.6794 33.432C15.5034 33.008 14.7274 31.92 14.7274 30.704V30.12ZM12.9834 29.92H16.8474V30.464H12.9834V29.92Z" fill="black"/>
</svg>
