<svg width="30" height="38" viewBox="0 0 30 38" fill="none" xmlns="http://www.w3.org/2000/svg">
<path d="M10.2031 8.203L18.7969 16.7968" stroke="#112950" stroke-width="1.5" stroke-miterlimit="10"/>
<path d="M6.62244 20.3775C4.25916 18.0142 4.25916 14.1471 6.62244 11.7838L13.7839 4.62231C16.1472 2.25903 20.0144 2.25903 22.3776 4.62231C24.7409 6.9856 24.7409 10.8528 22.3776 13.2161L15.2162 20.3775C12.8529 22.7408 8.98572 22.7408 6.62244 20.3775Z" stroke="#112950" stroke-width="1.5" stroke-miterlimit="10" stroke-linecap="square"/>
<path d="M0.392 33.12H6.928V33.664H0.392V33.12ZM3.336 32.04H3.992V33.288H3.336V32.04ZM1.12 34.368H6.12V36.624H5.456V34.912H1.12V34.368ZM1.264 29.56H1.92V30.376H5.416V29.56H6.08V32.264H1.264V29.56ZM1.92 30.896V31.736H5.416V30.896H1.92ZM9.36738 31.84H10.0234V33.208H9.36738V31.84ZM12.0234 31.84H12.6794V33.208H12.0234V31.84ZM7.75138 32.968H14.2874V33.504H7.75138V32.968ZM11.0154 34.048C12.5674 34.048 13.4954 34.504 13.4954 35.328C13.4954 36.152 12.5674 36.616 11.0154 36.616C9.46338 36.616 8.53537 36.152 8.53537 35.328C8.53537 34.504 9.46338 34.048 11.0154 34.048ZM11.0154 34.56C9.88738 34.56 9.20738 34.84 9.20738 35.328C9.20738 35.824 9.88738 36.096 11.0154 36.096C12.1514 36.096 12.8234 35.824 12.8234 35.328C12.8234 34.84 12.1514 34.56 11.0154 34.56ZM11.0234 29.52C12.5914 29.52 13.5674 30.024 13.5674 30.872C13.5674 31.712 12.5914 32.208 11.0234 32.208C9.44738 32.208 8.47938 31.712 8.47938 30.872C8.47938 30.024 9.44738 29.52 11.0234 29.52ZM11.0234 30.04C9.87138 30.04 9.15938 30.344 9.15938 30.872C9.15938 31.392 9.87138 31.696 11.0234 31.696C12.1754 31.696 12.8874 31.392 12.8874 30.872C12.8874 30.344 12.1754 30.04 11.0234 30.04ZM15.5028 29.952H18.7028V30.496H15.5028V29.952ZM16.5908 31.568H17.2468V33.376H16.5908V31.568ZM18.4388 29.952H19.0948V30.336C19.0948 30.808 19.0948 31.528 18.9028 32.48L18.2548 32.408C18.4388 31.456 18.4388 30.8 18.4388 30.336V29.952ZM20.0788 29.392H20.7428V34.84H20.0788V29.392ZM20.4388 31.744H21.7748V32.296H20.4388V31.744ZM16.1748 35.92H20.9748V36.464H16.1748V35.92ZM16.1748 34.336H16.8307V36.088H16.1748V34.336ZM15.1348 33.688L15.0628 33.144C16.3508 33.144 18.1268 33.112 19.5908 32.912L19.6388 33.392C18.1348 33.656 16.4068 33.688 15.1348 33.688ZM27.7421 29.384H28.4061V36.632H27.7421V29.384ZM22.8941 34.336H23.4941C24.7021 34.336 25.7821 34.288 27.0621 34.08L27.1341 34.624C25.8221 34.84 24.7341 34.888 23.4941 34.888H22.8941V34.336ZM22.8781 30.064H26.2221V32.648H23.5581V34.544H22.8941V32.104H25.5501V30.608H22.8781V30.064Z" fill="black"/>
</svg>
