<svg width="56" height="81" viewBox="0 0 56 81" fill="none" xmlns="http://www.w3.org/2000/svg">
<path d="M17.6 71.965H19.58V75.46H17.6V71.965ZM22.16 71.965H24.125V75.46H22.16V71.965ZM15.14 65.185H26.6V66.775H15.14V65.185ZM14.615 74.365H27.185V75.97H14.615V74.365ZM20.855 67.345C23.765 67.345 25.565 68.335 25.565 70.03C25.565 71.71 23.765 72.685 20.855 72.685C17.945 72.685 16.145 71.71 16.145 70.03C16.145 68.335 17.945 67.345 20.855 67.345ZM20.855 68.875C19.1 68.875 18.185 69.25 18.185 70.03C18.185 70.795 19.1 71.155 20.855 71.155C22.595 71.155 23.525 70.795 23.525 70.03C23.525 69.25 22.595 68.875 20.855 68.875ZM19.88 63.595H21.86V66.175H19.88V63.595ZM28.9838 64.825H34.9688V66.4H28.9838V64.825ZM30.7688 68.8H32.7338V73.51H30.7688V68.8ZM34.1738 64.825H36.1388V65.95C36.1388 67.3 36.1388 68.98 35.7638 71.29L33.8138 71.11C34.1738 68.89 34.1738 67.285 34.1738 65.95V64.825ZM37.3238 63.445H39.3188V77.335H37.3238V63.445ZM38.7338 69.025H41.1788V70.675H38.7338V69.025ZM28.4588 74.53L28.2788 72.925C30.7238 72.925 33.9638 72.88 36.6938 72.535L36.7988 73.99C33.9938 74.47 30.8738 74.53 28.4588 74.53Z" fill="#5A5A5A"/>
<path d="M27.7742 55.5483C43.1134 55.5483 55.5483 43.1134 55.5483 27.7742C55.5483 12.4349 43.1134 0 27.7742 0C12.4349 0 0 12.4349 0 27.7742C0 43.1134 12.4349 55.5483 27.7742 55.5483Z" fill="#FFDD67"/>
<path d="M54.9929 37.5877C54.1596 35.9213 52.4932 34.8103 50.3638 34.9955C48.2345 35.1806 46.568 36.2916 45.1793 38.2358C43.7906 36.3842 42.1242 35.1806 39.9948 35.088C37.8655 34.9955 36.199 36.1064 35.3658 37.7729C34.5326 39.4393 34.5326 41.6613 36.199 44.2535C37.8655 46.7532 44.9942 51.8451 45.1793 52.0303C45.3645 51.8451 52.4932 46.6606 54.1596 44.2535C55.8261 41.4761 55.8261 39.2542 54.9929 37.5877Z" fill="#F46767"/>
<path d="M37.0325 28.7C39.589 28.7 41.6615 26.213 41.6615 23.1452C41.6615 20.0773 39.589 17.5903 37.0325 17.5903C34.4759 17.5903 32.4034 20.0773 32.4034 23.1452C32.4034 26.213 34.4759 28.7 37.0325 28.7Z" fill="#664E27"/>
<path d="M25.6449 26.3852C23.8858 22.5894 21.2936 20.7378 18.7013 20.7378C16.1091 20.7378 13.5168 22.5894 11.7578 26.3852C11.5726 26.7555 12.4984 27.4962 12.9613 27.1259C14.6278 25.7371 16.6646 25.1817 18.7013 25.1817C20.7381 25.1817 22.7749 25.7371 24.4413 27.1259C24.9042 27.4962 25.7375 26.8481 25.6449 26.3852Z" fill="#664E27"/>
<path d="M34.7175 44.8089C36.1988 43.3276 33.0511 42.0315 33.0511 39.3467C33.0511 36.6618 36.1988 35.4583 34.7175 33.8844C32.9585 32.0328 29.1627 33.4215 26.7556 31.0144C26.7556 33.0512 28.4221 35.1805 31.5698 35.1805C31.5698 35.1805 29.4405 36.0138 29.4405 39.3467C29.4405 42.6796 31.5698 43.5128 31.5698 43.5128C28.4221 43.5128 26.7556 45.6421 26.7556 47.6789C29.1627 45.1792 32.9585 46.5679 34.7175 44.8089Z" fill="#664E27"/>
</svg>
