<svg width="307" height="140" viewBox="0 0 307 140" fill="none" xmlns="http://www.w3.org/2000/svg">
<rect x="5" width="302" height="140" rx="20" fill="#91C3FD"/>
<g clip-path="url(#clip0_1504_4229)">
<rect x="0.668577" y="0.840181" width="94.4738" height="111.89" rx="15.25" transform="matrix(0.992116 0.125323 -0.10068 0.994919 248.484 73.9205)" stroke="white" stroke-opacity="0.2" stroke-width="1.5"/>
<rect x="0.668577" y="0.840181" width="94.1717" height="91.514" rx="15.25" transform="matrix(0.992116 0.125323 -0.10068 0.994919 224.654 100.791)" stroke="white" stroke-opacity="0.2" stroke-width="1.5"/>
<rect x="0.668577" y="0.840181" width="94.1717" height="93.6136" rx="15.25" transform="matrix(0.992116 0.125323 -0.10068 0.994919 264.937 89.942)" stroke="white" stroke-opacity="0.2" stroke-width="1.5"/>
</g>
<path d="M28.192 26.962H30.432V28.488H28.192V26.962ZM28.192 29.776H30.432V31.302H28.192V29.776ZM26.904 25.282H28.766V32.926H26.904V25.282ZM20.114 33.458H28.766V38.246H26.904V34.942H20.114V33.458ZM22.172 25.982C24.174 25.982 25.7 27.312 25.7 29.16C25.7 31.008 24.174 32.324 22.172 32.324C20.17 32.324 18.644 31.008 18.644 29.16C18.644 27.312 20.17 25.982 22.172 25.982ZM22.172 27.564C21.192 27.564 20.464 28.138 20.464 29.16C20.464 30.182 21.192 30.77 22.172 30.77C23.152 30.77 23.88 30.182 23.88 29.16C23.88 28.138 23.152 27.564 22.172 27.564ZM40.4409 25.268H42.3169V38.274H40.4409V25.268ZM35.3309 26.178C37.2909 26.178 38.7329 27.97 38.7329 30.798C38.7329 33.654 37.2909 35.446 35.3309 35.446C33.3709 35.446 31.9289 33.654 31.9289 30.798C31.9289 27.97 33.3709 26.178 35.3309 26.178ZM35.3309 27.872C34.3649 27.872 33.7069 28.894 33.7069 30.798C33.7069 32.73 34.3649 33.766 35.3309 33.766C36.2969 33.766 36.9409 32.73 36.9409 30.798C36.9409 28.894 36.2969 27.872 35.3309 27.872ZM49.0626 25.996H57.2526V27.48H49.0626V25.996ZM47.6346 31.008H59.3666V32.506H47.6346V31.008ZM56.1606 25.996H57.9946V27.116C57.9946 28.348 57.9946 29.72 57.5886 31.582L55.7546 31.414C56.1606 29.608 56.1606 28.32 56.1606 27.116V25.996ZM49.1046 36.524H58.3586V38.022H49.1046V36.524ZM49.1046 33.612H50.9526V36.678H49.1046V33.612ZM69.6275 25.268H71.4895V38.274H69.6275V25.268ZM67.3455 30.252H70.0475V31.75H67.3455V30.252ZM63.6075 28.642H65.0635V29.314C65.0635 32.044 63.8875 34.802 61.5355 35.852L60.5415 34.424C62.6415 33.458 63.6075 31.26 63.6075 29.314V28.642ZM64.0135 28.642H65.4555V29.314C65.4555 31.176 66.4495 33.276 68.5495 34.214L67.5695 35.628C65.1895 34.62 64.0135 31.96 64.0135 29.314V28.642ZM60.9755 27.396H68.0455V28.866H60.9755V27.396ZM63.6075 25.576H65.4695V28.152H63.6075V25.576ZM83.2344 26.962H85.4744V28.488H83.2344V26.962ZM83.2344 29.776H85.4744V31.302H83.2344V29.776ZM81.9464 25.282H83.8084V32.926H81.9464V25.282ZM75.1564 33.458H83.8084V38.246H81.9464V34.942H75.1564V33.458ZM77.2144 25.982C79.2164 25.982 80.7424 27.312 80.7424 29.16C80.7424 31.008 79.2164 32.324 77.2144 32.324C75.2124 32.324 73.6864 31.008 73.6864 29.16C73.6864 27.312 75.2124 25.982 77.2144 25.982ZM77.2144 27.564C76.2344 27.564 75.5064 28.138 75.5064 29.16C75.5064 30.182 76.2344 30.77 77.2144 30.77C78.1944 30.77 78.9224 30.182 78.9224 29.16C78.9224 28.138 78.1944 27.564 77.2144 27.564ZM88.0353 25.828H96.2533V27.312H88.0353V25.828ZM86.6073 30.308H98.3393V31.792H86.6073V30.308ZM91.5213 31.358H93.3833V34.074H91.5213V31.358ZM95.1333 25.828H96.9673V26.864C96.9673 27.984 96.9673 29.286 96.5613 30.994L94.7273 30.812C95.1333 29.146 95.1333 27.956 95.1333 26.864V25.828ZM87.7833 33.612H96.9813V38.246H95.1193V35.082H87.7833V33.612ZM104.764 30.056H106.892V31.554H104.764V30.056ZM108.95 25.282H110.728V38.246H108.95V25.282ZM106.304 25.478H108.054V37.658H106.304V25.478ZM102.496 26.192C104.218 26.192 105.324 27.97 105.324 30.896C105.324 33.836 104.218 35.614 102.496 35.614C100.788 35.614 99.6962 33.836 99.6962 30.896C99.6962 27.97 100.788 26.192 102.496 26.192ZM102.496 27.942C101.796 27.942 101.39 28.922 101.39 30.896C101.39 32.884 101.796 33.85 102.496 33.85C103.224 33.85 103.63 32.884 103.63 30.896C103.63 28.922 103.224 27.942 102.496 27.942ZM118.566 33.15H119.966V33.584C119.966 35.544 119.098 37.336 117.068 38.064L116.158 36.706C117.852 36.132 118.566 34.844 118.566 33.584V33.15ZM119.042 33.15H120.372V33.584C120.372 34.844 121.002 36.16 122.584 36.818L121.842 38.19C119.784 37.42 119.042 35.488 119.042 33.584V33.15ZM123.298 33.15H124.628V33.584C124.628 35.376 123.858 37.392 121.842 38.19L121.072 36.818C122.654 36.104 123.298 34.732 123.298 33.584V33.15ZM123.732 33.15H125.132V33.584C125.132 34.928 125.832 36.174 127.54 36.706L126.63 38.064C124.572 37.364 123.732 35.628 123.732 33.584V33.15ZM124.558 25.296H126.434V32.618H124.558V25.296ZM119.378 25.954C121.394 25.954 122.892 27.242 122.892 29.062C122.892 30.868 121.394 32.156 119.378 32.156C117.362 32.156 115.85 30.868 115.85 29.062C115.85 27.242 117.362 25.954 119.378 25.954ZM119.378 27.494C118.398 27.494 117.67 28.068 117.67 29.062C117.67 30.042 118.398 30.616 119.378 30.616C120.358 30.616 121.072 30.042 121.072 29.062C121.072 28.068 120.358 27.494 119.378 27.494ZM134.511 25.464C137.465 25.464 139.201 26.248 139.201 27.676C139.201 29.104 137.465 29.888 134.511 29.888C131.543 29.888 129.821 29.104 129.821 27.676C129.821 26.248 131.543 25.464 134.511 25.464ZM134.511 26.822C132.635 26.822 131.753 27.102 131.753 27.676C131.753 28.278 132.635 28.53 134.511 28.53C136.387 28.53 137.269 28.278 137.269 27.676C137.269 27.102 136.387 26.822 134.511 26.822ZM128.645 30.49H140.363V31.96H128.645V30.49ZM129.989 32.688H138.949V36.02H131.837V37.168H130.003V34.732H137.115V34.074H129.989V32.688ZM130.003 36.762H139.285V38.162H130.003V36.762ZM144.758 27.326H146.242V28.782C146.242 31.778 145.024 34.704 142.588 35.81L141.538 34.34C143.708 33.374 144.758 30.98 144.758 28.782V27.326ZM145.178 27.326H146.648V28.782C146.648 30.882 147.684 33.122 149.854 34.018L148.846 35.488C146.382 34.424 145.178 31.666 145.178 28.782V27.326ZM142.056 26.528H149.322V28.054H142.056V26.528ZM150.526 25.282H152.402V38.246H150.526V25.282ZM159.147 25.744H167.365V27.214H159.147V25.744ZM157.719 30.224H169.451V31.708H157.719V30.224ZM162.633 31.246H164.495V33.836H162.633V31.246ZM166.245 25.744H168.079V26.766C168.079 27.886 168.079 29.188 167.673 30.882L165.839 30.714C166.245 29.048 166.245 27.858 166.245 26.766V25.744ZM163.571 33.248C166.385 33.248 168.121 34.172 168.121 35.754C168.121 37.35 166.385 38.26 163.571 38.26C160.743 38.26 159.007 37.35 159.007 35.754C159.007 34.172 160.743 33.248 163.571 33.248ZM163.571 34.732C161.807 34.732 160.883 35.054 160.883 35.754C160.883 36.454 161.807 36.79 163.571 36.79C165.335 36.79 166.245 36.454 166.245 35.754C166.245 35.054 165.335 34.732 163.571 34.732ZM172.138 25.856H180.356V27.34H172.138V25.856ZM170.71 30.518H182.442V32.002H170.71V30.518ZM179.236 25.856H181.07V26.892C181.07 28.012 181.07 29.216 180.678 30.896L178.83 30.868C179.236 29.188 179.236 27.998 179.236 26.892V25.856ZM172.082 33.36H181.014V38.106H172.082V33.36ZM179.18 34.802H173.902V36.636H179.18V34.802ZM192.003 25.282H193.851V38.246H192.003V25.282ZM193.431 30.336H195.727V31.89H193.431V30.336ZM183.631 27.2H191.177V28.684H183.631V27.2ZM187.425 29.412C189.315 29.412 190.715 30.7 190.715 32.506C190.715 34.312 189.315 35.6 187.425 35.6C185.535 35.6 184.135 34.312 184.135 32.506C184.135 30.7 185.535 29.412 187.425 29.412ZM187.425 30.924C186.543 30.924 185.913 31.512 185.913 32.506C185.913 33.5 186.543 34.088 187.425 34.088C188.307 34.088 188.937 33.5 188.937 32.506C188.937 31.512 188.307 30.924 187.425 30.924ZM186.487 25.492H188.349V27.76H186.487V25.492ZM205.582 25.296H207.458V34.746H205.582V25.296ZM198.82 36.538H207.78V38.022H198.82V36.538ZM198.82 33.836H200.682V37.308H198.82V33.836ZM199.716 25.996H201.256V27.256C201.256 29.79 200.094 32.128 197.574 33.01L196.636 31.526C198.806 30.784 199.716 28.978 199.716 27.256V25.996ZM200.094 25.996H201.62V27.256C201.62 28.95 202.502 30.616 204.63 31.302L203.678 32.786C201.228 31.96 200.094 29.762 200.094 27.256V25.996ZM217.957 25.268H219.833V38.232H217.957V25.268ZM219.343 30.224H221.625V31.75H219.343V30.224ZM214.555 26.612H216.375C216.375 30.504 214.891 33.836 210.579 36.006L209.543 34.592C212.945 32.828 214.555 30.448 214.555 26.934V26.612ZM210.257 26.612H215.507V28.11H210.257V26.612ZM225.25 31.862H227.098V35.502H225.25V31.862ZM229.954 31.862H231.816V35.502H229.954V31.862ZM222.674 35.236H234.406V36.748H222.674V35.236ZM228.526 25.912C231.312 25.912 233.37 27.284 233.37 29.398C233.37 31.512 231.312 32.87 228.526 32.87C225.726 32.87 223.682 31.512 223.682 29.398C223.682 27.284 225.726 25.912 228.526 25.912ZM228.526 27.368C226.72 27.368 225.516 28.11 225.516 29.398C225.516 30.672 226.72 31.428 228.526 31.428C230.332 31.428 231.536 30.672 231.536 29.398C231.536 28.11 230.332 27.368 228.526 27.368ZM238.829 26.626C239.828 26.626 240.626 26.8873 241.223 27.41C241.83 27.9327 242.133 28.67 242.133 29.622C242.133 30.4993 241.844 31.1853 241.265 31.68C240.696 32.1653 239.94 32.4127 238.997 32.422L238.927 33.472H236.827L236.757 30.868H237.597C238.316 30.868 238.862 30.7793 239.235 30.602C239.618 30.4247 239.809 30.1027 239.809 29.636C239.809 29.3093 239.72 29.0527 239.543 28.866C239.366 28.6793 239.118 28.586 238.801 28.586C238.465 28.586 238.204 28.684 238.017 28.88C237.83 29.0667 237.737 29.3233 237.737 29.65H235.483C235.464 29.0807 235.581 28.5673 235.833 28.11C236.094 27.6527 236.477 27.2933 236.981 27.032C237.494 26.7613 238.11 26.626 238.829 26.626ZM237.905 37.112C237.485 37.112 237.14 36.9907 236.869 36.748C236.608 36.496 236.477 36.188 236.477 35.824C236.477 35.4507 236.608 35.138 236.869 34.886C237.14 34.634 237.485 34.508 237.905 34.508C238.316 34.508 238.652 34.634 238.913 34.886C239.184 35.138 239.319 35.4507 239.319 35.824C239.319 36.188 239.184 36.496 238.913 36.748C238.652 36.9907 238.316 37.112 237.905 37.112Z" fill="white"/>
<path d="M24.336 58.268H26.736V59.096H24.336V58.268ZM20.28 62.264H27.516V65.948H26.52V63.08H20.28V62.264ZM26.52 55.088H27.516V61.688H26.52V55.088ZM21.3 57.02H22.116V57.476C22.116 59.384 20.916 60.968 19.104 61.592L18.624 60.812C20.22 60.272 21.3 58.94 21.3 57.476V57.02ZM21.48 57.02H22.296V57.476C22.296 58.856 23.4 60.116 24.996 60.608L24.528 61.388C22.704 60.812 21.48 59.288 21.48 57.476V57.02ZM18.9 56.396H24.684V57.2H18.9V56.396ZM21.3 55.04H22.296V56.816H21.3V55.04ZM35.4231 58.268H37.8231V59.096H35.4231V58.268ZM31.3671 62.264H38.6031V65.948H37.6071V63.08H31.3671V62.264ZM37.6071 55.088H38.6031V61.688H37.6071V55.088ZM32.3871 57.02H33.2031V57.476C33.2031 59.384 32.0031 60.968 30.1911 61.592L29.7111 60.812C31.3071 60.272 32.3871 58.94 32.3871 57.476V57.02ZM32.5671 57.02H33.3831V57.476C33.3831 58.856 34.4871 60.116 36.0831 60.608L35.6151 61.388C33.7911 60.812 32.5671 59.288 32.5671 57.476V57.02ZM29.9871 56.396H35.7711V57.2H29.9871V56.396ZM32.3871 55.04H33.3831V56.816H32.3871V55.04ZM48.8861 56.732H50.7701V57.572H48.8861V56.732ZM48.8861 59.06H50.7701V59.888H48.8861V59.06ZM48.1901 55.088H49.1861V61.532H48.1901V55.088ZM42.1421 62.048H49.1861V65.936H48.1901V62.852H42.1421V62.048ZM43.7981 55.724C45.4301 55.724 46.6301 56.78 46.6301 58.304C46.6301 59.816 45.4301 60.86 43.7981 60.86C42.1661 60.86 40.9661 59.816 40.9661 58.304C40.9661 56.78 42.1661 55.724 43.7981 55.724ZM43.7981 56.576C42.7181 56.576 41.9381 57.272 41.9381 58.304C41.9381 59.324 42.7181 60.032 43.7981 60.032C44.8781 60.032 45.6581 59.324 45.6581 58.304C45.6581 57.272 44.8781 56.576 43.7981 56.576ZM54.5132 56.024H55.3292V57.968C55.3292 60.368 54.0332 62.708 52.3172 63.62L51.7052 62.828C53.2772 62.036 54.5132 59.948 54.5132 57.968V56.024ZM54.6932 56.024H55.4972V57.968C55.4972 59.876 56.7092 61.856 58.2452 62.624L57.6332 63.416C55.9532 62.516 54.6932 60.296 54.6932 57.968V56.024ZM59.1932 55.088H60.2012V65.936H59.1932V55.088ZM59.9612 59.48H61.9772V60.32H59.9612V59.48ZM64.2683 58.34H71.6363V59.156H64.2683V58.34ZM62.9363 60.608H72.7763V61.424H62.9363V60.608ZM64.2683 55.484H65.2523V58.748H64.2683V55.484ZM64.1963 64.856H71.6963V65.672H64.1963V64.856ZM64.1963 62.504H65.1803V65.072H64.1963V62.504ZM84.7623 56.396H86.6823V57.704H84.7623V56.396ZM84.7623 58.808H86.6823V60.116H84.7623V58.808ZM83.6583 54.956H85.2543V61.508H83.6583V54.956ZM77.8383 61.964H85.2543V66.068H83.6583V63.236H77.8383V61.964ZM79.6023 55.556C81.3183 55.556 82.6263 56.696 82.6263 58.28C82.6263 59.864 81.3183 60.992 79.6023 60.992C77.8863 60.992 76.5783 59.864 76.5783 58.28C76.5783 56.696 77.8863 55.556 79.6023 55.556ZM79.6023 56.912C78.7623 56.912 78.1383 57.404 78.1383 58.28C78.1383 59.156 78.7623 59.66 79.6023 59.66C80.4423 59.66 81.0663 59.156 81.0663 58.28C81.0663 57.404 80.4423 56.912 79.6023 56.912ZM90.3163 58.712C90.3483 57.856 90.6283 57.196 91.1563 56.732C91.6843 56.268 92.4003 56.036 93.3043 56.036C93.9043 56.036 94.4163 56.14 94.8403 56.348C95.2723 56.556 95.5963 56.84 95.8123 57.2C96.0363 57.56 96.1483 57.964 96.1483 58.412C96.1483 58.94 96.0163 59.372 95.7523 59.708C95.4883 60.036 95.1803 60.26 94.8283 60.38V60.428C95.2843 60.58 95.6443 60.832 95.9083 61.184C96.1723 61.536 96.3043 61.988 96.3043 62.54C96.3043 63.036 96.1883 63.476 95.9563 63.86C95.7323 64.236 95.4003 64.532 94.9603 64.748C94.5283 64.964 94.0123 65.072 93.4123 65.072C92.4523 65.072 91.6843 64.836 91.1083 64.364C90.5403 63.892 90.2403 63.18 90.2083 62.228H92.2003C92.2083 62.58 92.3083 62.86 92.5003 63.068C92.6923 63.268 92.9723 63.368 93.3403 63.368C93.6523 63.368 93.8923 63.28 94.0603 63.104C94.2363 62.92 94.3243 62.68 94.3243 62.384C94.3243 62 94.2003 61.724 93.9523 61.556C93.7123 61.38 93.3243 61.292 92.7883 61.292H92.4043V59.624H92.7883C93.1963 59.624 93.5243 59.556 93.7723 59.42C94.0283 59.276 94.1563 59.024 94.1563 58.664C94.1563 58.376 94.0763 58.152 93.9163 57.992C93.7563 57.832 93.5363 57.752 93.2563 57.752C92.9523 57.752 92.7243 57.844 92.5723 58.028C92.4283 58.212 92.3443 58.44 92.3203 58.712H90.3163ZM97.5579 60.5C97.5579 59.124 97.8219 58.04 98.3499 57.248C98.8859 56.456 99.7459 56.06 100.93 56.06C102.114 56.06 102.97 56.456 103.498 57.248C104.034 58.04 104.302 59.124 104.302 60.5C104.302 61.892 104.034 62.984 103.498 63.776C102.97 64.568 102.114 64.964 100.93 64.964C99.7459 64.964 98.8859 64.568 98.3499 63.776C97.8219 62.984 97.5579 61.892 97.5579 60.5ZM102.286 60.5C102.286 59.692 102.198 59.072 102.022 58.64C101.846 58.2 101.482 57.98 100.93 57.98C100.378 57.98 100.014 58.2 99.8379 58.64C99.6619 59.072 99.5739 59.692 99.5739 60.5C99.5739 61.044 99.6059 61.496 99.6699 61.856C99.7339 62.208 99.8619 62.496 100.054 62.72C100.254 62.936 100.546 63.044 100.93 63.044C101.314 63.044 101.602 62.936 101.794 62.72C101.994 62.496 102.126 62.208 102.19 61.856C102.254 61.496 102.286 61.044 102.286 60.5ZM113.366 54.956H114.89V66.068H113.366V54.956ZM111.962 59.144H113.798V60.416H111.962V59.144ZM108.65 56.312H110.174C110.174 59.444 109.262 61.976 106.154 63.788L105.23 62.684C107.762 61.184 108.65 59.312 108.65 56.648V56.312ZM105.794 56.312H109.118V57.596H105.794V56.312ZM110.906 55.244H112.394V65.588H110.906V55.244ZM120.037 55.688C121.789 55.688 123.097 56.828 123.097 58.424C123.097 60.032 121.789 61.172 120.037 61.172C118.297 61.172 116.965 60.032 116.965 58.424C116.965 56.828 118.297 55.688 120.037 55.688ZM120.037 57.056C119.185 57.056 118.537 57.56 118.537 58.424C118.537 59.3 119.185 59.804 120.037 59.804C120.889 59.804 121.537 59.3 121.537 58.424C121.537 57.56 120.889 57.056 120.037 57.056ZM124.141 54.944H125.737V66.092H124.141V54.944ZM116.701 63.836L116.509 62.552C118.465 62.552 121.189 62.528 123.529 62.18L123.649 63.332C121.237 63.812 118.621 63.836 116.701 63.836ZM138.167 54.956H139.679V66.068H138.167V54.956ZM134.507 58.748H136.343V60.044H134.507V58.748ZM135.923 55.136H137.411V65.564H135.923V55.136ZM132.107 56.768H133.307V57.908C133.307 60.404 132.623 62.888 130.859 63.992L129.911 62.816C131.543 61.796 132.107 59.804 132.107 57.908V56.768ZM132.467 56.768H133.655V57.908C133.655 59.756 134.207 61.628 135.815 62.564L134.879 63.728C133.115 62.684 132.467 60.356 132.467 57.908V56.768ZM130.331 56.072H135.287V57.356H130.331V56.072ZM149.482 56.396H151.402V57.704H149.482V56.396ZM149.482 58.808H151.402V60.116H149.482V58.808ZM148.378 54.956H149.974V61.508H148.378V54.956ZM142.558 61.964H149.974V66.068H148.378V63.236H142.558V61.964ZM144.322 55.556C146.038 55.556 147.346 56.696 147.346 58.28C147.346 59.864 146.038 60.992 144.322 60.992C142.606 60.992 141.298 59.864 141.298 58.28C141.298 56.696 142.606 55.556 144.322 55.556ZM144.322 56.912C143.482 56.912 142.858 57.404 142.858 58.28C142.858 59.156 143.482 59.66 144.322 59.66C145.162 59.66 145.786 59.156 145.786 58.28C145.786 57.404 145.162 56.912 144.322 56.912ZM154.809 55.808H156.105V57.428C156.105 60.176 155.145 62.756 153.045 63.788L152.085 62.504C153.957 61.628 154.809 59.492 154.809 57.428V55.808ZM155.133 55.808H156.405V57.428C156.405 59.42 157.197 61.448 158.973 62.312L158.013 63.584C156.009 62.564 155.133 60.092 155.133 57.428V55.808ZM159.417 54.956H161.025V66.068H159.417V54.956ZM160.665 59.228H162.633V60.56H160.665V59.228ZM167.036 55.868C168.728 55.868 169.94 56.912 169.94 58.424C169.94 59.948 168.728 60.992 167.036 60.992C165.344 60.992 164.12 59.948 164.12 58.424C164.12 56.912 165.344 55.868 167.036 55.868ZM167.036 56.732C165.908 56.732 165.092 57.416 165.092 58.424C165.092 59.432 165.908 60.128 167.036 60.128C168.152 60.128 168.968 59.432 168.968 58.424C168.968 57.416 168.152 56.732 167.036 56.732ZM171.356 55.076H172.352V65.948H171.356V55.076ZM163.712 63.572L163.568 62.744C165.548 62.744 168.284 62.732 170.648 62.36L170.732 63.092C168.296 63.56 165.644 63.572 163.712 63.572ZM182.715 61.928C185.019 61.928 186.495 62.684 186.495 63.932C186.495 65.168 185.019 65.912 182.715 65.912C180.399 65.912 178.935 65.168 178.935 63.932C178.935 62.684 180.399 61.928 182.715 61.928ZM182.715 62.708C181.011 62.708 179.919 63.176 179.919 63.932C179.919 64.676 181.011 65.144 182.715 65.144C184.419 65.144 185.499 64.676 185.499 63.932C185.499 63.176 184.419 62.708 182.715 62.708ZM179.019 55.628H186.003V56.444H179.019V55.628ZM177.855 60.14H187.647V60.944H177.855V60.14ZM181.875 58.052H182.859V60.368H181.875V58.052ZM185.427 55.628H186.399V56.552C186.399 57.428 186.399 58.304 186.111 59.432L185.127 59.312C185.427 58.196 185.427 57.404 185.427 56.552V55.628ZM190.214 61.292H191.198V62.72H196.502V61.292H197.498V65.792H190.214V61.292ZM191.198 63.512V64.988H196.502V63.512H191.198ZM190.19 55.58H197.174V56.396H190.19V55.58ZM188.942 59.504H198.77V60.332H188.942V59.504ZM196.526 55.58H197.498V56.372C197.498 57.26 197.498 58.28 197.162 59.732L196.166 59.744C196.526 58.292 196.526 57.26 196.526 56.372V55.58ZM207.949 55.1H208.945V63.368H207.949V55.1ZM206.113 57.968H208.369V58.784H206.113V57.968ZM206.113 60.26H208.369V61.064H206.113V60.26ZM200.041 56.408H206.113V57.212H200.041V56.408ZM203.113 57.812C204.553 57.812 205.561 58.64 205.561 59.888C205.561 61.124 204.553 61.964 203.113 61.964C201.661 61.964 200.653 61.124 200.653 59.888C200.653 58.64 201.661 57.812 203.113 57.812ZM203.113 58.592C202.213 58.592 201.601 59.12 201.601 59.888C201.601 60.656 202.213 61.172 203.113 61.172C204.013 61.172 204.625 60.656 204.625 59.888C204.625 59.12 204.013 58.592 203.113 58.592ZM202.621 55.076H203.617V56.924H202.621V55.076ZM201.973 64.88H209.209V65.696H201.973V64.88ZM201.973 62.66H202.969V65.276H201.973V62.66ZM218.52 55.1H219.516V62.444H218.52V55.1ZM219.096 58.352H221.1V59.192H219.096V58.352ZM216.036 62.588C218.292 62.588 219.6 63.176 219.6 64.256C219.6 65.336 218.292 65.924 216.036 65.924C213.792 65.924 212.484 65.336 212.484 64.256C212.484 63.176 213.792 62.588 216.036 62.588ZM216.036 63.332C214.392 63.332 213.48 63.656 213.48 64.256C213.48 64.856 214.392 65.18 216.036 65.18C217.668 65.18 218.592 64.856 218.592 64.256C218.592 63.656 217.668 63.332 216.036 63.332ZM213.948 60.02H214.944V61.508H213.948V60.02ZM211.176 61.964L211.044 61.172C212.988 61.172 215.652 61.148 217.872 60.824L217.956 61.52C215.652 61.94 213.072 61.964 211.176 61.964ZM211.32 56.024H217.548V56.768H211.32V56.024ZM214.44 57.224C215.976 57.224 216.96 57.8 216.96 58.76C216.96 59.72 215.976 60.296 214.44 60.296C212.904 60.296 211.908 59.72 211.908 58.76C211.908 57.8 212.904 57.224 214.44 57.224ZM214.44 57.896C213.468 57.896 212.844 58.232 212.844 58.76C212.844 59.3 213.468 59.624 214.44 59.624C215.412 59.624 216.024 59.3 216.024 58.76C216.024 58.232 215.412 57.896 214.44 57.896ZM213.948 55.004H214.944V56.3H213.948V55.004ZM227.099 55.268C229.487 55.268 230.915 55.94 230.915 57.152C230.915 58.364 229.487 59.036 227.099 59.036C224.699 59.036 223.283 58.364 223.283 57.152C223.283 55.94 224.699 55.268 227.099 55.268ZM227.099 56.024C225.323 56.024 224.303 56.432 224.303 57.152C224.303 57.872 225.323 58.28 227.099 58.28C228.863 58.28 229.883 57.872 229.883 57.152C229.883 56.432 228.863 56.024 227.099 56.024ZM222.191 59.756H231.995V60.56H222.191V59.756ZM223.379 61.484H230.747V63.932H224.387V65.252H223.403V63.212H229.763V62.252H223.379V61.484ZM223.403 65.036H231.071V65.816H223.403V65.036ZM236.525 60.836H246.329V61.64H236.525V60.836ZM240.929 59.432H241.913V61.172H240.929V59.432ZM237.821 58.988H245.177V59.768H237.821V58.988ZM237.821 55.4H245.129V56.18H238.805V59.408H237.821V55.4ZM238.517 57.176H244.841V57.944H238.517V57.176ZM241.421 62.444C243.785 62.444 245.141 63.044 245.141 64.184C245.141 65.312 243.785 65.912 241.421 65.912C239.057 65.912 237.701 65.312 237.701 64.184C237.701 63.044 239.057 62.444 241.421 62.444ZM241.421 63.2C239.681 63.2 238.709 63.548 238.709 64.184C238.709 64.832 239.681 65.168 241.421 65.168C243.161 65.168 244.133 64.832 244.133 64.184C244.133 63.548 243.161 63.2 241.421 63.2ZM247.6 56.936H252.976V57.752H247.6V56.936ZM250.288 58.472C251.644 58.472 252.628 59.492 252.628 60.956C252.628 62.408 251.644 63.428 250.288 63.428C248.944 63.428 247.96 62.408 247.96 60.956C247.96 59.492 248.944 58.472 250.288 58.472ZM250.288 59.324C249.46 59.324 248.86 59.996 248.86 60.956C248.86 61.916 249.46 62.588 250.288 62.588C251.128 62.588 251.74 61.916 251.74 60.956C251.74 59.996 251.128 59.324 250.288 59.324ZM255.844 55.088H256.804V65.936H255.844V55.088ZM254.116 59.648H256.168V60.476H254.116V59.648ZM253.528 55.328H254.464V65.408H253.528V55.328ZM249.808 55.4H250.792V57.44H249.808V55.4ZM260.163 63.488L258.819 66.716H258.087L258.963 63.488H260.163ZM23.484 73.5H26.76V74.328H23.484V73.5ZM23.484 76.932H26.76V77.76H23.484V76.932ZM21.492 71.916C23.064 71.916 24.192 73.392 24.192 75.696C24.192 78.012 23.064 79.488 21.492 79.488C19.908 79.488 18.792 78.012 18.792 75.696C18.792 73.392 19.908 71.916 21.492 71.916ZM21.492 72.816C20.448 72.816 19.728 73.944 19.728 75.696C19.728 77.46 20.448 78.612 21.492 78.612C22.536 78.612 23.256 77.46 23.256 75.696C23.256 73.944 22.536 72.816 21.492 72.816ZM26.544 71.076H27.528V81.948H26.544V71.076ZM37.6071 71.076H38.6031V81.948H37.6071V71.076ZM35.5431 75.252H37.8471V76.068H35.5431V75.252ZM30.0831 78.516H30.9111C32.8311 78.516 34.1871 78.456 35.7831 78.168L35.8791 78.996C34.2471 79.284 32.8671 79.356 30.9111 79.356H30.0831V78.516ZM30.0591 72.096H34.9071V75.9H31.0671V78.768H30.0831V75.084H33.9231V72.912H30.0591V72.096ZM40.7621 76.812H50.5901V77.628H40.7621V76.812ZM45.2501 77.22H46.2461V79.716H45.2501V77.22ZM42.0101 80.88H49.4981V81.696H42.0101V80.88ZM42.0101 78.756H42.9941V81.192H42.0101V78.756ZM42.0701 71.424H43.0541V72.804H48.2981V71.424H49.2941V75.768H42.0701V71.424ZM43.0541 73.584V74.964H48.2981V73.584H43.0541ZM55.3772 71.868C57.0692 71.868 58.2812 72.912 58.2812 74.424C58.2812 75.948 57.0692 76.992 55.3772 76.992C53.6852 76.992 52.4612 75.948 52.4612 74.424C52.4612 72.912 53.6852 71.868 55.3772 71.868ZM55.3772 72.732C54.2492 72.732 53.4332 73.416 53.4332 74.424C53.4332 75.432 54.2492 76.128 55.3772 76.128C56.4932 76.128 57.3092 75.432 57.3092 74.424C57.3092 73.416 56.4932 72.732 55.3772 72.732ZM59.6972 71.076H60.6932V81.948H59.6972V71.076ZM52.0532 79.572L51.9092 78.744C53.8892 78.744 56.6252 78.732 58.9892 78.36L59.0732 79.092C56.6372 79.56 53.9852 79.572 52.0532 79.572ZM69.7355 71.592C71.3555 71.592 72.5075 72.492 72.5075 73.824C72.5075 75.144 71.3555 76.068 69.7355 76.068C68.1275 76.068 66.9755 75.144 66.9755 73.824C66.9755 72.492 68.1275 71.592 69.7355 71.592ZM69.7355 72.42C68.6795 72.42 67.9235 72.996 67.9235 73.824C67.9235 74.664 68.6795 75.228 69.7355 75.228C70.7915 75.228 71.5475 74.664 71.5475 73.824C71.5475 72.996 70.7915 72.42 69.7355 72.42ZM69.2915 77.268H70.2875V81.6H69.2915V77.268ZM74.0915 71.088H75.0755V81.948H74.0915V71.088ZM66.3035 77.808L66.1715 76.968C68.1875 76.968 70.9355 76.944 73.3235 76.584L73.3955 77.328C70.9475 77.772 68.2835 77.808 66.3035 77.808ZM85.1665 71.088H86.1625V81.936H85.1665V71.088ZM80.2825 73.668H81.0865V74.592C81.0865 76.908 79.7785 79.008 78.0385 79.848L77.4745 79.08C79.0825 78.336 80.2825 76.488 80.2825 74.592V73.668ZM80.4745 73.668H81.2665V74.592C81.2665 76.404 82.5025 78.168 84.1225 78.876L83.5585 79.656C81.8065 78.864 80.4745 76.836 80.4745 74.592V73.668ZM77.7745 72.972H83.7505V73.776H77.7745V72.972ZM80.2825 71.28H81.2785V73.416H80.2825V71.28ZM94.1536 73.896H96.6016V74.724H94.1536V73.896ZM96.2896 71.088H97.2856V77.556H96.2896V71.088ZM93.7216 77.88C95.9536 77.88 97.3336 78.636 97.3336 79.908C97.3336 81.192 95.9536 81.924 93.7216 81.924C91.4776 81.924 90.0976 81.192 90.0976 79.908C90.0976 78.636 91.4776 77.88 93.7216 77.88ZM93.7216 78.66C92.0896 78.66 91.0936 79.116 91.0936 79.908C91.0936 80.688 92.0896 81.144 93.7216 81.144C95.3536 81.144 96.3496 80.688 96.3496 79.908C96.3496 79.116 95.3536 78.66 93.7216 78.66ZM91.1296 72.18H91.9456V73.056C91.9456 75.06 90.7216 76.776 88.9216 77.448L88.4056 76.656C90.0136 76.068 91.1296 74.616 91.1296 73.056V72.18ZM91.3216 72.18H92.1256V73.056C92.1256 74.46 93.1816 75.804 94.7536 76.356L94.2496 77.148C92.4856 76.512 91.3216 74.88 91.3216 73.056V72.18ZM88.7056 71.88H94.5016V72.696H88.7056V71.88ZM99.4567 79.728H109.285V80.556H99.4567V79.728ZM103.849 77.136H104.845V79.968H103.849V77.136ZM100.609 71.856H101.593V73.788H107.125V71.856H108.109V77.4H100.609V71.856ZM101.593 74.592V76.584H107.125V74.592H101.593ZM114.936 75.3H116.988V76.128H114.936V75.3ZM118.8 71.088H119.76V81.936H118.8V71.088ZM116.652 71.316H117.6V81.396H116.652V71.316ZM112.98 71.988C114.384 71.988 115.296 73.44 115.296 75.768C115.296 78.096 114.384 79.548 112.98 79.548C111.576 79.548 110.676 78.096 110.676 75.768C110.676 73.44 111.576 71.988 112.98 71.988ZM112.98 72.912C112.128 72.912 111.588 74.016 111.588 75.768C111.588 77.52 112.128 78.624 112.98 78.624C113.844 78.624 114.384 77.52 114.384 75.768C114.384 74.016 113.844 72.912 112.98 72.912ZM132.774 71.088H133.77V81.936H132.774V71.088ZM129.594 72.252H130.578C130.578 75.396 129.162 78.144 125.538 79.92L125.01 79.116C128.142 77.604 129.594 75.3 129.594 72.42V72.252ZM125.502 72.252H130.026V73.068H125.502V72.252ZM143.381 71.1H144.377V79.056H143.381V71.1ZM144.065 74.376H145.985V75.204H144.065V74.376ZM137.621 80.88H144.869V81.696H137.621V80.88ZM137.621 78.288H138.617V81.072H137.621V78.288ZM136.409 71.868H137.393V73.68H140.453V71.868H141.425V77.244H136.409V71.868ZM137.393 74.46V76.44H140.453V74.46H137.393ZM154.468 71.1H155.464V79.236H154.468V71.1ZM155.152 74.652H157.072V75.492H155.152V74.652ZM147.076 72.408H153.484V73.212H147.076V72.408ZM150.28 73.812C151.816 73.812 152.872 74.616 152.872 75.84C152.872 77.052 151.816 77.856 150.28 77.856C148.732 77.856 147.676 77.052 147.676 75.84C147.676 74.616 148.732 73.812 150.28 73.812ZM150.28 74.592C149.296 74.592 148.624 75.084 148.624 75.84C148.624 76.584 149.296 77.076 150.28 77.076C151.252 77.076 151.924 76.584 151.924 75.84C151.924 75.084 151.252 74.592 150.28 74.592ZM149.776 71.088H150.772V72.828H149.776V71.088ZM148.708 80.88H155.956V81.696H148.708V80.88ZM148.708 78.588H149.704V81.228H148.708V78.588ZM168.37 70.944H169.978V82.056H168.37V70.944ZM169.558 75.192H171.514V76.5H169.558V75.192ZM165.454 72.096H167.014C167.014 75.432 165.742 78.288 162.046 80.148L161.158 78.936C164.074 77.424 165.454 75.384 165.454 72.372V72.096ZM161.77 72.096H166.27V73.38H161.77V72.096ZM179.589 70.956H181.185V82.068H179.589V70.956ZM180.693 75.3H182.625V76.62H180.693V75.3ZM174.141 72.084H175.629C175.629 75.168 175.341 77.532 173.373 79.74L172.125 78.84C173.841 76.944 174.141 75.096 174.141 72.276V72.084ZM172.617 72.084H174.765V73.38H172.617V72.084ZM177.201 72.084H178.689C178.689 75.312 178.425 78.036 176.493 80.448L175.245 79.56C176.925 77.436 177.201 75.3 177.201 72.264V72.084ZM176.001 72.084H177.861V73.38H176.001V72.084ZM183.441 76.356H193.509V77.616H183.441V76.356ZM187.749 77.184H189.369V79.524H187.749V77.184ZM184.617 80.592H192.405V81.876H184.617V80.592ZM184.617 78.552H186.225V80.916H184.617V78.552ZM188.469 71.16C190.857 71.16 192.465 72.06 192.465 73.464C192.465 74.88 190.857 75.768 188.469 75.768C186.069 75.768 184.473 74.88 184.473 73.464C184.473 72.06 186.069 71.16 188.469 71.16ZM188.469 72.42C187.065 72.42 186.189 72.78 186.189 73.464C186.189 74.148 187.065 74.496 188.469 74.496C189.873 74.496 190.749 74.148 190.749 73.464C190.749 72.78 189.873 72.42 188.469 72.42ZM205.375 72.396H207.295V73.704H205.375V72.396ZM205.375 74.808H207.295V76.116H205.375V74.808ZM204.271 70.956H205.867V77.508H204.271V70.956ZM198.451 77.964H205.867V82.068H204.271V79.236H198.451V77.964ZM200.215 71.556C201.931 71.556 203.239 72.696 203.239 74.28C203.239 75.864 201.931 76.992 200.215 76.992C198.499 76.992 197.191 75.864 197.191 74.28C197.191 72.696 198.499 71.556 200.215 71.556ZM200.215 72.912C199.375 72.912 198.751 73.404 198.751 74.28C198.751 75.156 199.375 75.66 200.215 75.66C201.055 75.66 201.679 75.156 201.679 74.28C201.679 73.404 201.055 72.912 200.215 72.912ZM209.442 71.424H216.486V72.696H209.442V71.424ZM208.218 75.264H218.274V76.536H208.218V75.264ZM212.43 76.164H214.026V78.492H212.43V76.164ZM215.526 71.424H217.098V72.312C217.098 73.272 217.098 74.388 216.75 75.852L215.178 75.696C215.526 74.268 215.526 73.248 215.526 72.312V71.424ZM209.226 78.096H217.11V82.068H215.514V79.356H209.226V78.096ZM224.309 71.268C226.697 71.268 228.125 71.94 228.125 73.152C228.125 74.364 226.697 75.036 224.309 75.036C221.909 75.036 220.493 74.364 220.493 73.152C220.493 71.94 221.909 71.268 224.309 71.268ZM224.309 72.024C222.533 72.024 221.513 72.432 221.513 73.152C221.513 73.872 222.533 74.28 224.309 74.28C226.073 74.28 227.093 73.872 227.093 73.152C227.093 72.432 226.073 72.024 224.309 72.024ZM219.401 75.756H229.205V76.56H219.401V75.756ZM220.589 77.484H227.957V79.932H221.597V81.252H220.613V79.212H226.973V78.252H220.589V77.484ZM220.613 81.036H228.281V81.816H220.613V81.036ZM238.151 77.988H239.135V81.948H238.151V77.988ZM233.747 77.64H243.551V78.468H233.747V77.64ZM238.139 72.948H239.015V73.224C239.015 75.096 236.987 76.476 234.707 76.824L234.359 76.032C236.315 75.768 238.139 74.58 238.139 73.224V72.948ZM238.271 72.948H239.135V73.224C239.135 74.568 240.971 75.768 242.915 76.032L242.555 76.824C240.287 76.488 238.271 75.072 238.271 73.224V72.948ZM234.695 72.42H242.603V73.236H234.695V72.42ZM238.151 71.088H239.135V72.708H238.151V71.088ZM247.534 73.128H248.35V73.668C248.35 75.624 247.162 77.232 245.35 77.868L244.858 77.088C246.466 76.536 247.534 75.192 247.534 73.668V73.128ZM247.702 73.128H248.53V73.668C248.53 75.108 249.634 76.38 251.242 76.884L250.75 77.676C248.938 77.076 247.702 75.54 247.702 73.668V73.128ZM245.134 72.54H250.918V73.344H245.134V72.54ZM247.534 71.16H248.53V72.84H247.534V71.16ZM250.558 74.424H253.294V75.252H250.558V74.424ZM252.754 71.1H253.75V79.188H252.754V71.1ZM246.826 80.88H254.05V81.696H246.826V80.88ZM246.826 78.468H247.822V81.324H246.826V78.468ZM263.337 71.088H264.333V77.388H263.337V71.088ZM263.901 73.848H265.941V74.688H263.901V73.848ZM257.517 77.868H258.489V79.02H263.349V77.868H264.333V81.792H257.517V77.868ZM258.489 79.788V80.988H263.349V79.788H258.489ZM255.945 72.192H262.353V73.008H255.945V72.192ZM259.149 73.5C260.697 73.5 261.741 74.256 261.741 75.408C261.741 76.56 260.697 77.316 259.149 77.316C257.589 77.316 256.545 76.56 256.545 75.408C256.545 74.256 257.589 73.5 259.149 73.5ZM259.149 74.256C258.153 74.256 257.493 74.712 257.493 75.408C257.493 76.104 258.153 76.56 259.149 76.56C260.121 76.56 260.793 76.104 260.793 75.408C260.793 74.712 260.121 74.256 259.149 74.256ZM258.645 70.98H259.641V72.636H258.645V70.98ZM274.892 71.088H275.888V81.936H274.892V71.088ZM267.692 72.144H268.676V78.864H267.692V72.144ZM267.692 78.276H268.58C270.224 78.276 271.94 78.156 273.776 77.772L273.896 78.624C272.012 79.008 270.296 79.14 268.58 79.14H267.692V78.276ZM285.427 71.076H286.435V81.948H285.427V71.076ZM286.195 75.36H288.211V76.2H286.195V75.36ZM278.551 78.408H279.403C281.407 78.408 282.811 78.336 284.431 78.036L284.539 78.876C282.871 79.188 281.443 79.248 279.403 79.248H278.551V78.408ZM278.551 72.132H283.591V72.948H279.535V78.78H278.551V72.132ZM289.854 81.072C289.646 81.072 289.47 81 289.326 80.856C289.182 80.712 289.11 80.536 289.11 80.328C289.11 80.12 289.182 79.944 289.326 79.8C289.47 79.656 289.646 79.584 289.854 79.584C290.054 79.584 290.222 79.656 290.358 79.8C290.502 79.944 290.574 80.12 290.574 80.328C290.574 80.536 290.502 80.712 290.358 80.856C290.222 81 290.054 81.072 289.854 81.072Z" fill="white"/>
<defs>
<clipPath id="clip0_1504_4229">
<rect width="307" height="140" fill="white"/>
</clipPath>
</defs>
</svg>
