<svg width="307" height="140" viewBox="0 0 307 140" fill="none" xmlns="http://www.w3.org/2000/svg">
<rect x="5" width="302" height="140" rx="20" fill="#67DBD4"/>
<g clip-path="url(#clip0_1504_4229)">
<rect x="0.668577" y="0.840181" width="94.4738" height="111.89" rx="15.25" transform="matrix(0.992116 0.125323 -0.10068 0.994919 248.484 73.9205)" stroke="white" stroke-opacity="0.2" stroke-width="1.5"/>
<rect x="0.668577" y="0.840181" width="94.1717" height="91.514" rx="15.25" transform="matrix(0.992116 0.125323 -0.10068 0.994919 224.654 100.791)" stroke="white" stroke-opacity="0.2" stroke-width="1.5"/>
<rect x="0.668577" y="0.840181" width="94.1717" height="93.6136" rx="15.25" transform="matrix(0.992116 0.125323 -0.10068 0.994919 264.937 89.942)" stroke="white" stroke-opacity="0.2" stroke-width="1.5"/>
</g>
<path d="M28.192 26.962H30.432V28.488H28.192V26.962ZM28.192 29.776H30.432V31.302H28.192V29.776ZM26.904 25.282H28.766V32.926H26.904V25.282ZM20.114 33.458H28.766V38.246H26.904V34.942H20.114V33.458ZM22.172 25.982C24.174 25.982 25.7 27.312 25.7 29.16C25.7 31.008 24.174 32.324 22.172 32.324C20.17 32.324 18.644 31.008 18.644 29.16C18.644 27.312 20.17 25.982 22.172 25.982ZM22.172 27.564C21.192 27.564 20.464 28.138 20.464 29.16C20.464 30.182 21.192 30.77 22.172 30.77C23.152 30.77 23.88 30.182 23.88 29.16C23.88 28.138 23.152 27.564 22.172 27.564ZM31.5509 31.54H43.2689V33.01H31.5509V31.54ZM36.4649 30.014H38.3269V31.932H36.4649V30.014ZM37.3889 33.626C40.2029 33.626 41.8829 34.466 41.8829 35.936C41.8829 37.434 40.2029 38.246 37.3889 38.246C34.5749 38.246 32.8949 37.434 32.8949 35.936C32.8949 34.466 34.5749 33.626 37.3889 33.626ZM37.3889 35.026C35.6389 35.026 34.7709 35.306 34.7709 35.936C34.7709 36.58 35.6389 36.86 37.3889 36.86C39.1249 36.86 39.9929 36.58 39.9929 35.936C39.9929 35.306 39.1249 35.026 37.3889 35.026ZM33.0489 25.646H34.8829V26.738H39.9369V25.646H41.7849V30.56H33.0489V25.646ZM34.8829 28.138V29.104H39.9369V28.138H34.8829ZM44.5418 32.968H56.2738V34.48H44.5418V32.968ZM49.4698 33.5H51.3178V38.26H49.4698V33.5ZM45.9978 30.56H55.0558V32.03H45.9978V30.56ZM45.9978 25.8H54.9158V27.256H47.8318V30.91H45.9978V25.8ZM47.3138 28.194H54.6358V29.608H47.3138V28.194ZM57.5327 31.092H69.2787V32.45H57.5327V31.092ZM58.8487 33.094H67.8787V36.174H60.7247V37.28H58.8767V34.998H66.0447V34.354H58.8487V33.094ZM58.8767 36.888H68.2427V38.148H58.8767V36.888ZM58.9747 25.506H67.8507V28.558H60.8367V29.622H58.9887V27.396H66.0167V26.752H58.9747V25.506ZM58.9887 29.23H68.0887V30.49H58.9887V29.23ZM76.6544 27.172H78.0544V27.34C78.0544 28.81 76.8364 30 74.4284 30.28L73.8264 28.964C75.7024 28.768 76.6544 28.082 76.6544 27.34V27.172ZM77.1164 27.172H78.5024V27.34C78.5024 28.054 79.4684 28.684 81.2744 28.866L80.6724 30.196C78.3204 29.916 77.1164 28.768 77.1164 27.34V27.172ZM74.1484 26.164H80.9944V27.494H74.1484V26.164ZM76.6544 29.832H78.5164V31.54H76.6544V29.832ZM76.6544 25.24H78.5024V26.892H76.6544V25.24ZM75.1704 32.87H83.8924V36.118H77.0324V37.406H75.1844V34.858H82.0584V34.214H75.1704V32.87ZM75.1844 36.804H84.3404V38.162H75.1844V36.804ZM82.0304 25.282H83.8924V32.394H82.0304V25.282ZM83.2344 28.026H85.5164V29.538H83.2344V28.026ZM73.7564 32.254L73.5604 30.882C75.8564 30.882 78.8664 30.868 81.4004 30.56L81.5404 31.806C78.9084 32.226 76.0104 32.254 73.7564 32.254ZM92.3333 26.976H96.1693V28.46H92.3333V26.976ZM92.3333 29.846H96.1693V31.344H92.3333V29.846ZM90.1773 25.968C92.1093 25.968 93.5933 27.312 93.5933 29.146C93.5933 30.98 92.1093 32.324 90.1773 32.324C88.2313 32.324 86.7473 30.98 86.7473 29.146C86.7473 27.312 88.2313 25.968 90.1773 25.968ZM90.1773 27.55C89.2253 27.55 88.5253 28.124 88.5253 29.146C88.5253 30.154 89.2253 30.756 90.1773 30.756C91.1293 30.756 91.8293 30.154 91.8293 29.146C91.8293 28.124 91.1293 27.55 90.1773 27.55ZM95.5813 25.282H97.4433V32.87H95.5813V25.282ZM93.0473 33.136C95.7773 33.136 97.4853 34.088 97.4853 35.698C97.4853 37.308 95.7773 38.246 93.0473 38.246C90.3173 38.246 88.6093 37.308 88.6093 35.698C88.6093 34.088 90.3173 33.136 93.0473 33.136ZM93.0473 34.578C91.3533 34.578 90.4433 34.942 90.4433 35.698C90.4433 36.454 91.3533 36.818 93.0473 36.818C94.7553 36.818 95.6513 36.454 95.6513 35.698C95.6513 34.942 94.7553 34.578 93.0473 34.578ZM107.9 25.282H109.748V38.246H107.9V25.282ZM109.328 30.336H111.624V31.89H109.328V30.336ZM99.5282 27.2H107.074V28.684H99.5282V27.2ZM103.322 29.412C105.212 29.412 106.612 30.7 106.612 32.506C106.612 34.312 105.212 35.6 103.322 35.6C101.432 35.6 100.032 34.312 100.032 32.506C100.032 30.7 101.432 29.412 103.322 29.412ZM103.322 30.924C102.44 30.924 101.81 31.512 101.81 32.506C101.81 33.5 102.44 34.088 103.322 34.088C104.204 34.088 104.834 33.5 104.834 32.506C104.834 31.512 104.204 30.924 103.322 30.924ZM102.384 25.492H104.246V27.76H102.384V25.492ZM118.371 27.928H121.899V29.426H118.371V27.928ZM118.371 31.946H121.899V33.444H118.371V31.946ZM116.131 26.178C118.063 26.178 119.477 27.97 119.477 30.798C119.477 33.654 118.063 35.446 116.131 35.446C114.185 35.446 112.785 33.654 112.785 30.798C112.785 27.97 114.185 26.178 116.131 26.178ZM116.131 27.872C115.193 27.872 114.549 28.894 114.549 30.798C114.549 32.73 115.193 33.766 116.131 33.766C117.083 33.766 117.713 32.73 117.713 30.798C117.713 28.894 117.083 27.872 116.131 27.872ZM121.605 25.268H123.453V38.274H121.605V25.268ZM136.989 25.296H138.851V34.984H136.989V25.296ZM138.319 29.244H140.573V30.77H138.319V29.244ZM128.645 26.64H136.275V28.096H128.645V26.64ZM132.467 28.558C134.329 28.558 135.645 29.58 135.645 31.064C135.645 32.548 134.329 33.556 132.467 33.556C130.591 33.556 129.275 32.548 129.275 31.064C129.275 29.58 130.591 28.558 132.467 28.558ZM132.467 29.972C131.641 29.972 131.067 30.364 131.067 31.064C131.067 31.764 131.641 32.142 132.467 32.142C133.293 32.142 133.867 31.764 133.867 31.064C133.867 30.364 133.293 29.972 132.467 29.972ZM131.529 25.268H133.391V27.354H131.529V25.268ZM130.493 36.538H139.313V38.022H130.493V36.538ZM130.493 34.256H132.355V37.182H130.493V34.256ZM147.768 28.726H151.1V30.21H147.768V28.726ZM150.624 25.296H152.486V34.858H150.624V25.296ZM143.904 36.538H152.766V38.022H143.904V36.538ZM143.904 33.92H145.78V37.392H143.904V33.92ZM142.182 26.136H144.03V28.11H146.494V26.136H148.314V32.828H142.182V26.136ZM144.03 29.524V31.358H146.494V29.524H144.03ZM159.807 30.056H161.935V31.554H159.807V30.056ZM163.993 25.282H165.771V38.246H163.993V25.282ZM161.347 25.478H163.097V37.658H161.347V25.478ZM157.539 26.192C159.261 26.192 160.367 27.97 160.367 30.896C160.367 33.836 159.261 35.614 157.539 35.614C155.831 35.614 154.739 33.836 154.739 30.896C154.739 27.97 155.831 26.192 157.539 26.192ZM157.539 27.942C156.839 27.942 156.433 28.922 156.433 30.896C156.433 32.884 156.839 33.85 157.539 33.85C158.267 33.85 158.673 32.884 158.673 30.896C158.673 28.922 158.267 27.942 157.539 27.942ZM171.27 26.22H176.814V27.718H171.27V26.22ZM172.866 29.244H174.714V32.492H172.866V29.244ZM176.086 26.22H177.92V27.032C177.92 27.942 177.92 29.23 177.612 30.84L175.806 30.644C176.086 29.048 176.086 27.928 176.086 27.032V26.22ZM179.18 25.282H181.056V34.984H179.18V25.282ZM180.314 29.23H182.596V30.756H180.314V29.23ZM172.404 36.538H181.462V38.022H172.404V36.538ZM172.404 34.116H174.266V37H172.404V34.116ZM170.682 33.248L170.514 31.778C172.754 31.778 175.876 31.736 178.48 31.372L178.592 32.688C175.918 33.192 172.908 33.248 170.682 33.248ZM192.619 25.268H194.481V38.274H192.619V25.268ZM184.387 33.738H185.535C187.831 33.738 189.665 33.654 191.723 33.304L191.905 34.802C189.805 35.18 187.901 35.25 185.535 35.25H184.387V33.738ZM184.373 26.374H190.491V31.386H186.277V34.298H184.387V29.916H188.587V27.858H184.373V26.374ZM196.664 27.228H202.866V28.712H196.664V27.228ZM199.786 29.286C201.438 29.286 202.628 30.56 202.628 32.38C202.628 34.186 201.438 35.46 199.786 35.46C198.148 35.46 196.944 34.186 196.944 32.38C196.944 30.56 198.148 29.286 199.786 29.286ZM199.786 30.84C199.086 30.84 198.596 31.4 198.596 32.38C198.596 33.36 199.086 33.906 199.786 33.906C200.486 33.906 200.99 33.36 200.99 32.38C200.99 31.4 200.486 30.84 199.786 30.84ZM206.044 25.282H207.822V38.246H206.044V25.282ZM204.49 30.546H206.632V32.044H204.49V30.546ZM203.328 25.52H205.064V37.7H203.328V25.52ZM198.876 25.632H200.71V28.166H198.876V25.632ZM209.683 35.236H221.415V36.748H209.683V35.236ZM214.597 32.464H216.459V35.6H214.597V32.464ZM210.915 26.108H212.763V28.096H218.293V26.108H220.141V32.856H210.915V26.108ZM212.763 29.552V31.372H218.293V29.552H212.763ZM227.77 29.636H229.912V31.148H227.77V29.636ZM224.998 26.402H226.426V28.586C226.426 31.526 225.614 34.396 223.542 35.67L222.422 34.27C224.326 33.094 224.998 30.784 224.998 28.586V26.402ZM225.404 26.402H226.804V28.502C226.804 30.616 227.35 32.772 229.114 33.92L228.106 35.376C226.048 34.102 225.404 31.302 225.404 28.502V26.402ZM232.026 25.282H233.804V38.246H232.026V25.282ZM229.394 25.478H231.13V37.658H229.394V25.478ZM238.241 31.862H240.089V35.502H238.241V31.862ZM242.945 31.862H244.807V35.502H242.945V31.862ZM235.665 35.236H247.397V36.748H235.665V35.236ZM241.517 25.912C244.303 25.912 246.361 27.284 246.361 29.398C246.361 31.512 244.303 32.87 241.517 32.87C238.717 32.87 236.673 31.512 236.673 29.398C236.673 27.284 238.717 25.912 241.517 25.912ZM241.517 27.368C239.711 27.368 238.507 28.11 238.507 29.398C238.507 30.672 239.711 31.428 241.517 31.428C243.323 31.428 244.527 30.672 244.527 29.398C244.527 28.11 243.323 27.368 241.517 27.368ZM250.07 37.112C249.65 37.112 249.304 36.9907 249.034 36.748C248.772 36.496 248.642 36.188 248.642 35.824C248.642 35.4507 248.772 35.138 249.034 34.886C249.304 34.634 249.65 34.508 250.07 34.508C250.48 34.508 250.816 34.634 251.078 34.886C251.348 35.138 251.484 35.4507 251.484 35.824C251.484 36.188 251.348 36.496 251.078 36.748C250.816 36.9907 250.48 37.112 250.07 37.112Z" fill="white"/>
<path d="M25.632 54.956H27.228V62.984H25.632V54.956ZM26.772 57.98H28.704V59.288H26.772V57.98ZM18.9 59.888H19.824C22.236 59.888 23.436 59.84 24.768 59.552L24.924 60.812C23.568 61.112 22.296 61.172 19.824 61.172H18.9V59.888ZM18.9 55.832H23.868V57.116H20.484V60.572H18.9V55.832ZM20.064 64.604H27.624V65.876H20.064V64.604ZM20.064 62.144H21.66V65.252H20.064V62.144ZM32.2431 56.708H33.5151V57.956C33.5151 60.524 32.4711 63.032 30.3831 63.98L29.4831 62.72C31.3431 61.892 32.2431 59.84 32.2431 57.956V56.708ZM32.6031 56.708H33.8631V57.956C33.8631 59.756 34.7511 61.676 36.6111 62.444L35.7471 63.704C33.6351 62.792 32.6031 60.428 32.6031 57.956V56.708ZM29.9271 56.024H36.1551V57.332H29.9271V56.024ZM37.1871 54.956H38.7951V66.068H37.1871V54.956ZM51.5011 56.396H53.4211V57.704H51.5011V56.396ZM51.5011 58.808H53.4211V60.116H51.5011V58.808ZM50.3971 54.956H51.9931V61.508H50.3971V54.956ZM44.5771 61.964H51.9931V66.068H50.3971V63.236H44.5771V61.964ZM46.3411 55.556C48.0571 55.556 49.3651 56.696 49.3651 58.28C49.3651 59.864 48.0571 60.992 46.3411 60.992C44.6251 60.992 43.3171 59.864 43.3171 58.28C43.3171 56.696 44.6251 55.556 46.3411 55.556ZM46.3411 56.912C45.5011 56.912 44.8771 57.404 44.8771 58.28C44.8771 59.156 45.5011 59.66 46.3411 59.66C47.1811 59.66 47.8051 59.156 47.8051 58.28C47.8051 57.404 47.1811 56.912 46.3411 56.912ZM54.3322 60.32H64.3762V61.58H54.3322V60.32ZM58.5442 59.012H60.1402V60.656H58.5442V59.012ZM59.3362 62.108C61.7482 62.108 63.1882 62.828 63.1882 64.088C63.1882 65.372 61.7482 66.068 59.3362 66.068C56.9242 66.068 55.4842 65.372 55.4842 64.088C55.4842 62.828 56.9242 62.108 59.3362 62.108ZM59.3362 63.308C57.8362 63.308 57.0922 63.548 57.0922 64.088C57.0922 64.64 57.8362 64.88 59.3362 64.88C60.8242 64.88 61.5682 64.64 61.5682 64.088C61.5682 63.548 60.8242 63.308 59.3362 63.308ZM55.6162 55.268H57.1882V56.204H61.5202V55.268H63.1042V59.48H55.6162V55.268ZM57.1882 57.404V58.232H61.5202V57.404H57.1882ZM65.4192 61.544H75.4752V62.84H65.4192V61.544ZM69.6432 62H71.2272V66.08H69.6432V62ZM66.6672 59.48H74.4312V60.74H66.6672V59.48ZM66.6672 55.4H74.3112V56.648H68.2392V59.78H66.6672V55.4ZM67.7952 57.452H74.0712V58.664H67.7952V57.452ZM77.0703 56.06H82.0503V61.088H77.0703V56.06ZM81.0783 56.864H78.0423V60.284H81.0783V56.864ZM84.0423 55.076H85.0383V63.032H84.0423V55.076ZM84.7263 58.388H86.6463V59.216H84.7263V58.388ZM78.2823 64.88H85.5303V65.696H78.2823V64.88ZM78.2823 62.276H79.2783V65.228H78.2823V62.276ZM93.8526 56.576H94.6086V56.732C94.6086 58.052 93.3726 59.072 91.5846 59.384L91.2366 58.664C92.7246 58.412 93.8526 57.656 93.8526 56.732V56.576ZM94.0686 56.576H94.8246V56.732C94.8246 57.608 95.9646 58.316 97.4286 58.556L97.0806 59.288C95.3166 58.976 94.0686 58.004 94.0686 56.732V56.576ZM91.4766 56H97.1886V56.744H91.4766V56ZM93.8406 58.904H94.8366V60.44H93.8406V58.904ZM93.8406 55.064H94.8246V56.36H93.8406V55.064ZM92.3406 61.712H99.3606V64.076H93.3366V65.396H92.3646V63.356H98.3886V62.468H92.3406V61.712ZM92.3646 65.06H99.7806V65.816H92.3646V65.06ZM98.3646 55.088H99.3606V61.244H98.3646V55.088ZM98.9406 57.68H100.945V58.508H98.9406V57.68ZM91.0566 60.896L90.9366 60.116C92.8806 60.116 95.4966 60.104 97.6926 59.792L97.7766 60.488C95.5086 60.872 92.9646 60.896 91.0566 60.896ZM106.98 56.648H110.292V57.464H106.98V56.648ZM106.98 59.144H110.292V59.972H106.98V59.144ZM105 55.724C106.596 55.724 107.796 56.804 107.796 58.304C107.796 59.816 106.596 60.884 105 60.884C103.392 60.884 102.204 59.816 102.204 58.304C102.204 56.804 103.392 55.724 105 55.724ZM105 56.576C103.944 56.576 103.164 57.284 103.164 58.304C103.164 59.324 103.944 60.032 105 60.032C106.056 60.032 106.848 59.324 106.848 58.304C106.848 57.284 106.056 56.576 105 56.576ZM109.968 55.088H110.964V61.508H109.968V55.088ZM107.4 61.76C109.632 61.76 111.012 62.528 111.012 63.836C111.012 65.156 109.632 65.912 107.4 65.912C105.156 65.912 103.776 65.156 103.776 63.836C103.776 62.528 105.156 61.76 107.4 61.76ZM107.4 62.552C105.756 62.552 104.76 63.032 104.76 63.836C104.76 64.652 105.756 65.132 107.4 65.132C109.032 65.132 110.028 64.652 110.028 63.836C110.028 63.032 109.032 62.552 107.4 62.552ZM120.479 55.088H121.475V65.936H120.479V55.088ZM121.235 59.54H123.251V60.38H121.235V59.54ZM113.075 56.816H119.471V57.632H113.075V56.816ZM116.315 58.532C117.851 58.532 118.955 59.564 118.955 61.028C118.955 62.492 117.851 63.524 116.315 63.524C114.791 63.524 113.675 62.492 113.675 61.028C113.675 59.564 114.791 58.532 116.315 58.532ZM116.315 59.36C115.331 59.36 114.623 60.044 114.623 61.028C114.623 62 115.331 62.696 116.315 62.696C117.299 62.696 118.007 62 118.007 61.028C118.007 60.044 117.299 59.36 116.315 59.36ZM115.799 55.22H116.795V57.188H115.799V55.22ZM129.418 56.996H132.454V57.812H129.418V56.996ZM129.418 59.312H132.478V60.14H129.418V59.312ZM124.714 56.024H129.67V61.112H124.714V56.024ZM128.686 56.828H125.686V60.308H128.686V56.828ZM132.142 55.1H133.138V63.02H132.142V55.1ZM126.166 64.88H133.402V65.696H126.166V64.88ZM126.166 62.3H127.162V65.252H126.166V62.3ZM141.64 58.76H142.648V60.56H141.64V58.76ZM146.452 55.088H147.448V61.34H146.452V55.088ZM138.736 61.076L138.592 60.272C140.572 60.272 143.272 60.248 145.564 59.912L145.636 60.62C143.272 61.04 140.668 61.076 138.736 61.076ZM139.564 58.256H144.772V59.06H139.564V58.256ZM139.564 55.628H144.676V56.444H140.56V58.568H139.564V55.628ZM140.332 61.82H141.328V62.96H146.464V61.82H147.448V65.792H140.332V61.82ZM141.328 63.74V64.988H146.464V63.74H141.328ZM157.527 55.088H158.523V65.936H157.527V55.088ZM150.327 56.144H151.311V62.864H150.327V56.144ZM150.327 62.276H151.215C152.859 62.276 154.575 62.156 156.411 61.772L156.531 62.624C154.647 63.008 152.931 63.14 151.215 63.14H150.327V62.276ZM168.062 55.076H169.07V65.948H168.062V55.076ZM168.83 59.36H170.846V60.2H168.83V59.36ZM161.186 62.408H162.038C164.042 62.408 165.446 62.336 167.066 62.036L167.174 62.876C165.506 63.188 164.078 63.248 162.038 63.248H161.186V62.408ZM161.186 56.132H166.226V56.948H162.17V62.78H161.186V56.132ZM172.489 65.072C172.281 65.072 172.105 65 171.961 64.856C171.817 64.712 171.745 64.536 171.745 64.328C171.745 64.12 171.817 63.944 171.961 63.8C172.105 63.656 172.281 63.584 172.489 63.584C172.689 63.584 172.857 63.656 172.993 63.8C173.137 63.944 173.209 64.12 173.209 64.328C173.209 64.536 173.137 64.712 172.993 64.856C172.857 65 172.689 65.072 172.489 65.072ZM18.588 76.68H28.392V77.496H18.588V76.68ZM23.004 75.06H23.988V76.932H23.004V75.06ZM19.68 78.552H27.18V81.936H26.184V79.368H19.68V78.552ZM19.896 71.34H20.88V72.564H26.124V71.34H27.12V75.396H19.896V71.34ZM20.88 73.344V74.604H26.124V73.344H20.88ZM32.0991 74.76H33.0831V76.812H32.0991V74.76ZM36.0831 74.76H37.0671V76.812H36.0831V74.76ZM29.6751 76.452H39.4791V77.256H29.6751V76.452ZM34.5711 78.072C36.8991 78.072 38.2911 78.756 38.2911 79.992C38.2911 81.228 36.8991 81.924 34.5711 81.924C32.2431 81.924 30.8511 81.228 30.8511 79.992C30.8511 78.756 32.2431 78.072 34.5711 78.072ZM34.5711 78.84C32.8791 78.84 31.8591 79.26 31.8591 79.992C31.8591 80.736 32.8791 81.144 34.5711 81.144C36.2751 81.144 37.2831 80.736 37.2831 79.992C37.2831 79.26 36.2751 78.84 34.5711 78.84ZM34.5831 71.28C36.9351 71.28 38.3991 72.036 38.3991 73.308C38.3991 74.568 36.9351 75.312 34.5831 75.312C32.2191 75.312 30.7671 74.568 30.7671 73.308C30.7671 72.036 32.2191 71.28 34.5831 71.28ZM34.5831 72.06C32.8551 72.06 31.7871 72.516 31.7871 73.308C31.7871 74.088 32.8551 74.544 34.5831 74.544C36.3111 74.544 37.3791 74.088 37.3791 73.308C37.3791 72.516 36.3111 72.06 34.5831 72.06ZM48.6701 71.076H49.6661V81.948H48.6701V71.076ZM41.3981 78.504H42.2981C44.1101 78.504 45.7301 78.432 47.6501 78.12L47.7581 78.936C45.7901 79.26 44.1581 79.332 42.2981 79.332H41.3981V78.504ZM41.3741 72.096H46.3901V75.972H42.3941V78.816H41.3981V75.156H45.3821V72.912H41.3741V72.096ZM56.2052 71.832H57.0692V72.66C57.0692 75.024 54.8732 76.86 52.7012 77.352L52.2572 76.524C54.1652 76.164 56.2052 74.508 56.2052 72.66V71.832ZM56.3852 71.832H57.2492V72.66C57.2492 74.52 59.3012 76.164 61.1972 76.524L60.7532 77.352C58.5932 76.86 56.3852 75.036 56.3852 72.66V71.832ZM51.8612 79.656H61.6892V80.472H51.8612V79.656ZM64.2083 76.932H71.6603V77.736H64.2083V76.932ZM62.9483 79.716H72.7763V80.544H62.9483V79.716ZM64.2083 72.012H71.5403V72.828H65.2163V77.184H64.2083V72.012ZM64.8923 74.436H71.3123V75.228H64.8923V74.436ZM81.6865 77.988H82.6705V81.948H81.6865V77.988ZM77.2825 77.64H87.0865V78.468H77.2825V77.64ZM81.6745 72.948H82.5505V73.224C82.5505 75.096 80.5225 76.476 78.2425 76.824L77.8945 76.032C79.8505 75.768 81.6745 74.58 81.6745 73.224V72.948ZM81.8065 72.948H82.6705V73.224C82.6705 74.568 84.5065 75.768 86.4505 76.032L86.0905 76.824C83.8225 76.488 81.8065 75.072 81.8065 73.224V72.948ZM78.2305 72.42H86.1385V73.236H78.2305V72.42ZM81.6865 71.088H82.6705V72.708H81.6865V71.088ZM95.7016 71.076H96.7096V81.936H95.7016V71.076ZM96.4336 75.48H98.4376V76.308H96.4336V75.48ZM92.9296 72.252H93.9016C93.9016 75.336 92.4856 78.12 88.9816 79.884L88.4296 79.116C91.4296 77.592 92.9296 75.276 92.9296 72.408V72.252ZM88.9336 72.252H93.4456V73.068H88.9336V72.252ZM102.193 76.56H103.189V79.152H102.193V76.56ZM102.685 71.784C104.353 71.784 105.553 72.828 105.553 74.34C105.553 75.852 104.353 76.896 102.685 76.896C101.017 76.896 99.8167 75.852 99.8167 74.34C99.8167 72.828 101.017 71.784 102.685 71.784ZM102.685 72.636C101.581 72.636 100.789 73.332 100.789 74.34C100.789 75.348 101.581 76.044 102.685 76.044C103.789 76.044 104.581 75.348 104.581 74.34C104.581 73.332 103.789 72.636 102.685 72.636ZM106.789 71.088H107.785V81.936H106.789V71.088ZM107.497 75.552H109.501V76.392H107.497V75.552ZM99.4687 79.596L99.3247 78.768C101.281 78.756 103.897 78.744 106.105 78.444L106.189 79.188C103.897 79.572 101.365 79.596 99.4687 79.596ZM121.207 71.088H122.203V76.608H121.207V71.088ZM121.771 73.416H123.799V74.244H121.771V73.416ZM115.315 77.124H122.203V79.788H116.323V81.408H115.339V79.032H121.231V77.916H115.315V77.124ZM115.339 80.988H122.599V81.792H115.339V80.988ZM116.779 71.472C118.411 71.472 119.587 72.468 119.587 73.884C119.587 75.312 118.411 76.308 116.779 76.308C115.171 76.308 113.983 75.312 113.983 73.884C113.983 72.468 115.171 71.472 116.779 71.472ZM116.779 72.288C115.735 72.288 114.955 72.948 114.955 73.884C114.955 74.832 115.735 75.492 116.779 75.492C117.847 75.492 118.627 74.832 118.627 73.884C118.627 72.948 117.847 72.288 116.779 72.288ZM132.762 71.088H133.77V77.52H132.762V71.088ZM125.43 76.188H126.306C128.274 76.188 129.726 76.128 131.466 75.852L131.574 76.656C129.786 76.956 128.322 77.016 126.306 77.016H125.43V76.188ZM125.406 71.736H130.326V74.7H126.402V76.68H125.43V73.932H129.354V72.552H125.406V71.736ZM126.762 78.12H133.77V81.792H126.762V78.12ZM132.786 78.912H127.734V80.988H132.786V78.912ZM143.489 71.088H144.473V81.936H143.489V71.088ZM144.161 75.552H146.093V76.392H144.161V75.552ZM138.293 72.252H139.205C139.205 74.868 138.653 77.4 136.709 79.5L135.905 78.936C137.693 77.076 138.293 74.82 138.293 72.36V72.252ZM136.253 72.252H138.665V73.08H136.253V72.252ZM141.245 72.252H142.169C142.169 74.88 141.797 77.856 139.805 80.22L139.001 79.668C140.837 77.544 141.245 74.856 141.245 72.348V72.252ZM139.553 72.252H141.653V73.08H139.553V72.252ZM149.92 72.636H150.724V74.4C150.724 76.692 149.344 78.996 147.616 79.848L147.04 79.056C148.612 78.312 149.92 76.272 149.92 74.4V72.636ZM150.112 72.636H150.916V74.4C150.916 76.236 152.224 78.108 153.82 78.792L153.256 79.584C151.504 78.768 150.112 76.656 150.112 74.4V72.636ZM147.4 72.192H153.46V73.032H147.4V72.192ZM154.924 71.088H155.92V81.936H154.924V71.088ZM164.038 72.024H164.854V73.968C164.854 76.368 163.558 78.708 161.842 79.62L161.23 78.828C162.802 78.036 164.038 75.948 164.038 73.968V72.024ZM164.218 72.024H165.022V73.968C165.022 75.876 166.234 77.856 167.77 78.624L167.158 79.416C165.478 78.516 164.218 76.296 164.218 73.968V72.024ZM168.718 71.088H169.726V81.936H168.718V71.088ZM169.486 75.48H171.502V76.32H169.486V75.48ZM175.353 72.276H176.181V73.38C176.181 75.372 174.957 77.04 173.133 77.7L172.617 76.908C174.249 76.332 175.353 74.928 175.353 73.38V72.276ZM175.545 72.276H176.373V73.38C176.373 74.844 177.501 76.164 179.109 76.704L178.593 77.484C176.793 76.872 175.545 75.288 175.545 73.38V72.276ZM172.881 71.988H178.821V72.792H172.881V71.988ZM180.357 71.1H181.365V79.032H180.357V71.1ZM174.393 80.88H181.689V81.696H174.393V80.88ZM174.393 78.288H175.377V81.24H174.393V78.288ZM190.977 71.1H191.973V79.236H190.977V71.1ZM191.661 74.652H193.581V75.492H191.661V74.652ZM183.585 72.408H189.993V73.212H183.585V72.408ZM186.789 73.812C188.325 73.812 189.381 74.616 189.381 75.84C189.381 77.052 188.325 77.856 186.789 77.856C185.241 77.856 184.185 77.052 184.185 75.84C184.185 74.616 185.241 73.812 186.789 73.812ZM186.789 74.592C185.805 74.592 185.133 75.084 185.133 75.84C185.133 76.584 185.805 77.076 186.789 77.076C187.761 77.076 188.433 76.584 188.433 75.84C188.433 75.084 187.761 74.592 186.789 74.592ZM186.285 71.088H187.281V72.828H186.285V71.088ZM185.217 80.88H192.465V81.696H185.217V80.88ZM185.217 78.588H186.213V81.228H185.217V78.588ZM197.312 72.252H198.128V73.128C198.128 75.12 196.928 76.788 195.104 77.448L194.6 76.656C196.232 76.08 197.312 74.676 197.312 73.128V72.252ZM197.492 72.252H198.308V73.116C198.308 74.532 199.34 75.804 200.936 76.332L200.456 77.112C198.644 76.512 197.492 74.964 197.492 73.116V72.252ZM194.9 71.892H200.696V72.708H194.9V71.892ZM202.064 71.088H203.06V77.628H202.064V71.088ZM202.784 73.836H204.668V74.676H202.784V73.836ZM199.604 77.916C201.812 77.916 203.168 78.648 203.168 79.908C203.168 81.18 201.812 81.912 199.604 81.912C197.396 81.912 196.04 81.18 196.04 79.908C196.04 78.648 197.396 77.916 199.604 77.916ZM199.604 78.72C197.996 78.72 197.012 79.152 197.012 79.908C197.012 80.676 197.996 81.132 199.604 81.132C201.212 81.132 202.196 80.676 202.196 79.908C202.196 79.152 201.212 78.72 199.604 78.72ZM210.631 71.772C212.887 71.772 214.567 72.972 214.567 74.772C214.567 76.584 212.887 77.772 210.631 77.772C208.375 77.772 206.683 76.584 206.683 74.772C206.683 72.972 208.375 71.772 210.631 71.772ZM210.631 72.588C208.915 72.588 207.643 73.464 207.643 74.772C207.643 76.068 208.915 76.956 210.631 76.956C212.347 76.956 213.619 76.068 213.619 74.772C213.619 73.464 212.347 72.588 210.631 72.588ZM205.735 79.668H215.563V80.508H205.735V79.668ZM216.822 79.776H226.65V80.604H216.822V79.776ZM221.214 77.448H222.21V80.124H221.214V77.448ZM218.01 71.892H225.438V75.18H219.03V77.352H218.046V74.376H224.454V72.696H218.01V71.892ZM218.046 76.932H225.69V77.748H218.046V76.932ZM231.144 75.264H240.984V76.068H231.144V75.264ZM232.056 71.508H234.936V72.312H232.056V71.508ZM234.6 71.508H235.572V71.82C235.572 72.42 235.572 73.752 235.068 75.564L234.096 75.444C234.6 73.644 234.6 72.444 234.6 71.82V71.508ZM236.304 71.508H239.232V72.312H236.304V71.508ZM238.788 71.508H239.76V71.976C239.76 72.684 239.76 73.92 239.328 75.612L238.356 75.468C238.788 73.812 238.788 72.672 238.788 71.976V71.508ZM232.38 77.208H239.784V77.976H233.376V81.228H232.38V77.208ZM232.38 81.024H239.856V81.792H232.38V81.024ZM232.956 79.104H239.508V79.848H232.956V79.104ZM250.475 71.088H251.435V81.936H250.475V71.088ZM248.651 75.504H250.739V76.32H248.651V75.504ZM248.015 71.328H248.951V81.384H248.015V71.328ZM242.759 72.396H243.755V78.66H242.759V72.396ZM242.759 78.264H243.455C244.571 78.264 245.819 78.192 247.235 77.916L247.343 78.78C245.867 79.068 244.619 79.128 243.455 79.128H242.759V78.264ZM253.33 79.728H263.158V80.556H253.33V79.728ZM257.722 77.136H258.718V79.968H257.722V77.136ZM254.482 71.856H255.466V73.788H260.998V71.856H261.982V77.4H254.482V71.856ZM255.466 74.592V76.584H260.998V74.592H255.466ZM268.689 74.964H270.765V75.792H268.689V74.964ZM266.661 72.108H267.441V74.172C267.441 76.44 266.493 78.636 264.909 79.608L264.285 78.852C265.773 77.976 266.661 76.032 266.661 74.172V72.108ZM266.853 72.108H267.621V74.136C267.621 75.876 268.437 77.724 269.865 78.588L269.289 79.368C267.729 78.408 266.853 76.248 266.853 74.136V72.108ZM272.673 71.088H273.633V81.936H272.673V71.088ZM270.477 71.316H271.413V81.396H270.477V71.316ZM277.904 76.668H278.888V79.92H277.904V76.668ZM281.912 76.668H282.908V79.92H281.912V76.668ZM275.504 79.728H285.332V80.556H275.504V79.728ZM280.4 71.772C282.692 71.772 284.336 72.864 284.336 74.568C284.336 76.26 282.692 77.352 280.4 77.352C278.096 77.352 276.452 76.26 276.452 74.568C276.452 72.864 278.096 71.772 280.4 71.772ZM280.4 72.564C278.66 72.564 277.412 73.356 277.412 74.568C277.412 75.768 278.66 76.56 280.4 76.56C282.14 76.56 283.376 75.768 283.376 74.568C283.376 73.356 282.14 72.564 280.4 72.564ZM287.263 81.072C287.055 81.072 286.879 81 286.735 80.856C286.591 80.712 286.519 80.536 286.519 80.328C286.519 80.12 286.591 79.944 286.735 79.8C286.879 79.656 287.055 79.584 287.263 79.584C287.463 79.584 287.631 79.656 287.767 79.8C287.911 79.944 287.983 80.12 287.983 80.328C287.983 80.536 287.911 80.712 287.767 80.856C287.631 81 287.463 81.072 287.263 81.072Z" fill="white"/>
<defs>
<clipPath id="clip0_1504_4229">
<rect width="307" height="140" fill="white"/>
</clipPath>
</defs>
</svg>
