<svg width="307" height="140" viewBox="0 0 307 140" fill="none" xmlns="http://www.w3.org/2000/svg">
<rect x="5" width="302" height="140" rx="20" fill="url(#paint0_linear_1504_4229)"/>
<g clip-path="url(#clip0_1504_4229)">
<rect x="0.668577" y="0.840181" width="94.4738" height="111.89" rx="15.25" transform="matrix(0.992116 0.125323 -0.10068 0.994919 248.484 73.9205)" stroke="white" stroke-opacity="0.2" stroke-width="1.5"/>
<rect x="0.668577" y="0.840181" width="94.1717" height="91.514" rx="15.25" transform="matrix(0.992116 0.125323 -0.10068 0.994919 224.654 100.791)" stroke="white" stroke-opacity="0.2" stroke-width="1.5"/>
<rect x="0.668577" y="0.840181" width="94.1717" height="93.6136" rx="15.25" transform="matrix(0.992116 0.125323 -0.10068 0.994919 264.937 89.942)" stroke="white" stroke-opacity="0.2" stroke-width="1.5"/>
</g>
<path d="M21.472 26.276H22.984V28.166C22.984 31.372 21.864 34.382 19.414 35.586L18.294 34.088C20.478 33.066 21.472 30.574 21.472 28.166V26.276ZM21.85 26.276H23.334V28.166C23.334 30.49 24.258 32.856 26.33 33.864L25.21 35.348C22.872 34.158 21.85 31.274 21.85 28.166V26.276ZM26.848 25.282H28.724V38.246H26.848V25.282ZM28.304 30.266H30.6V31.82H28.304V30.266ZM34.7009 26.724H36.2409V27.816C36.2409 30.266 35.0509 32.478 32.5589 33.29L31.6069 31.834C33.7629 31.134 34.7009 29.454 34.7009 27.816V26.724ZM35.0789 26.724H36.6049V27.816C36.6049 29.356 37.5289 30.938 39.6429 31.61L38.6909 33.052C36.2549 32.282 35.0789 30.168 35.0789 27.816V26.724ZM32.0969 26.206H39.1529V27.676H32.0969V26.206ZM40.4549 25.296H42.3309V34.648H40.4549V25.296ZM33.6929 36.538H42.6529V38.022H33.6929V36.538ZM33.6929 33.808H35.5549V37.28H33.6929V33.808ZM50.4078 25.464C53.3618 25.464 55.0978 26.248 55.0978 27.676C55.0978 29.104 53.3618 29.888 50.4078 29.888C47.4398 29.888 45.7178 29.104 45.7178 27.676C45.7178 26.248 47.4398 25.464 50.4078 25.464ZM50.4078 26.822C48.5318 26.822 47.6498 27.102 47.6498 27.676C47.6498 28.278 48.5318 28.53 50.4078 28.53C52.2838 28.53 53.1658 28.278 53.1658 27.676C53.1658 27.102 52.2838 26.822 50.4078 26.822ZM44.5418 30.49H56.2598V31.96H44.5418V30.49ZM45.8858 32.688H54.8458V36.02H47.7338V37.168H45.8998V34.732H53.0118V34.074H45.8858V32.688ZM45.8998 36.762H55.1818V38.162H45.8998V36.762ZM62.4455 33.57H71.6715V38.246H69.7955V35.04H62.4455V33.57ZM69.7955 25.282H71.6715V32.996H69.7955V25.282ZM62.2495 26.836H63.5655V27.578C63.5655 29.692 63.0895 31.792 61.3255 32.73L60.3595 31.4C61.8015 30.616 62.2495 29.062 62.2495 27.578V26.836ZM62.7255 26.836H63.9855V27.578C63.9855 28.936 64.3215 30.574 65.7495 31.512L64.9375 32.856C63.1175 31.82 62.7255 29.496 62.7255 27.578V26.836ZM65.8895 26.836H67.1635V27.578C67.1635 29.524 66.7715 31.834 64.9375 32.856L64.1395 31.512C65.5675 30.588 65.8895 28.95 65.8895 27.578V26.836ZM66.3375 26.836H67.6675V27.578C67.6675 29.062 68.0875 30.616 69.5435 31.4L68.5915 32.73C66.8135 31.778 66.3375 29.692 66.3375 27.578V26.836ZM60.8495 26.136H64.6995V27.606H60.8495V26.136ZM65.1895 26.136H68.9135V27.606H65.1895V26.136ZM77.1584 26.178C79.0904 26.178 80.5044 27.97 80.5044 30.798C80.5044 33.654 79.0904 35.446 77.1584 35.446C75.2124 35.446 73.8124 33.654 73.8124 30.798C73.8124 27.97 75.2124 26.178 77.1584 26.178ZM77.1584 27.872C76.2204 27.872 75.5904 28.894 75.5904 30.798C75.5904 32.73 76.2204 33.766 77.1584 33.766C78.1104 33.766 78.7264 32.73 78.7264 30.798C78.7264 28.894 78.1104 27.872 77.1584 27.872ZM82.6324 25.268H84.4804V38.274H82.6324V25.268ZM79.9584 29.944H83.4164V31.442H79.9584V29.944ZM99.3041 26.962H101.544V28.488H99.3041V26.962ZM99.3041 29.776H101.544V31.302H99.3041V29.776ZM98.0161 25.282H99.8781V32.926H98.0161V25.282ZM91.2261 33.458H99.8781V38.246H98.0161V34.942H91.2261V33.458ZM93.2841 25.982C95.2861 25.982 96.8121 27.312 96.8121 29.16C96.8121 31.008 95.2861 32.324 93.2841 32.324C91.2821 32.324 89.7561 31.008 89.7561 29.16C89.7561 27.312 91.2821 25.982 93.2841 25.982ZM93.2841 27.564C92.3041 27.564 91.5761 28.138 91.5761 29.16C91.5761 30.182 92.3041 30.77 93.2841 30.77C94.2641 30.77 94.9921 30.182 94.9921 29.16C94.9921 28.138 94.2641 27.564 93.2841 27.564ZM108.529 25.464C111.483 25.464 113.219 26.248 113.219 27.676C113.219 29.104 111.483 29.888 108.529 29.888C105.561 29.888 103.839 29.104 103.839 27.676C103.839 26.248 105.561 25.464 108.529 25.464ZM108.529 26.822C106.653 26.822 105.771 27.102 105.771 27.676C105.771 28.278 106.653 28.53 108.529 28.53C110.405 28.53 111.287 28.278 111.287 27.676C111.287 27.102 110.405 26.822 108.529 26.822ZM102.663 30.49H114.381V31.96H102.663V30.49ZM104.007 32.688H112.967V36.02H105.855V37.168H104.021V34.732H111.133V34.074H104.007V32.688ZM104.021 36.762H113.303V38.162H104.021V36.762ZM123.465 26.024H125.411C125.411 29.44 123.311 31.792 119.517 32.828L118.789 31.386C121.883 30.546 123.465 28.894 123.465 26.906V26.024ZM119.503 26.024H124.753V27.494H119.503V26.024ZM127.721 25.282H129.583V32.534H127.721V25.282ZM125.481 28.348H127.987V29.86H125.481V28.348ZM121.043 33.052H129.583V38.106H121.043V33.052ZM127.749 34.522H122.877V36.636H127.749V34.522ZM134.062 26.024H135.518V27.508C135.518 29.72 134.636 31.918 132.522 32.828L131.542 31.386C133.348 30.588 134.062 28.978 134.062 27.508V26.024ZM134.398 26.024H135.854V27.508C135.854 28.95 136.54 30.35 138.248 31.064L137.268 32.478C135.252 31.652 134.398 29.664 134.398 27.508V26.024ZM141.006 25.296H142.77V33.15H141.006V25.296ZM139.452 28.432H141.51V29.944H139.452V28.432ZM138.262 25.492H139.998V33.08H138.262V25.492ZM133.866 33.71H142.77V38.246H140.922V35.194H133.866V33.71ZM144.701 27.228H150.903V28.712H144.701V27.228ZM147.823 29.286C149.475 29.286 150.665 30.56 150.665 32.38C150.665 34.186 149.475 35.46 147.823 35.46C146.185 35.46 144.981 34.186 144.981 32.38C144.981 30.56 146.185 29.286 147.823 29.286ZM147.823 30.84C147.123 30.84 146.633 31.4 146.633 32.38C146.633 33.36 147.123 33.906 147.823 33.906C148.523 33.906 149.027 33.36 149.027 32.38C149.027 31.4 148.523 30.84 147.823 30.84ZM154.081 25.282H155.859V38.246H154.081V25.282ZM152.527 30.546H154.669V32.044H152.527V30.546ZM151.365 25.52H153.101V37.7H151.365V25.52ZM146.913 25.632H148.747V28.166H146.913V25.632ZM157.719 35.236H169.451V36.748H157.719V35.236ZM162.633 32.464H164.495V35.6H162.633V32.464ZM158.951 26.108H160.799V28.096H166.329V26.108H168.177V32.856H158.951V26.108ZM160.799 29.552V31.372H166.329V29.552H160.799ZM175.806 29.636H177.948V31.148H175.806V29.636ZM173.034 26.402H174.462V28.586C174.462 31.526 173.65 34.396 171.578 35.67L170.458 34.27C172.362 33.094 173.034 30.784 173.034 28.586V26.402ZM173.44 26.402H174.84V28.502C174.84 30.616 175.386 32.772 177.15 33.92L176.142 35.376C174.084 34.102 173.44 31.302 173.44 28.502V26.402ZM180.062 25.282H181.84V38.246H180.062V25.282ZM177.43 25.478H179.166V37.658H177.43V25.478ZM186.277 31.862H188.125V35.502H186.277V31.862ZM190.981 31.862H192.843V35.502H190.981V31.862ZM183.701 35.236H195.433V36.748H183.701V35.236ZM189.553 25.912C192.339 25.912 194.397 27.284 194.397 29.398C194.397 31.512 192.339 32.87 189.553 32.87C186.753 32.87 184.709 31.512 184.709 29.398C184.709 27.284 186.753 25.912 189.553 25.912ZM189.553 27.368C187.747 27.368 186.543 28.11 186.543 29.398C186.543 30.672 187.747 31.428 189.553 31.428C191.359 31.428 192.563 30.672 192.563 29.398C192.563 28.11 191.359 27.368 189.553 27.368ZM198.106 37.112C197.686 37.112 197.341 36.9907 197.07 36.748C196.809 36.496 196.678 36.188 196.678 35.824C196.678 35.4507 196.809 35.138 197.07 34.886C197.341 34.634 197.686 34.508 198.106 34.508C198.517 34.508 198.853 34.634 199.114 34.886C199.385 35.138 199.52 35.4507 199.52 35.824C199.52 36.188 199.385 36.496 199.114 36.748C198.853 36.9907 198.517 37.112 198.106 37.112Z" fill="white"/>
<path d="M26.712 48.732H28.596V49.572H26.712V48.732ZM26.712 51.06H28.596V51.888H26.712V51.06ZM26.016 47.088H27.012V53.532H26.016V47.088ZM19.968 54.048H27.012V57.936H26.016V54.852H19.968V54.048ZM21.624 47.724C23.256 47.724 24.456 48.78 24.456 50.304C24.456 51.816 23.256 52.86 21.624 52.86C19.992 52.86 18.792 51.816 18.792 50.304C18.792 48.78 19.992 47.724 21.624 47.724ZM21.624 48.576C20.544 48.576 19.764 49.272 19.764 50.304C19.764 51.324 20.544 52.032 21.624 52.032C22.704 52.032 23.484 51.324 23.484 50.304C23.484 49.272 22.704 48.576 21.624 48.576ZM29.6751 52.524H39.4791V53.328H29.6751V52.524ZM34.0911 51.012H35.0751V52.788H34.0911V51.012ZM34.5711 54.132C36.8991 54.132 38.2791 54.816 38.2791 56.028C38.2791 57.24 36.8991 57.912 34.5711 57.912C32.2551 57.912 30.8631 57.24 30.8631 56.028C30.8631 54.816 32.2551 54.132 34.5711 54.132ZM34.5711 54.9C32.8671 54.9 31.8711 55.308 31.8711 56.028C31.8711 56.748 32.8671 57.156 34.5711 57.156C36.2751 57.156 37.2711 56.748 37.2711 56.028C37.2711 55.308 36.2751 54.9 34.5711 54.9ZM30.9831 47.364H31.9671V48.564H37.2111V47.364H38.2071V51.372H30.9831V47.364ZM31.9671 49.344V50.568H37.2111V49.344H31.9671ZM40.7621 53.652H50.5901V54.48H40.7621V53.652ZM45.1781 53.892H46.1621V57.948H45.1781V53.892ZM42.0701 51.732H49.4981V52.548H42.0701V51.732ZM42.0701 47.592H49.3781V48.396H43.0541V51.972H42.0701V47.592ZM42.7661 49.644H49.1141V50.424H42.7661V49.644ZM51.8492 52.128H61.6892V52.884H51.8492V52.128ZM53.0132 53.76H60.4532V56.076H54.0332V57.348H53.0492V55.392H59.4812V54.468H53.0132V53.76ZM53.0492 57.084H60.8012V57.804H53.0492V57.084ZM53.0972 47.4H60.4172V49.656H54.1052V50.832H53.1212V48.984H59.4452V48.108H53.0972V47.4ZM53.1212 50.592H60.6212V51.312H53.1212V50.592ZM74.0795 47.088H75.0755V52.56H74.0795V47.088ZM67.4315 53.244H70.7915V55.812H68.4035V57.252H67.4555V55.092H69.8435V54H67.4315V53.244ZM67.4555 57.012H68.0195C69.4475 57.012 70.2035 56.988 71.1515 56.808L71.2595 57.552C70.2635 57.756 69.4715 57.768 68.0195 57.768H67.4555V57.012ZM71.1995 53.748H75.8315V54.492H71.1995V53.748ZM73.5155 54.924C74.5955 54.924 75.3875 55.512 75.3875 56.424C75.3875 57.336 74.5955 57.912 73.5155 57.912C72.4475 57.912 71.6315 57.336 71.6315 56.424C71.6315 55.512 72.4475 54.924 73.5155 54.924ZM73.5155 55.644C72.9155 55.644 72.4835 55.944 72.4835 56.424C72.4835 56.904 72.9155 57.216 73.5155 57.216C74.1155 57.216 74.5355 56.904 74.5355 56.424C74.5355 55.944 74.1155 55.644 73.5155 55.644ZM73.0475 52.752H74.0075V54.228H73.0475V52.752ZM69.2315 47.484C70.8515 47.484 72.0395 48.468 72.0395 49.896C72.0395 51.312 70.8515 52.296 69.2315 52.296C67.6235 52.296 66.4355 51.312 66.4355 49.896C66.4355 48.468 67.6235 47.484 69.2315 47.484ZM69.2315 48.3C68.1875 48.3 67.3955 48.96 67.3955 49.896C67.3955 50.832 68.1875 51.48 69.2315 51.48C70.2875 51.48 71.0675 50.832 71.0675 49.896C71.0675 48.96 70.2875 48.3 69.2315 48.3ZM80.1745 47.916C81.7465 47.916 82.8745 49.392 82.8745 51.696C82.8745 54.012 81.7465 55.488 80.1745 55.488C78.5905 55.488 77.4745 54.012 77.4745 51.696C77.4745 49.392 78.5905 47.916 80.1745 47.916ZM80.1745 48.816C79.1305 48.816 78.4225 49.944 78.4225 51.696C78.4225 53.46 79.1305 54.612 80.1745 54.612C81.2185 54.612 81.9265 53.46 81.9265 51.696C81.9265 49.944 81.2185 48.816 80.1745 48.816ZM85.2265 47.076H86.2105V57.948H85.2265V47.076ZM82.5505 51.216H85.6585V52.032H82.5505V51.216ZM96.3136 47.076H97.2976V57.948H96.3136V47.076ZM93.4456 51.108H96.6016V51.924H93.4456V51.108ZM88.8016 47.94H89.7856V50.76H92.7976V47.94H93.7816V55.224H88.8016V47.94ZM89.7856 51.552V54.396H92.7976V51.552H89.7856ZM99.9007 52.272H100.681C102.781 52.272 103.849 52.248 105.169 52.02L105.277 52.824C103.909 53.064 102.817 53.088 100.681 53.088H99.9007V52.272ZM99.8767 47.64H104.557V50.7H100.885V52.884H99.9007V49.92H103.573V48.456H99.8767V47.64ZM107.377 47.1H108.373V53.592H107.377V47.1ZM105.277 48.6H107.617V49.404H105.277V48.6ZM105.277 50.856H107.617V51.672H105.277V50.856ZM102.181 53.88H102.961V54.48C102.961 55.908 102.073 57.36 100.501 57.96L100.009 57.216C101.377 56.712 102.181 55.536 102.181 54.48V53.88ZM102.409 53.88H103.141V54.48C103.141 55.584 103.789 56.76 105.097 57.3L104.665 58.044C103.105 57.432 102.409 55.932 102.409 54.48V53.88ZM106.189 53.88H106.933V54.48C106.933 55.776 106.213 57.396 104.665 58.044L104.245 57.3C105.541 56.712 106.189 55.428 106.189 54.48V53.88ZM106.393 53.88H107.161V54.48C107.161 55.608 107.965 56.748 109.345 57.216L108.841 57.96C107.257 57.384 106.393 55.992 106.393 54.48V53.88ZM115.44 47.268C117.828 47.268 119.256 47.94 119.256 49.152C119.256 50.364 117.828 51.036 115.44 51.036C113.04 51.036 111.624 50.364 111.624 49.152C111.624 47.94 113.04 47.268 115.44 47.268ZM115.44 48.024C113.664 48.024 112.644 48.432 112.644 49.152C112.644 49.872 113.664 50.28 115.44 50.28C117.204 50.28 118.224 49.872 118.224 49.152C118.224 48.432 117.204 48.024 115.44 48.024ZM110.532 51.756H120.336V52.56H110.532V51.756ZM111.72 53.484H119.088V55.932H112.728V57.252H111.744V55.212H118.104V54.252H111.72V53.484ZM111.744 57.036H119.412V57.816H111.744V57.036ZM127.835 47.316H128.759V57.396H127.835V47.316ZM128.375 51.504H130.379V52.32H128.375V51.504ZM121.943 54.288H122.375C122.795 54.288 123.503 54.276 124.343 54.072L124.427 54.9C123.527 55.116 122.831 55.116 122.375 55.116H121.943V54.288ZM121.943 48.444H124.259V49.26H122.867V54.756H121.943V48.444ZM124.727 54.288H125.183C125.759 54.288 126.515 54.264 127.343 54.036L127.439 54.864C126.551 55.104 125.807 55.116 125.183 55.116H124.727V54.288ZM124.727 48.444H127.115V49.26H125.639V54.72H124.727V48.444ZM130.031 47.088H130.979V57.936H130.031V47.088ZM134.17 55.488L132.826 58.716H132.094L132.97 55.488H134.17ZM18.588 68.68H28.392V69.496H18.588V68.68ZM23.004 67.06H23.988V68.932H23.004V67.06ZM19.68 70.552H27.18V73.936H26.184V71.368H19.68V70.552ZM19.896 63.34H20.88V64.564H26.124V63.34H27.12V67.396H19.896V63.34ZM20.88 65.344V66.604H26.124V65.344H20.88ZM32.0991 66.76H33.0831V68.812H32.0991V66.76ZM36.0831 66.76H37.0671V68.812H36.0831V66.76ZM29.6751 68.452H39.4791V69.256H29.6751V68.452ZM34.5711 70.072C36.8991 70.072 38.2911 70.756 38.2911 71.992C38.2911 73.228 36.8991 73.924 34.5711 73.924C32.2431 73.924 30.8511 73.228 30.8511 71.992C30.8511 70.756 32.2431 70.072 34.5711 70.072ZM34.5711 70.84C32.8791 70.84 31.8591 71.26 31.8591 71.992C31.8591 72.736 32.8791 73.144 34.5711 73.144C36.2751 73.144 37.2831 72.736 37.2831 71.992C37.2831 71.26 36.2751 70.84 34.5711 70.84ZM34.5831 63.28C36.9351 63.28 38.3991 64.036 38.3991 65.308C38.3991 66.568 36.9351 67.312 34.5831 67.312C32.2191 67.312 30.7671 66.568 30.7671 65.308C30.7671 64.036 32.2191 63.28 34.5831 63.28ZM34.5831 64.06C32.8551 64.06 31.7871 64.516 31.7871 65.308C31.7871 66.088 32.8551 66.544 34.5831 66.544C36.3111 66.544 37.3791 66.088 37.3791 65.308C37.3791 64.516 36.3111 64.06 34.5831 64.06ZM48.1181 63.088H49.1141V73.936H48.1181V63.088ZM48.8741 67.54H50.8901V68.38H48.8741V67.54ZM40.7141 64.816H47.1101V65.632H40.7141V64.816ZM43.9541 66.532C45.4901 66.532 46.5941 67.564 46.5941 69.028C46.5941 70.492 45.4901 71.524 43.9541 71.524C42.4301 71.524 41.3141 70.492 41.3141 69.028C41.3141 67.564 42.4301 66.532 43.9541 66.532ZM43.9541 67.36C42.9701 67.36 42.2621 68.044 42.2621 69.028C42.2621 70 42.9701 70.696 43.9541 70.696C44.9381 70.696 45.6461 70 45.6461 69.028C45.6461 68.044 44.9381 67.36 43.9541 67.36ZM43.4381 63.22H44.4341V65.188H43.4381V63.22ZM52.4732 68.608H53.2892C55.2932 68.608 56.5652 68.536 58.0412 68.248L58.1372 69.064C56.6252 69.352 55.3292 69.424 53.2892 69.424H52.4732V68.608ZM52.4732 63.976H57.4412V64.792H53.4572V68.86H52.4732V63.976ZM59.7812 63.088H60.7772V71.008H59.7812V63.088ZM56.7452 66.088H60.0092V66.892H56.7452V66.088ZM53.8412 72.952H61.0652V73.768H53.8412V72.952ZM53.8412 70.42H54.8372V73.42H53.8412V70.42ZM74.3075 64.732H76.1915V65.572H74.3075V64.732ZM74.3075 67.06H76.1915V67.888H74.3075V67.06ZM73.6115 63.088H74.6075V69.532H73.6115V63.088ZM67.5635 70.048H74.6075V73.936H73.6115V70.852H67.5635V70.048ZM69.2195 63.724C70.8515 63.724 72.0515 64.78 72.0515 66.304C72.0515 67.816 70.8515 68.86 69.2195 68.86C67.5875 68.86 66.3875 67.816 66.3875 66.304C66.3875 64.78 67.5875 63.724 69.2195 63.724ZM69.2195 64.576C68.1395 64.576 67.3595 65.272 67.3595 66.304C67.3595 67.324 68.1395 68.032 69.2195 68.032C70.2995 68.032 71.0795 67.324 71.0795 66.304C71.0795 65.272 70.2995 64.576 69.2195 64.576ZM77.7625 64.276H82.6705V65.08H77.7625V64.276ZM79.4545 67.372H80.4385V71.044H79.4545V67.372ZM82.2625 64.276H83.2345V64.852C83.2345 65.74 83.2345 67.156 82.9225 69.172L81.9385 69.076C82.2625 67.12 82.2625 65.728 82.2625 64.852V64.276ZM84.6025 63.088H85.5865V73.936H84.6025V63.088ZM85.3225 67.624H87.3265V68.464H85.3225V67.624ZM77.2825 71.572L77.1625 70.732C79.1305 70.732 81.7465 70.696 83.9425 70.42L83.9905 71.152C81.7465 71.512 79.2025 71.56 77.2825 71.572ZM94.5088 63.916C96.0808 63.916 97.2088 65.392 97.2088 67.696C97.2088 70.012 96.0808 71.488 94.5088 71.488C92.9248 71.488 91.8088 70.012 91.8088 67.696C91.8088 65.392 92.9248 63.916 94.5088 63.916ZM94.5088 64.816C93.4648 64.816 92.7568 65.944 92.7568 67.696C92.7568 69.46 93.4648 70.612 94.5088 70.612C95.5528 70.612 96.2608 69.46 96.2608 67.696C96.2608 65.944 95.5528 64.816 94.5088 64.816ZM99.5608 63.076H100.545V73.948H99.5608V63.076ZM96.8848 67.216H99.9928V68.032H96.8848V67.216ZM104.492 72.88H112.004V73.696H104.492V72.88ZM104.492 70.336H105.5V73.336H104.492V70.336ZM110.744 63.1H111.74V70.996H110.744V63.1ZM108.8 66.064H111.548V66.88H108.8V66.064ZM102.98 68.428H103.46C104.108 68.428 104.924 68.404 105.848 68.2L105.944 69.016C104.948 69.232 104.156 69.244 103.46 69.244H102.98V68.428ZM102.98 63.988H105.728V64.804H103.964V68.668H102.98V63.988ZM106.316 68.428H106.856C108.008 68.428 108.788 68.404 109.712 68.188L109.808 69.004C108.836 69.208 108.044 69.244 106.856 69.244H106.316V68.428ZM106.316 63.988H109.304V64.804H107.288V68.644H106.316V63.988ZM119.666 63.652H120.494V64.756C120.494 66.844 119.318 68.572 117.506 69.28L116.978 68.476C118.61 67.876 119.666 66.412 119.666 64.756V63.652ZM119.846 63.652H120.662V64.828C120.662 66.292 121.742 67.648 123.302 68.188L122.774 68.968C121.034 68.32 119.846 66.712 119.846 64.828V63.652ZM124.454 63.088H125.45V69.664H124.454V63.088ZM125.174 65.884H127.058V66.724H125.174V65.884ZM121.994 69.964C124.214 69.964 125.558 70.696 125.558 71.944C125.558 73.192 124.214 73.912 121.994 73.912C119.774 73.912 118.43 73.192 118.43 71.944C118.43 70.696 119.774 69.964 121.994 69.964ZM121.994 70.756C120.386 70.756 119.402 71.188 119.402 71.944C119.402 72.7 120.386 73.132 121.994 73.132C123.602 73.132 124.586 72.7 124.586 71.944C124.586 71.188 123.602 70.756 121.994 70.756ZM128.605 64.672H137.413V65.488H128.605V64.672ZM128.125 71.848H137.953V72.676H128.125V71.848ZM132.529 70.132H133.513V72.172H132.529V70.132ZM133.009 66.22C135.205 66.22 136.561 66.976 136.561 68.284C136.561 69.592 135.205 70.348 133.009 70.348C130.825 70.348 129.469 69.592 129.469 68.284C129.469 66.976 130.825 66.22 133.009 66.22ZM133.009 67C131.437 67 130.465 67.48 130.465 68.284C130.465 69.088 131.437 69.556 133.009 69.556C134.593 69.556 135.553 69.088 135.553 68.284C135.553 67.48 134.593 67 133.009 67ZM132.529 63.268H133.513V65.176H132.529V63.268ZM141.876 64.204H142.692V65.08C142.692 67.072 141.492 68.728 139.68 69.376L139.152 68.596C140.796 68.02 141.876 66.628 141.876 65.08V64.204ZM142.056 64.204H142.872V65.068C142.872 66.508 143.916 67.84 145.512 68.38L144.996 69.16C143.208 68.536 142.056 66.94 142.056 65.068V64.204ZM139.464 63.844H145.26V64.66H139.464V63.844ZM146.628 63.088H147.624V69.616H146.628V63.088ZM147.348 65.944H149.232V66.772H147.348V65.944ZM140.58 70.192H147.624V73.936H146.628V71.02H140.58V70.192ZM152.711 66.76H153.695V68.812H152.711V66.76ZM156.695 66.76H157.679V68.812H156.695V66.76ZM150.287 68.452H160.091V69.256H150.287V68.452ZM155.183 70.072C157.511 70.072 158.903 70.756 158.903 71.992C158.903 73.228 157.511 73.924 155.183 73.924C152.855 73.924 151.463 73.228 151.463 71.992C151.463 70.756 152.855 70.072 155.183 70.072ZM155.183 70.84C153.491 70.84 152.471 71.26 152.471 71.992C152.471 72.736 153.491 73.144 155.183 73.144C156.887 73.144 157.895 72.736 157.895 71.992C157.895 71.26 156.887 70.84 155.183 70.84ZM155.195 63.28C157.547 63.28 159.011 64.036 159.011 65.308C159.011 66.568 157.547 67.312 155.195 67.312C152.831 67.312 151.379 66.568 151.379 65.308C151.379 64.036 152.831 63.28 155.195 63.28ZM155.195 64.06C153.467 64.06 152.399 64.516 152.399 65.308C152.399 66.088 153.467 66.544 155.195 66.544C156.923 66.544 157.991 66.088 157.991 65.308C157.991 64.516 156.923 64.06 155.195 64.06ZM166.282 63.268C168.67 63.268 170.098 63.94 170.098 65.152C170.098 66.364 168.67 67.036 166.282 67.036C163.882 67.036 162.466 66.364 162.466 65.152C162.466 63.94 163.882 63.268 166.282 63.268ZM166.282 64.024C164.506 64.024 163.486 64.432 163.486 65.152C163.486 65.872 164.506 66.28 166.282 66.28C168.046 66.28 169.066 65.872 169.066 65.152C169.066 64.432 168.046 64.024 166.282 64.024ZM161.374 67.756H171.178V68.56H161.374V67.756ZM162.562 69.484H169.93V71.932H163.57V73.252H162.586V71.212H168.946V70.252H162.562V69.484ZM162.586 73.036H170.254V73.816H162.586V73.036ZM183.065 63.088H184.061V73.936H183.065V63.088ZM183.821 67.54H185.837V68.38H183.821V67.54ZM175.661 64.816H182.057V65.632H175.661V64.816ZM178.901 66.532C180.437 66.532 181.541 67.564 181.541 69.028C181.541 70.492 180.437 71.524 178.901 71.524C177.377 71.524 176.261 70.492 176.261 69.028C176.261 67.564 177.377 66.532 178.901 66.532ZM178.901 67.36C177.917 67.36 177.209 68.044 177.209 69.028C177.209 70 177.917 70.696 178.901 70.696C179.885 70.696 180.593 70 180.593 69.028C180.593 68.044 179.885 67.36 178.901 67.36ZM178.385 63.22H179.381V65.188H178.385V63.22ZM188.128 66.34H195.496V67.156H188.128V66.34ZM186.796 68.608H196.636V69.424H186.796V68.608ZM188.128 63.484H189.112V66.748H188.128V63.484ZM188.056 72.856H195.556V73.672H188.056V72.856ZM188.056 70.504H189.04V73.072H188.056V70.504ZM200.763 64.636H201.567V66.4C201.567 68.692 200.187 70.996 198.459 71.848L197.883 71.056C199.455 70.312 200.763 68.272 200.763 66.4V64.636ZM200.955 64.636H201.759V66.4C201.759 68.236 203.067 70.108 204.663 70.792L204.099 71.584C202.347 70.768 200.955 68.656 200.955 66.4V64.636ZM198.243 64.192H204.303V65.032H198.243V64.192ZM205.767 63.088H206.763V73.936H205.767V63.088ZM213.477 63.556H220.461V64.36H213.477V63.556ZM212.229 67.42H222.057V68.236H212.229V67.42ZM216.621 67.996H217.617V70.24H216.621V67.996ZM219.813 63.556H220.785V64.336C220.785 65.224 220.785 66.316 220.425 67.792L219.453 67.672C219.813 66.232 219.813 65.2 219.813 64.336V63.556ZM217.113 69.904C219.453 69.904 220.881 70.636 220.881 71.92C220.881 73.192 219.453 73.924 217.113 73.924C214.773 73.924 213.357 73.192 213.357 71.92C213.357 70.636 214.773 69.904 217.113 69.904ZM217.113 70.72C215.397 70.72 214.353 71.152 214.353 71.92C214.353 72.676 215.397 73.12 217.113 73.12C218.841 73.12 219.873 72.676 219.873 71.92C219.873 71.152 218.841 70.72 217.113 70.72ZM224.564 63.652H231.548V64.468H224.564V63.652ZM223.316 67.648H233.144V68.464H223.316V67.648ZM230.9 63.652H231.872V64.456C231.872 65.38 231.872 66.436 231.512 67.936L230.54 67.888C230.9 66.4 230.9 65.356 230.9 64.456V63.652ZM224.516 69.94H231.908V73.792H224.516V69.94ZM230.936 70.732H225.488V72.988H230.936V70.732ZM241.819 63.052H242.815V69.04H241.819V63.052ZM242.395 65.656H244.423V66.496H242.395V65.656ZM235.927 69.592H242.815V72.016H236.935V73.336H235.951V71.296H241.843V70.348H235.927V69.592ZM235.951 73.048H243.211V73.816H235.951V73.048ZM234.427 64.06H240.835V64.84H234.427V64.06ZM237.631 65.32C239.191 65.32 240.223 66.004 240.223 67.108C240.223 68.2 239.191 68.872 237.631 68.872C236.047 68.872 235.027 68.2 235.027 67.108C235.027 66.004 236.047 65.32 237.631 65.32ZM237.631 66.052C236.623 66.052 235.975 66.46 235.975 67.108C235.975 67.744 236.623 68.152 237.631 68.152C238.627 68.152 239.275 67.744 239.275 67.108C239.275 66.46 238.627 66.052 237.631 66.052ZM237.127 62.968H238.123V64.6H237.127V62.968ZM251.694 63.316H252.618V73.396H251.694V63.316ZM252.234 67.504H254.238V68.32H252.234V67.504ZM245.802 70.288H246.234C246.654 70.288 247.362 70.276 248.202 70.072L248.286 70.9C247.386 71.116 246.69 71.116 246.234 71.116H245.802V70.288ZM245.802 64.444H248.118V65.26H246.726V70.756H245.802V64.444ZM248.586 70.288H249.042C249.618 70.288 250.374 70.264 251.202 70.036L251.298 70.864C250.41 71.104 249.666 71.116 249.042 71.116H248.586V70.288ZM248.586 64.444H250.974V65.26H249.498V70.72H248.586V64.444ZM253.89 63.088H254.838V73.936H253.89V63.088ZM258.029 71.488L256.685 74.716H255.953L256.829 71.488H258.029ZM20.976 95.808H22.272V97.428C22.272 100.176 21.312 102.756 19.212 103.788L18.252 102.504C20.124 101.628 20.976 99.492 20.976 97.428V95.808ZM21.3 95.808H22.572V97.428C22.572 99.42 23.364 101.448 25.14 102.312L24.18 103.584C22.176 102.564 21.3 100.092 21.3 97.428V95.808ZM25.584 94.956H27.192V106.068H25.584V94.956ZM26.832 99.228H28.8V100.56H26.832V99.228ZM32.2671 96.192H33.5871V97.128C33.5871 99.228 32.5671 101.124 30.4311 101.82L29.6151 100.572C31.4631 99.972 32.2671 98.532 32.2671 97.128V96.192ZM32.5911 96.192H33.8991V97.128C33.8991 98.448 34.6911 99.804 36.5031 100.38L35.6871 101.616C33.5991 100.956 32.5911 99.144 32.5911 97.128V96.192ZM30.0351 95.748H36.0831V97.008H30.0351V95.748ZM37.1991 94.968H38.8071V102.984H37.1991V94.968ZM31.4031 104.604H39.0831V105.876H31.4031V104.604ZM31.4031 102.264H32.9991V105.24H31.4031V102.264ZM50.7135 94.968H52.3095V103.272H50.7135V94.968ZM51.8535 98.352H53.7855V99.66H51.8535V98.352ZM43.5615 96.12H50.1015V97.368H43.5615V96.12ZM46.8375 97.764C48.4335 97.764 49.5615 98.64 49.5615 99.912C49.5615 101.184 48.4335 102.048 46.8375 102.048C45.2295 102.048 44.1015 101.184 44.1015 99.912C44.1015 98.64 45.2295 97.764 46.8375 97.764ZM46.8375 98.976C46.1295 98.976 45.6375 99.312 45.6375 99.912C45.6375 100.512 46.1295 100.836 46.8375 100.836C47.5455 100.836 48.0375 100.512 48.0375 99.912C48.0375 99.312 47.5455 98.976 46.8375 98.976ZM46.0335 94.944H47.6295V96.732H46.0335V94.944ZM45.1455 104.604H52.7055V105.876H45.1455V104.604ZM45.1455 102.648H46.7415V105.156H45.1455V102.648ZM57.1206 96.192H58.4286V96.888C58.4286 99.012 57.4326 100.92 55.2846 101.628L54.4926 100.368C56.3406 99.756 57.1206 98.304 57.1206 96.888V96.192ZM57.4446 96.192H58.7406V96.888C58.7406 98.184 59.4846 99.456 61.2726 99.996L60.5166 101.244C58.4046 100.608 57.4446 98.868 57.4446 96.888V96.192ZM54.9126 95.7H60.9126V96.972H54.9126V95.7ZM61.8006 94.956H63.3966V101.544H61.8006V94.956ZM62.9526 97.512H64.8726V98.82H62.9526V97.512ZM59.7726 101.748C62.0766 101.748 63.5286 102.552 63.5286 103.908C63.5286 105.264 62.0766 106.068 59.7726 106.068C57.4566 106.068 56.0046 105.264 56.0046 103.908C56.0046 102.552 57.4566 101.748 59.7726 101.748ZM59.7726 102.996C58.3566 102.996 57.5886 103.284 57.5886 103.908C57.5886 104.532 58.3566 104.844 59.7726 104.844C61.1886 104.844 61.9446 104.532 61.9446 103.908C61.9446 103.284 61.1886 102.996 59.7726 102.996ZM70.7636 95.508C73.1036 95.508 74.9156 96.792 74.9156 98.724C74.9156 100.668 73.1036 101.94 70.7636 101.94C68.4236 101.94 66.6116 100.668 66.6116 98.724C66.6116 96.792 68.4236 95.508 70.7636 95.508ZM70.7636 96.804C69.2516 96.804 68.1716 97.524 68.1716 98.724C68.1716 99.912 69.2516 100.632 70.7636 100.632C72.2756 100.632 73.3556 99.912 73.3556 98.724C73.3556 97.524 72.2756 96.804 70.7636 96.804ZM65.7476 103.428H75.8036V104.736H65.7476V103.428ZM76.8347 103.548H86.8907V104.844H76.8347V103.548ZM81.0467 101.448H82.6427V104.076H81.0467V101.448ZM77.9627 95.676H85.7627V99.372H79.5707V101.244H77.9867V98.124H84.1787V96.936H77.9627V95.676ZM77.9867 100.608H86.0147V101.892H77.9867V100.608ZM90.8051 96.624H96.1211V97.896H90.8051V96.624ZM93.4811 98.388C94.8971 98.388 95.9171 99.48 95.9171 101.04C95.9171 102.588 94.8971 103.68 93.4811 103.68C92.0771 103.68 91.0451 102.588 91.0451 101.04C91.0451 99.48 92.0771 98.388 93.4811 98.388ZM93.4811 99.72C92.8811 99.72 92.4611 100.2 92.4611 101.04C92.4611 101.88 92.8811 102.348 93.4811 102.348C94.0811 102.348 94.5131 101.88 94.5131 101.04C94.5131 100.2 94.0811 99.72 93.4811 99.72ZM98.8451 94.956H100.369V106.068H98.8451V94.956ZM97.5131 99.468H99.3491V100.752H97.5131V99.468ZM96.5171 95.16H98.0051V105.6H96.5171V95.16ZM92.7011 95.256H94.2731V97.428H92.7011V95.256ZM109.608 94.956H111.204V100.536H109.608V94.956ZM105.9 95.376H107.64C107.64 98.328 105.936 100.056 102.564 100.788L102.036 99.504C104.82 98.952 105.9 97.728 105.9 96.24V95.376ZM102.672 95.376H106.572V96.648H102.672V95.376ZM107.208 96.336H109.812V97.548H107.208V96.336ZM107.136 98.496H109.752V99.696H107.136V98.496ZM103.86 100.944H111.204V104.004H105.48V105.384H103.884V102.828H109.608V102.192H103.86V100.944ZM103.884 104.712H111.432V105.96H103.884V104.712ZM120.119 94.956H121.703V106.068H120.119V94.956ZM121.343 99.288H123.311V100.62H121.343V99.288ZM112.943 96.6H119.411V97.872H112.943V96.6ZM116.195 98.496C117.815 98.496 119.015 99.6 119.015 101.148C119.015 102.696 117.815 103.8 116.195 103.8C114.575 103.8 113.375 102.696 113.375 101.148C113.375 99.6 114.575 98.496 116.195 98.496ZM116.195 99.792C115.439 99.792 114.899 100.296 114.899 101.148C114.899 102 115.439 102.504 116.195 102.504C116.951 102.504 117.491 102 117.491 101.148C117.491 100.296 116.951 99.792 116.195 99.792ZM115.391 95.136H116.987V97.08H115.391V95.136ZM128.458 98.688H130.294V99.984H128.458V98.688ZM126.082 95.916H127.306V97.788C127.306 100.308 126.61 102.768 124.834 103.86L123.874 102.66C125.506 101.652 126.082 99.672 126.082 97.788V95.916ZM126.43 95.916H127.63V97.716C127.63 99.528 128.098 101.376 129.61 102.36L128.746 103.608C126.982 102.516 126.43 100.116 126.43 97.716V95.916ZM132.106 94.956H133.63V106.068H132.106V94.956ZM129.85 95.124H131.338V105.564H129.85V95.124ZM137.385 100.596H138.969V103.716H137.385V100.596ZM141.417 100.596H143.013V103.716H141.417V100.596ZM135.177 103.488H145.233V104.784H135.177V103.488ZM140.193 95.496C142.581 95.496 144.345 96.672 144.345 98.484C144.345 100.296 142.581 101.46 140.193 101.46C137.793 101.46 136.041 100.296 136.041 98.484C136.041 96.672 137.793 95.496 140.193 95.496ZM140.193 96.744C138.645 96.744 137.613 97.38 137.613 98.484C137.613 99.576 138.645 100.224 140.193 100.224C141.741 100.224 142.773 99.576 142.773 98.484C142.773 97.38 141.741 96.744 140.193 96.744ZM148.772 96.48L148.58 102.276H147.164L146.96 96.48H148.772ZM147.908 105.084C147.604 105.084 147.352 104.992 147.152 104.808C146.96 104.616 146.864 104.38 146.864 104.1C146.864 103.82 146.96 103.588 147.152 103.404C147.352 103.212 147.604 103.116 147.908 103.116C148.204 103.116 148.448 103.212 148.64 103.404C148.832 103.588 148.928 103.82 148.928 104.1C148.928 104.38 148.832 104.616 148.64 104.808C148.448 104.992 148.204 105.084 147.908 105.084Z" fill="white"/>
<defs>
<linearGradient id="paint0_linear_1504_4229" x1="307" y1="140" x2="-86.9375" y2="74.2433" gradientUnits="userSpaceOnUse">
<stop stop-color="#92A3FD"/>
<stop offset="1" stop-color="#9DCEFF"/>
</linearGradient>
<clipPath id="clip0_1504_4229">
<rect width="307" height="140" fill="white"/>
</clipPath>
</defs>
</svg>
