<svg width="93" height="93" viewBox="0 0 93 93" fill="none" xmlns="http://www.w3.org/2000/svg">
<path d="M58.0596 38.9951L58.0596 31.7394L58.0596 10.0092C58.0596 8.78133 57.5417 7.70227 56.7649 6.92087C55.951 6.13948 54.8413 5.61856 53.6945 5.61855L39.3046 5.61855C38.0839 5.61855 37.0111 6.13948 36.2343 6.92087C35.4575 7.70226 34.9396 8.81854 34.9396 10.0092L34.9396 31.7394C34.9396 33.3021 33.6448 34.6045 32.0912 34.6045L10.4878 34.6045C9.26711 34.6045 8.19434 35.1254 7.4175 35.9068C6.64067 36.6882 6.12278 37.7672 6.12278 38.9951L6.12278 53.4695C6.12278 54.6602 6.64067 55.7392 7.4175 56.5578C8.19433 57.3392 9.2671 57.8602 10.4878 57.8602L27.3932 57.8602L27.3932 63.5904L10.5248 63.5904C7.75042 63.5904 5.23497 62.4369 3.45935 60.6136C1.64674 58.7904 0.499993 56.2602 0.499994 53.5067L0.499996 39.0323C0.499997 36.2417 1.64675 33.7114 3.45936 31.9254C5.23498 30.1021 7.78742 28.9487 10.5248 28.9487L29.2798 28.9487L29.2798 10.0836C29.2798 7.29296 30.4265 4.79995 32.2392 2.9767C34.0148 1.15346 36.5672 -2.86153e-05 39.3046 -2.80379e-05L53.6945 -2.50027e-05C56.4689 -2.44175e-05 58.9474 1.11625 60.76 2.97671C62.5726 4.79995 63.7194 7.33018 63.7194 10.0837L63.7194 31.8138L63.7194 39.0696C63.7194 45.8416 60.945 51.9811 56.5059 56.409C52.1039 60.8741 46.0002 63.6648 39.2676 63.6648L36.7892 63.6648L36.7892 57.9346L39.2676 57.9346C44.4095 57.9346 49.1075 55.7765 52.5108 52.3904C55.914 48.8928 58.0596 44.1672 58.0596 38.9951Z" fill="#00E1F0"/>
<path d="M34.9404 53.4695L34.9404 60.7252L34.9404 82.4182C34.9404 83.6461 35.4583 84.7251 36.2351 85.5065C37.012 86.3251 38.0847 86.8088 39.3055 86.8088L53.6954 86.8088C54.8791 86.8088 55.9519 86.3251 56.7657 85.5065C57.5425 84.7251 58.0604 83.6461 58.0604 82.4182L58.0604 60.7252C58.0604 59.1252 59.3182 57.8601 60.9088 57.8601L82.4752 57.8601C83.6959 57.8601 84.7687 57.3392 85.5455 56.5578C86.3593 55.7392 86.8402 54.6229 86.8402 53.4695L86.8402 38.9951C86.8402 37.7672 86.3593 36.6882 85.5455 35.9068C84.7687 35.1254 83.6959 34.6044 82.4752 34.6044L65.6438 34.6044L65.6438 28.8742L82.4752 28.8742C85.2496 28.8742 87.765 29.9905 89.5776 31.851C91.3533 33.6742 92.5 36.2044 92.5 38.9951L92.5 53.4695C92.5 56.2602 91.3532 58.7532 89.5776 60.5764C87.765 62.3997 85.2126 63.5531 82.4752 63.5531L63.7572 63.5531L63.7572 82.4182C63.7572 85.2461 62.6474 87.7391 60.7978 89.5623C58.9482 91.3483 56.4698 92.5018 53.6954 92.5018L39.3055 92.5018C36.5311 92.5018 34.0156 91.3483 32.24 89.5623C30.4274 87.7391 29.2806 85.2088 29.2806 82.4182L29.2806 60.7252L29.2806 53.4695C29.2806 46.6974 32.018 40.5579 36.4571 36.0928C40.8961 31.6277 46.9998 28.8742 53.7324 28.8742L56.1738 28.8742L56.1738 34.6044L53.7324 34.6044C48.5535 34.6044 43.8925 36.7254 40.4522 40.1486C37.049 43.5718 34.9404 48.2602 34.9404 53.4695Z" fill="white"/>
</svg>
