<svg width="56" height="81" viewBox="0 0 56 81" fill="none" xmlns="http://www.w3.org/2000/svg">
<path d="M7.6 71.44H20.185V73.015H7.6V71.44ZM12.85 72.235H14.83V77.335H12.85V72.235ZM9.04 63.97H11.02V65.545H16.72V63.97H18.7V70.12H9.04V63.97ZM11.02 67.105V68.53H16.72V67.105H11.02ZM24.4888 64.87H26.1238V65.74C26.1238 68.365 24.8788 70.72 22.2238 71.575L21.1888 70.03C23.5138 69.28 24.4888 67.48 24.4888 65.74V64.87ZM24.8938 64.87H26.5138V65.74C26.5138 67.375 27.4588 69.07 29.7088 69.79L28.6888 71.335C26.0938 70.495 24.8938 68.23 24.8938 65.74V64.87ZM21.7288 64.255H29.2288V65.845H21.7288V64.255ZM30.3388 63.445H32.3338V71.815H30.3388V63.445ZM31.7788 66.805H34.1788V68.44H31.7788V66.805ZM23.0638 72.415H32.3338V77.335H30.3388V74.02H23.0638V72.415ZM38.0177 68.095H40.0127V70.645H38.0177V68.095ZM42.9077 68.095H44.8877V70.645H42.9077V68.095ZM35.1977 70.03H47.7527V71.605H35.1977V70.03ZM41.4527 72.31C44.4527 72.31 46.2677 73.21 46.2677 74.815C46.2677 76.435 44.4527 77.335 41.4527 77.335C38.4377 77.335 36.6227 76.435 36.6227 74.815C36.6227 73.21 38.4377 72.31 41.4527 72.31ZM41.4527 73.81C39.5927 73.81 38.6477 74.125 38.6477 74.815C38.6477 75.52 39.5927 75.835 41.4527 75.835C43.3127 75.835 44.2577 75.52 44.2577 74.815C44.2577 74.125 43.3127 73.81 41.4527 73.81ZM41.4827 63.64C44.5427 63.64 46.5077 64.66 46.5077 66.325C46.5077 67.975 44.5427 68.965 41.4827 68.965C38.4077 68.965 36.4577 67.975 36.4577 66.325C36.4577 64.66 38.4077 63.64 41.4827 63.64ZM41.4827 65.17C39.5777 65.17 38.5127 65.545 38.5127 66.325C38.5127 67.09 39.5777 67.465 41.4827 67.465C43.3877 67.465 44.4527 67.09 44.4527 66.325C44.4527 65.545 43.3877 65.17 41.4827 65.17Z" fill="#5A5A5A"/>
<path d="M27.6944 55.5743C42.9897 55.5743 55.389 43.175 55.389 27.8797C55.389 12.5844 42.9897 0.185181 27.6944 0.185181C12.3991 0.185181 -0.00012207 12.5844 -0.00012207 27.8797C-0.00012207 43.175 12.3991 55.5743 27.6944 55.5743Z" fill="#FFDD67"/>
<path d="M38.6242 30.566C41.182 30.566 43.2554 28.4925 43.2554 25.9348C43.2554 23.377 41.182 21.3036 38.6242 21.3036C36.0665 21.3036 33.993 23.377 33.993 25.9348C33.993 28.4925 36.0665 30.566 38.6242 30.566Z" fill="#664E27"/>
<path d="M16.8573 30.5659C19.4151 30.5659 21.4885 28.4924 21.4885 25.9347C21.4885 23.3769 19.4151 21.3035 16.8573 21.3035C14.2996 21.3035 12.2261 23.3769 12.2261 25.9347C12.2261 28.4924 14.2996 30.5659 16.8573 30.5659Z" fill="#664E27"/>
<path d="M27.7871 0C22.2296 0 16.9501 1.66723 12.5967 4.53857C28.9912 12.9673 43.3479 25.8421 51.2209 42.6996C53.9996 38.4389 55.5742 33.252 55.5742 27.7872C55.5742 12.4116 43.1626 0 27.7871 0Z" fill="#CCCFD4"/>
<path d="M28.6208 1.48218C23.5265 1.48218 18.8027 2.96416 14.8199 5.55763C30.2881 12.6897 44.089 23.434 51.3137 38.717C54.185 33.3448 53.9998 26.7685 53.9998 26.7685C53.9072 12.7823 42.6071 1.48218 28.6208 1.48218Z" fill="white"/>
<path d="M12.782 4.3533C26.2125 4.26068 39.5503 7.40989 51.5914 13.4304C54.0922 17.5985 55.5742 22.5076 55.5742 27.7871V29.0839C39.6418 19.269 20.9455 14.9119 2.31549 16.6723C4.53846 11.578 8.24342 7.31727 12.782 4.3533Z" fill="#CCCFD4"/>
<path d="M13.8933 5.6501C26.4901 5.55747 39.4575 9.35505 50.7576 14.542C53.8142 20.5625 53.9994 25.5642 53.9994 25.5642C38.7165 17.506 21.2106 13.4305 5.0014 15.0051C5.0014 15.0051 8.89161 7.78044 13.8933 5.6501Z" fill="white"/>
<path d="M35.4747 37.7904C30.1025 36.401 24.3598 37.4199 19.8212 40.5691C18.7098 41.4027 20.8401 44.2741 21.9516 43.5331C24.9156 41.4027 29.732 40.0134 34.6411 41.3101C35.8452 41.588 36.864 38.2535 35.4747 37.7904Z" fill="#664E27"/>
</svg>
