<svg width="56" height="81" viewBox="0 0 56 81" fill="none" xmlns="http://www.w3.org/2000/svg">
<path d="M18.88 70.42H20.875V72.865H18.88V70.42ZM13.6 69.76H26.155V71.335H13.6V69.76ZM19.855 72.325C22.855 72.325 24.67 73.225 24.67 74.83C24.67 76.435 22.855 77.335 19.855 77.335C16.84 77.335 15.025 76.435 15.025 74.83C15.025 73.225 16.84 72.325 19.855 72.325ZM19.855 73.825C17.995 73.825 17.05 74.14 17.05 74.83C17.05 75.505 17.995 75.835 19.855 75.835C21.715 75.835 22.66 75.505 22.66 74.83C22.66 74.14 21.715 73.825 19.855 73.825ZM18.505 64.75H20.275V65.095C20.275 67.18 18.4 68.89 14.815 69.22L14.125 67.66C17.17 67.405 18.505 66.175 18.505 65.095V64.75ZM19.48 64.75H21.25V65.095C21.25 66.19 22.57 67.405 25.63 67.66L24.94 69.22C21.37 68.89 19.48 67.195 19.48 65.095V64.75ZM14.74 64.015H25.03V65.59H14.74V64.015ZM36.3388 63.445H38.3338V73.48H36.3388V63.445ZM37.7638 67.225H40.1788V68.86H37.7638V67.225ZM27.9238 69.61H29.0788C32.0938 69.61 33.5938 69.55 35.2588 69.19L35.4538 70.765C33.7588 71.14 32.1688 71.215 29.0788 71.215H27.9238V69.61ZM27.9238 64.54H34.1338V66.145H29.9038V70.465H27.9238V64.54ZM29.3788 75.505H38.8288V77.095H29.3788V75.505ZM29.3788 72.43H31.3738V76.315H29.3788V72.43Z" fill="#5A5A5A"/>
<path d="M0 27.7742C0 43.1492 12.3992 55.5483 27.7742 55.5483C43.1492 55.5483 55.5483 43.1492 55.5483 27.7742C55.5483 12.3992 43.1492 0 27.7742 0C12.3992 0 0 12.3992 0 27.7742Z" fill="#FFDD67"/>
<path d="M10.1176 9.91942C13.4902 7.93555 17.5571 7.63797 21.3265 8.92748C21.8224 9.12587 22.616 7.2412 22.0208 7.04281C17.7555 5.45571 13.0934 5.85249 9.12566 8.13394C8.53049 8.43152 9.62162 10.217 10.1176 9.91942ZM33.924 12.8952C37.2966 10.9114 41.3635 10.6138 45.1329 11.9033C45.6288 12.1017 46.4224 10.217 45.8272 10.0186C41.5619 8.43152 36.8998 8.82829 32.9321 11.1097C32.3369 11.4073 33.4281 13.0936 33.924 12.8952Z" fill="#917524"/>
<path d="M19.9377 32.4365C24.9965 31.147 30.5514 32.0397 34.8167 35.0155C35.9078 35.7099 33.9239 38.4873 32.8328 37.6938C29.9562 35.8091 25.4925 34.4204 20.8304 35.6107C19.6401 35.9083 18.6481 32.8333 19.9377 32.4365Z" fill="#664E27"/>
<path d="M38.4871 26.8814C34.4201 26.8814 31.0475 23.5088 31.0475 19.4419C31.0475 17.7556 31.6427 16.1685 32.5354 14.9782C34.2217 14.4822 36.1064 14.2838 38.0903 14.2838C40.4709 14.2838 42.7524 14.6806 44.7362 15.3749C45.5298 16.5653 46.0258 17.954 46.0258 19.5411C45.9266 23.608 42.6532 26.8814 38.4871 26.8814Z" fill="white"/>
<path d="M39.479 14.2838C39.8758 14.879 40.1733 15.5733 40.1733 16.3669C40.1733 18.4499 38.487 20.1362 36.404 20.1362C34.3209 20.1362 32.7338 18.4499 32.7338 16.4661C32.7338 15.8709 32.833 15.3749 33.1306 14.879C34.6185 14.4822 36.3048 14.2838 38.0903 14.2838H39.479Z" fill="#664E27"/>
<path d="M17.0616 26.8814C12.9947 26.8814 9.62213 23.5088 9.62213 19.4419C9.62213 17.7556 10.2173 16.1685 11.11 14.9782C12.7963 14.4822 14.681 14.2838 16.6649 14.2838C19.0455 14.2838 21.327 14.6806 23.3108 15.3749C24.1044 16.5653 24.6003 17.954 24.6003 19.5411C24.5012 23.608 21.1286 26.8814 17.0616 26.8814Z" fill="white"/>
<path d="M18.0528 14.2839C18.4496 14.879 18.7472 15.5734 18.7472 16.3669C18.7472 18.45 17.0609 20.1363 14.9778 20.1363C12.8948 20.1363 11.2085 18.45 11.2085 16.3669C11.2085 15.7718 11.3077 15.2758 11.6053 14.7799C13.0932 14.3831 14.7795 14.1847 16.5649 14.1847C17.1601 14.2839 17.5569 14.2839 18.0528 14.2839Z" fill="#664E27"/>
<path d="M28.3696 41.6613C24.2035 42.6532 13.5898 43.9427 11.7051 41.9589C10.8124 41.0661 11.0108 39.7766 11.3083 37.4952C11.6059 35.2137 9.42366 32.8331 7.83656 32.6347C5.95188 32.4363 4.86076 33.825 5.55511 35.8089C6.94382 40.2726 4.1664 41.6613 3.96802 44.9347C3.86882 46.8194 3.27366 49.9935 6.15027 54.0605C9.42366 58.6234 15.0777 58.7226 17.0616 58.6234C19.343 58.5242 20.3349 58.425 20.8309 57.4331C21.4261 56.2427 21.1285 55.9452 21.4261 55.5484C21.922 54.6556 22.2196 54.7548 22.5172 53.6637C22.8148 52.5726 22.0212 51.8782 22.2196 51.3823C22.6164 50.1919 23.6083 50.3903 22.6164 47.6129C25.989 47.1169 28.1712 46.621 30.1551 45.4306C33.8252 43.4468 30.6511 41.1653 28.3696 41.6613Z" fill="white"/>
<path d="M13.3909 59.2184C10.0183 58.6232 7.24086 56.9369 5.45538 54.4571C2.67796 50.5886 2.87635 47.5136 3.07474 45.4305V44.7361C3.17393 43.3474 3.5707 42.2563 4.06667 41.1652C4.76103 39.5781 5.35619 38.2886 4.56264 35.9079C4.16587 34.7176 4.26506 33.5273 5.05861 32.7337C5.75296 32.0394 6.74489 31.6426 7.93522 31.841H8.03441C10.1175 32.2378 12.4981 35.0152 12.2005 37.6934C11.903 39.8757 11.8038 40.8676 12.3989 41.4628C12.4981 41.5619 12.7957 41.8595 13.8868 41.9587C17.6562 42.6531 25.0957 41.5619 28.1707 40.8676C28.6666 40.7684 29.2618 40.7684 29.857 40.8676C31.3449 41.1652 32.436 42.0579 32.7336 43.149C32.8328 43.8434 32.8328 45.1329 30.7497 46.3232C28.7658 47.4144 26.6828 48.0095 23.8062 48.4063C24.5997 50.3902 22.715 51.0845 23.1118 51.8781C23.6078 52.9692 23.5086 53.8619 22.4175 54.9531C21.6239 55.6474 22.6158 56.5402 21.8223 57.9289C20.9296 59.4168 19.4417 59.516 17.2594 59.6152C15.7715 59.516 14.5812 59.516 13.3909 59.2184ZM5.85215 34.916C6.54651 38.1894 6.74489 39.3797 5.55457 42.0579C3.76909 45.6289 3.07474 55.7466 13.6884 57.6313C20.136 58.8216 21.1279 57.2345 20.8304 55.5482C20.632 54.4571 21.5247 54.0603 21.8223 53.6635C22.5167 52.4732 21.5247 51.8781 21.5247 51.3821C21.5247 50.4894 22.4175 50.4894 22.6158 49.5966C22.9134 48.0095 20.9296 47.4144 22.6158 47.3152C25.8892 47.1168 28.0715 46.5216 29.9562 45.2321C31.7416 44.0418 30.4521 41.5619 28.0715 42.0579C22.5167 43.2482 14.1844 44.6369 11.407 42.0579C10.1175 40.8676 11.1094 39.4789 11.0102 36.8007C10.8118 33.2297 5.1578 31.841 5.85215 34.916Z" fill="#CCCFD4"/>
</svg>
